<?xml version="1.0" encoding="utf-8" standalone="no"?>
<!DOCTYPE svg PUBLIC "-//W3C//DTD SVG 1.1//EN"
  "http://www.w3.org/Graphics/SVG/1.1/DTD/svg11.dtd">
<!-- Created with matplotlib (https://matplotlib.org/) -->
<svg height="288pt" version="1.1" viewBox="0 0 432 288" width="432pt" xmlns="http://www.w3.org/2000/svg" xmlns:xlink="http://www.w3.org/1999/xlink">
 <defs>
  <style type="text/css">
*{stroke-linecap:butt;stroke-linejoin:round;}
  </style>
 </defs>
 <g id="figure_1">
  <g id="patch_1">
   <path d="M 0 288 
L 432 288 
L 432 0 
L 0 0 
z
" style="fill:#ffffff;"/>
  </g>
  <g id="axes_1">
   <g id="patch_2">
    <path d="M 54 252 
L 388.8 252 
L 388.8 34.56 
L 54 34.56 
z
" style="fill:#ffffff;"/>
   </g>
   <g id="matplotlib.axis_1">
    <g id="xtick_1">
     <g id="line2d_1">
      <defs>
       <path d="M 0 0 
L 0 3.5 
" id="mc0675997b5" style="stroke:#000000;stroke-width:0.8;"/>
      </defs>
      <g>
       <use style="stroke:#000000;stroke-width:0.8;" x="69.218182" xlink:href="#mc0675997b5" y="252"/>
      </g>
     </g>
     <g id="text_1">
      <!-- 0.0 -->
      <defs>
       <path d="M 31.78125 66.40625 
Q 24.171875 66.40625 20.328125 58.90625 
Q 16.5 51.421875 16.5 36.375 
Q 16.5 21.390625 20.328125 13.890625 
Q 24.171875 6.390625 31.78125 6.390625 
Q 39.453125 6.390625 43.28125 13.890625 
Q 47.125 21.390625 47.125 36.375 
Q 47.125 51.421875 43.28125 58.90625 
Q 39.453125 66.40625 31.78125 66.40625 
z
M 31.78125 74.21875 
Q 44.046875 74.21875 50.515625 64.515625 
Q 56.984375 54.828125 56.984375 36.375 
Q 56.984375 17.96875 50.515625 8.265625 
Q 44.046875 -1.421875 31.78125 -1.421875 
Q 19.53125 -1.421875 13.0625 8.265625 
Q 6.59375 17.96875 6.59375 36.375 
Q 6.59375 54.828125 13.0625 64.515625 
Q 19.53125 74.21875 31.78125 74.21875 
z
" id="DejaVuSans-48"/>
       <path d="M 10.6875 12.40625 
L 21 12.40625 
L 21 0 
L 10.6875 0 
z
" id="DejaVuSans-46"/>
      </defs>
      <g transform="translate(61.266619 266.598437)scale(0.1 -0.1)">
       <use xlink:href="#DejaVuSans-48"/>
       <use x="63.623047" xlink:href="#DejaVuSans-46"/>
       <use x="95.410156" xlink:href="#DejaVuSans-48"/>
      </g>
     </g>
    </g>
    <g id="xtick_2">
     <g id="line2d_2">
      <g>
       <use style="stroke:#000000;stroke-width:0.8;" x="130.090909" xlink:href="#mc0675997b5" y="252"/>
      </g>
     </g>
     <g id="text_2">
      <!-- 0.2 -->
      <defs>
       <path d="M 19.1875 8.296875 
L 53.609375 8.296875 
L 53.609375 0 
L 7.328125 0 
L 7.328125 8.296875 
Q 12.9375 14.109375 22.625 23.890625 
Q 32.328125 33.6875 34.8125 36.53125 
Q 39.546875 41.84375 41.421875 45.53125 
Q 43.3125 49.21875 43.3125 52.78125 
Q 43.3125 58.59375 39.234375 62.25 
Q 35.15625 65.921875 28.609375 65.921875 
Q 23.96875 65.921875 18.8125 64.3125 
Q 13.671875 62.703125 7.8125 59.421875 
L 7.8125 69.390625 
Q 13.765625 71.78125 18.9375 73 
Q 24.125 74.21875 28.421875 74.21875 
Q 39.75 74.21875 46.484375 68.546875 
Q 53.21875 62.890625 53.21875 53.421875 
Q 53.21875 48.921875 51.53125 44.890625 
Q 49.859375 40.875 45.40625 35.40625 
Q 44.1875 33.984375 37.640625 27.21875 
Q 31.109375 20.453125 19.1875 8.296875 
z
" id="DejaVuSans-50"/>
      </defs>
      <g transform="translate(122.139347 266.598437)scale(0.1 -0.1)">
       <use xlink:href="#DejaVuSans-48"/>
       <use x="63.623047" xlink:href="#DejaVuSans-46"/>
       <use x="95.410156" xlink:href="#DejaVuSans-50"/>
      </g>
     </g>
    </g>
    <g id="xtick_3">
     <g id="line2d_3">
      <g>
       <use style="stroke:#000000;stroke-width:0.8;" x="190.963636" xlink:href="#mc0675997b5" y="252"/>
      </g>
     </g>
     <g id="text_3">
      <!-- 0.4 -->
      <defs>
       <path d="M 37.796875 64.3125 
L 12.890625 25.390625 
L 37.796875 25.390625 
z
M 35.203125 72.90625 
L 47.609375 72.90625 
L 47.609375 25.390625 
L 58.015625 25.390625 
L 58.015625 17.1875 
L 47.609375 17.1875 
L 47.609375 0 
L 37.796875 0 
L 37.796875 17.1875 
L 4.890625 17.1875 
L 4.890625 26.703125 
z
" id="DejaVuSans-52"/>
      </defs>
      <g transform="translate(183.012074 266.598437)scale(0.1 -0.1)">
       <use xlink:href="#DejaVuSans-48"/>
       <use x="63.623047" xlink:href="#DejaVuSans-46"/>
       <use x="95.410156" xlink:href="#DejaVuSans-52"/>
      </g>
     </g>
    </g>
    <g id="xtick_4">
     <g id="line2d_4">
      <g>
       <use style="stroke:#000000;stroke-width:0.8;" x="251.836364" xlink:href="#mc0675997b5" y="252"/>
      </g>
     </g>
     <g id="text_4">
      <!-- 0.6 -->
      <defs>
       <path d="M 33.015625 40.375 
Q 26.375 40.375 22.484375 35.828125 
Q 18.609375 31.296875 18.609375 23.390625 
Q 18.609375 15.53125 22.484375 10.953125 
Q 26.375 6.390625 33.015625 6.390625 
Q 39.65625 6.390625 43.53125 10.953125 
Q 47.40625 15.53125 47.40625 23.390625 
Q 47.40625 31.296875 43.53125 35.828125 
Q 39.65625 40.375 33.015625 40.375 
z
M 52.59375 71.296875 
L 52.59375 62.3125 
Q 48.875 64.0625 45.09375 64.984375 
Q 41.3125 65.921875 37.59375 65.921875 
Q 27.828125 65.921875 22.671875 59.328125 
Q 17.53125 52.734375 16.796875 39.40625 
Q 19.671875 43.65625 24.015625 45.921875 
Q 28.375 48.1875 33.59375 48.1875 
Q 44.578125 48.1875 50.953125 41.515625 
Q 57.328125 34.859375 57.328125 23.390625 
Q 57.328125 12.15625 50.6875 5.359375 
Q 44.046875 -1.421875 33.015625 -1.421875 
Q 20.359375 -1.421875 13.671875 8.265625 
Q 6.984375 17.96875 6.984375 36.375 
Q 6.984375 53.65625 15.1875 63.9375 
Q 23.390625 74.21875 37.203125 74.21875 
Q 40.921875 74.21875 44.703125 73.484375 
Q 48.484375 72.75 52.59375 71.296875 
z
" id="DejaVuSans-54"/>
      </defs>
      <g transform="translate(243.884801 266.598437)scale(0.1 -0.1)">
       <use xlink:href="#DejaVuSans-48"/>
       <use x="63.623047" xlink:href="#DejaVuSans-46"/>
       <use x="95.410156" xlink:href="#DejaVuSans-54"/>
      </g>
     </g>
    </g>
    <g id="xtick_5">
     <g id="line2d_5">
      <g>
       <use style="stroke:#000000;stroke-width:0.8;" x="312.709091" xlink:href="#mc0675997b5" y="252"/>
      </g>
     </g>
     <g id="text_5">
      <!-- 0.8 -->
      <defs>
       <path d="M 31.78125 34.625 
Q 24.75 34.625 20.71875 30.859375 
Q 16.703125 27.09375 16.703125 20.515625 
Q 16.703125 13.921875 20.71875 10.15625 
Q 24.75 6.390625 31.78125 6.390625 
Q 38.8125 6.390625 42.859375 10.171875 
Q 46.921875 13.96875 46.921875 20.515625 
Q 46.921875 27.09375 42.890625 30.859375 
Q 38.875 34.625 31.78125 34.625 
z
M 21.921875 38.8125 
Q 15.578125 40.375 12.03125 44.71875 
Q 8.5 49.078125 8.5 55.328125 
Q 8.5 64.0625 14.71875 69.140625 
Q 20.953125 74.21875 31.78125 74.21875 
Q 42.671875 74.21875 48.875 69.140625 
Q 55.078125 64.0625 55.078125 55.328125 
Q 55.078125 49.078125 51.53125 44.71875 
Q 48 40.375 41.703125 38.8125 
Q 48.828125 37.15625 52.796875 32.3125 
Q 56.78125 27.484375 56.78125 20.515625 
Q 56.78125 9.90625 50.3125 4.234375 
Q 43.84375 -1.421875 31.78125 -1.421875 
Q 19.734375 -1.421875 13.25 4.234375 
Q 6.78125 9.90625 6.78125 20.515625 
Q 6.78125 27.484375 10.78125 32.3125 
Q 14.796875 37.15625 21.921875 38.8125 
z
M 18.3125 54.390625 
Q 18.3125 48.734375 21.84375 45.5625 
Q 25.390625 42.390625 31.78125 42.390625 
Q 38.140625 42.390625 41.71875 45.5625 
Q 45.3125 48.734375 45.3125 54.390625 
Q 45.3125 60.0625 41.71875 63.234375 
Q 38.140625 66.40625 31.78125 66.40625 
Q 25.390625 66.40625 21.84375 63.234375 
Q 18.3125 60.0625 18.3125 54.390625 
z
" id="DejaVuSans-56"/>
      </defs>
      <g transform="translate(304.757528 266.598437)scale(0.1 -0.1)">
       <use xlink:href="#DejaVuSans-48"/>
       <use x="63.623047" xlink:href="#DejaVuSans-46"/>
       <use x="95.410156" xlink:href="#DejaVuSans-56"/>
      </g>
     </g>
    </g>
    <g id="xtick_6">
     <g id="line2d_6">
      <g>
       <use style="stroke:#000000;stroke-width:0.8;" x="373.581818" xlink:href="#mc0675997b5" y="252"/>
      </g>
     </g>
     <g id="text_6">
      <!-- 1.0 -->
      <defs>
       <path d="M 12.40625 8.296875 
L 28.515625 8.296875 
L 28.515625 63.921875 
L 10.984375 60.40625 
L 10.984375 69.390625 
L 28.421875 72.90625 
L 38.28125 72.90625 
L 38.28125 8.296875 
L 54.390625 8.296875 
L 54.390625 0 
L 12.40625 0 
z
" id="DejaVuSans-49"/>
      </defs>
      <g transform="translate(365.630256 266.598437)scale(0.1 -0.1)">
       <use xlink:href="#DejaVuSans-49"/>
       <use x="63.623047" xlink:href="#DejaVuSans-46"/>
       <use x="95.410156" xlink:href="#DejaVuSans-48"/>
      </g>
     </g>
    </g>
    <g id="text_7">
     <!-- False positive rate -->
     <defs>
      <path d="M 9.8125 72.90625 
L 51.703125 72.90625 
L 51.703125 64.59375 
L 19.671875 64.59375 
L 19.671875 43.109375 
L 48.578125 43.109375 
L 48.578125 34.8125 
L 19.671875 34.8125 
L 19.671875 0 
L 9.8125 0 
z
" id="DejaVuSans-70"/>
      <path d="M 34.28125 27.484375 
Q 23.390625 27.484375 19.1875 25 
Q 14.984375 22.515625 14.984375 16.5 
Q 14.984375 11.71875 18.140625 8.90625 
Q 21.296875 6.109375 26.703125 6.109375 
Q 34.1875 6.109375 38.703125 11.40625 
Q 43.21875 16.703125 43.21875 25.484375 
L 43.21875 27.484375 
z
M 52.203125 31.203125 
L 52.203125 0 
L 43.21875 0 
L 43.21875 8.296875 
Q 40.140625 3.328125 35.546875 0.953125 
Q 30.953125 -1.421875 24.3125 -1.421875 
Q 15.921875 -1.421875 10.953125 3.296875 
Q 6 8.015625 6 15.921875 
Q 6 25.140625 12.171875 29.828125 
Q 18.359375 34.515625 30.609375 34.515625 
L 43.21875 34.515625 
L 43.21875 35.40625 
Q 43.21875 41.609375 39.140625 45 
Q 35.0625 48.390625 27.6875 48.390625 
Q 23 48.390625 18.546875 47.265625 
Q 14.109375 46.140625 10.015625 43.890625 
L 10.015625 52.203125 
Q 14.9375 54.109375 19.578125 55.046875 
Q 24.21875 56 28.609375 56 
Q 40.484375 56 46.34375 49.84375 
Q 52.203125 43.703125 52.203125 31.203125 
z
" id="DejaVuSans-97"/>
      <path d="M 9.421875 75.984375 
L 18.40625 75.984375 
L 18.40625 0 
L 9.421875 0 
z
" id="DejaVuSans-108"/>
      <path d="M 44.28125 53.078125 
L 44.28125 44.578125 
Q 40.484375 46.53125 36.375 47.5 
Q 32.28125 48.484375 27.875 48.484375 
Q 21.1875 48.484375 17.84375 46.4375 
Q 14.5 44.390625 14.5 40.28125 
Q 14.5 37.15625 16.890625 35.375 
Q 19.28125 33.59375 26.515625 31.984375 
L 29.59375 31.296875 
Q 39.15625 29.25 43.1875 25.515625 
Q 47.21875 21.78125 47.21875 15.09375 
Q 47.21875 7.46875 41.1875 3.015625 
Q 35.15625 -1.421875 24.609375 -1.421875 
Q 20.21875 -1.421875 15.453125 -0.5625 
Q 10.6875 0.296875 5.421875 2 
L 5.421875 11.28125 
Q 10.40625 8.6875 15.234375 7.390625 
Q 20.0625 6.109375 24.8125 6.109375 
Q 31.15625 6.109375 34.5625 8.28125 
Q 37.984375 10.453125 37.984375 14.40625 
Q 37.984375 18.0625 35.515625 20.015625 
Q 33.0625 21.96875 24.703125 23.78125 
L 21.578125 24.515625 
Q 13.234375 26.265625 9.515625 29.90625 
Q 5.8125 33.546875 5.8125 39.890625 
Q 5.8125 47.609375 11.28125 51.796875 
Q 16.75 56 26.8125 56 
Q 31.78125 56 36.171875 55.265625 
Q 40.578125 54.546875 44.28125 53.078125 
z
" id="DejaVuSans-115"/>
      <path d="M 56.203125 29.59375 
L 56.203125 25.203125 
L 14.890625 25.203125 
Q 15.484375 15.921875 20.484375 11.0625 
Q 25.484375 6.203125 34.421875 6.203125 
Q 39.59375 6.203125 44.453125 7.46875 
Q 49.3125 8.734375 54.109375 11.28125 
L 54.109375 2.78125 
Q 49.265625 0.734375 44.1875 -0.34375 
Q 39.109375 -1.421875 33.890625 -1.421875 
Q 20.796875 -1.421875 13.15625 6.1875 
Q 5.515625 13.8125 5.515625 26.8125 
Q 5.515625 40.234375 12.765625 48.109375 
Q 20.015625 56 32.328125 56 
Q 43.359375 56 49.78125 48.890625 
Q 56.203125 41.796875 56.203125 29.59375 
z
M 47.21875 32.234375 
Q 47.125 39.59375 43.09375 43.984375 
Q 39.0625 48.390625 32.421875 48.390625 
Q 24.90625 48.390625 20.390625 44.140625 
Q 15.875 39.890625 15.1875 32.171875 
z
" id="DejaVuSans-101"/>
      <path id="DejaVuSans-32"/>
      <path d="M 18.109375 8.203125 
L 18.109375 -20.796875 
L 9.078125 -20.796875 
L 9.078125 54.6875 
L 18.109375 54.6875 
L 18.109375 46.390625 
Q 20.953125 51.265625 25.265625 53.625 
Q 29.59375 56 35.59375 56 
Q 45.5625 56 51.78125 48.09375 
Q 58.015625 40.1875 58.015625 27.296875 
Q 58.015625 14.40625 51.78125 6.484375 
Q 45.5625 -1.421875 35.59375 -1.421875 
Q 29.59375 -1.421875 25.265625 0.953125 
Q 20.953125 3.328125 18.109375 8.203125 
z
M 48.6875 27.296875 
Q 48.6875 37.203125 44.609375 42.84375 
Q 40.53125 48.484375 33.40625 48.484375 
Q 26.265625 48.484375 22.1875 42.84375 
Q 18.109375 37.203125 18.109375 27.296875 
Q 18.109375 17.390625 22.1875 11.75 
Q 26.265625 6.109375 33.40625 6.109375 
Q 40.53125 6.109375 44.609375 11.75 
Q 48.6875 17.390625 48.6875 27.296875 
z
" id="DejaVuSans-112"/>
      <path d="M 30.609375 48.390625 
Q 23.390625 48.390625 19.1875 42.75 
Q 14.984375 37.109375 14.984375 27.296875 
Q 14.984375 17.484375 19.15625 11.84375 
Q 23.34375 6.203125 30.609375 6.203125 
Q 37.796875 6.203125 41.984375 11.859375 
Q 46.1875 17.53125 46.1875 27.296875 
Q 46.1875 37.015625 41.984375 42.703125 
Q 37.796875 48.390625 30.609375 48.390625 
z
M 30.609375 56 
Q 42.328125 56 49.015625 48.375 
Q 55.71875 40.765625 55.71875 27.296875 
Q 55.71875 13.875 49.015625 6.21875 
Q 42.328125 -1.421875 30.609375 -1.421875 
Q 18.84375 -1.421875 12.171875 6.21875 
Q 5.515625 13.875 5.515625 27.296875 
Q 5.515625 40.765625 12.171875 48.375 
Q 18.84375 56 30.609375 56 
z
" id="DejaVuSans-111"/>
      <path d="M 9.421875 54.6875 
L 18.40625 54.6875 
L 18.40625 0 
L 9.421875 0 
z
M 9.421875 75.984375 
L 18.40625 75.984375 
L 18.40625 64.59375 
L 9.421875 64.59375 
z
" id="DejaVuSans-105"/>
      <path d="M 18.3125 70.21875 
L 18.3125 54.6875 
L 36.8125 54.6875 
L 36.8125 47.703125 
L 18.3125 47.703125 
L 18.3125 18.015625 
Q 18.3125 11.328125 20.140625 9.421875 
Q 21.96875 7.515625 27.59375 7.515625 
L 36.8125 7.515625 
L 36.8125 0 
L 27.59375 0 
Q 17.1875 0 13.234375 3.875 
Q 9.28125 7.765625 9.28125 18.015625 
L 9.28125 47.703125 
L 2.6875 47.703125 
L 2.6875 54.6875 
L 9.28125 54.6875 
L 9.28125 70.21875 
z
" id="DejaVuSans-116"/>
      <path d="M 2.984375 54.6875 
L 12.5 54.6875 
L 29.59375 8.796875 
L 46.6875 54.6875 
L 56.203125 54.6875 
L 35.6875 0 
L 23.484375 0 
z
" id="DejaVuSans-118"/>
      <path d="M 41.109375 46.296875 
Q 39.59375 47.171875 37.8125 47.578125 
Q 36.03125 48 33.890625 48 
Q 26.265625 48 22.1875 43.046875 
Q 18.109375 38.09375 18.109375 28.8125 
L 18.109375 0 
L 9.078125 0 
L 9.078125 54.6875 
L 18.109375 54.6875 
L 18.109375 46.1875 
Q 20.953125 51.171875 25.484375 53.578125 
Q 30.03125 56 36.53125 56 
Q 37.453125 56 38.578125 55.875 
Q 39.703125 55.765625 41.0625 55.515625 
z
" id="DejaVuSans-114"/>
     </defs>
     <g transform="translate(175.45 280.276563)scale(0.1 -0.1)">
      <use xlink:href="#DejaVuSans-70"/>
      <use x="57.378906" xlink:href="#DejaVuSans-97"/>
      <use x="118.658203" xlink:href="#DejaVuSans-108"/>
      <use x="146.441406" xlink:href="#DejaVuSans-115"/>
      <use x="198.541016" xlink:href="#DejaVuSans-101"/>
      <use x="260.064453" xlink:href="#DejaVuSans-32"/>
      <use x="291.851562" xlink:href="#DejaVuSans-112"/>
      <use x="355.328125" xlink:href="#DejaVuSans-111"/>
      <use x="416.509766" xlink:href="#DejaVuSans-115"/>
      <use x="468.609375" xlink:href="#DejaVuSans-105"/>
      <use x="496.392578" xlink:href="#DejaVuSans-116"/>
      <use x="535.601562" xlink:href="#DejaVuSans-105"/>
      <use x="563.384766" xlink:href="#DejaVuSans-118"/>
      <use x="622.564453" xlink:href="#DejaVuSans-101"/>
      <use x="684.087891" xlink:href="#DejaVuSans-32"/>
      <use x="715.875" xlink:href="#DejaVuSans-114"/>
      <use x="756.988281" xlink:href="#DejaVuSans-97"/>
      <use x="818.267578" xlink:href="#DejaVuSans-116"/>
      <use x="857.476562" xlink:href="#DejaVuSans-101"/>
     </g>
    </g>
   </g>
   <g id="matplotlib.axis_2">
    <g id="ytick_1">
     <g id="line2d_7">
      <defs>
       <path d="M 0 0 
L -3.5 0 
" id="m26deef3660" style="stroke:#000000;stroke-width:0.8;"/>
      </defs>
      <g>
       <use style="stroke:#000000;stroke-width:0.8;" x="54" xlink:href="#m26deef3660" y="242.116364"/>
      </g>
     </g>
     <g id="text_8">
      <!-- 0.0 -->
      <g transform="translate(31.096875 245.915582)scale(0.1 -0.1)">
       <use xlink:href="#DejaVuSans-48"/>
       <use x="63.623047" xlink:href="#DejaVuSans-46"/>
       <use x="95.410156" xlink:href="#DejaVuSans-48"/>
      </g>
     </g>
    </g>
    <g id="ytick_2">
     <g id="line2d_8">
      <g>
       <use style="stroke:#000000;stroke-width:0.8;" x="54" xlink:href="#m26deef3660" y="202.581818"/>
      </g>
     </g>
     <g id="text_9">
      <!-- 0.2 -->
      <g transform="translate(31.096875 206.381037)scale(0.1 -0.1)">
       <use xlink:href="#DejaVuSans-48"/>
       <use x="63.623047" xlink:href="#DejaVuSans-46"/>
       <use x="95.410156" xlink:href="#DejaVuSans-50"/>
      </g>
     </g>
    </g>
    <g id="ytick_3">
     <g id="line2d_9">
      <g>
       <use style="stroke:#000000;stroke-width:0.8;" x="54" xlink:href="#m26deef3660" y="163.047273"/>
      </g>
     </g>
     <g id="text_10">
      <!-- 0.4 -->
      <g transform="translate(31.096875 166.846491)scale(0.1 -0.1)">
       <use xlink:href="#DejaVuSans-48"/>
       <use x="63.623047" xlink:href="#DejaVuSans-46"/>
       <use x="95.410156" xlink:href="#DejaVuSans-52"/>
      </g>
     </g>
    </g>
    <g id="ytick_4">
     <g id="line2d_10">
      <g>
       <use style="stroke:#000000;stroke-width:0.8;" x="54" xlink:href="#m26deef3660" y="123.512727"/>
      </g>
     </g>
     <g id="text_11">
      <!-- 0.6 -->
      <g transform="translate(31.096875 127.311946)scale(0.1 -0.1)">
       <use xlink:href="#DejaVuSans-48"/>
       <use x="63.623047" xlink:href="#DejaVuSans-46"/>
       <use x="95.410156" xlink:href="#DejaVuSans-54"/>
      </g>
     </g>
    </g>
    <g id="ytick_5">
     <g id="line2d_11">
      <g>
       <use style="stroke:#000000;stroke-width:0.8;" x="54" xlink:href="#m26deef3660" y="83.978182"/>
      </g>
     </g>
     <g id="text_12">
      <!-- 0.8 -->
      <g transform="translate(31.096875 87.777401)scale(0.1 -0.1)">
       <use xlink:href="#DejaVuSans-48"/>
       <use x="63.623047" xlink:href="#DejaVuSans-46"/>
       <use x="95.410156" xlink:href="#DejaVuSans-56"/>
      </g>
     </g>
    </g>
    <g id="ytick_6">
     <g id="line2d_12">
      <g>
       <use style="stroke:#000000;stroke-width:0.8;" x="54" xlink:href="#m26deef3660" y="44.443636"/>
      </g>
     </g>
     <g id="text_13">
      <!-- 1.0 -->
      <g transform="translate(31.096875 48.242855)scale(0.1 -0.1)">
       <use xlink:href="#DejaVuSans-49"/>
       <use x="63.623047" xlink:href="#DejaVuSans-46"/>
       <use x="95.410156" xlink:href="#DejaVuSans-48"/>
      </g>
     </g>
    </g>
    <g id="text_14">
     <!-- True positive rate -->
     <defs>
      <path d="M -0.296875 72.90625 
L 61.375 72.90625 
L 61.375 64.59375 
L 35.5 64.59375 
L 35.5 0 
L 25.59375 0 
L 25.59375 64.59375 
L -0.296875 64.59375 
z
" id="DejaVuSans-84"/>
      <path d="M 8.5 21.578125 
L 8.5 54.6875 
L 17.484375 54.6875 
L 17.484375 21.921875 
Q 17.484375 14.15625 20.5 10.265625 
Q 23.53125 6.390625 29.59375 6.390625 
Q 36.859375 6.390625 41.078125 11.03125 
Q 45.3125 15.671875 45.3125 23.6875 
L 45.3125 54.6875 
L 54.296875 54.6875 
L 54.296875 0 
L 45.3125 0 
L 45.3125 8.40625 
Q 42.046875 3.421875 37.71875 1 
Q 33.40625 -1.421875 27.6875 -1.421875 
Q 18.265625 -1.421875 13.375 4.4375 
Q 8.5 10.296875 8.5 21.578125 
z
M 31.109375 56 
z
" id="DejaVuSans-117"/>
     </defs>
     <g transform="translate(25.017187 187.570625)rotate(-90)scale(0.1 -0.1)">
      <use xlink:href="#DejaVuSans-84"/>
      <use x="60.865234" xlink:href="#DejaVuSans-114"/>
      <use x="101.978516" xlink:href="#DejaVuSans-117"/>
      <use x="165.357422" xlink:href="#DejaVuSans-101"/>
      <use x="226.880859" xlink:href="#DejaVuSans-32"/>
      <use x="258.667969" xlink:href="#DejaVuSans-112"/>
      <use x="322.144531" xlink:href="#DejaVuSans-111"/>
      <use x="383.326172" xlink:href="#DejaVuSans-115"/>
      <use x="435.425781" xlink:href="#DejaVuSans-105"/>
      <use x="463.208984" xlink:href="#DejaVuSans-116"/>
      <use x="502.417969" xlink:href="#DejaVuSans-105"/>
      <use x="530.201172" xlink:href="#DejaVuSans-118"/>
      <use x="589.380859" xlink:href="#DejaVuSans-101"/>
      <use x="650.904297" xlink:href="#DejaVuSans-32"/>
      <use x="682.691406" xlink:href="#DejaVuSans-114"/>
      <use x="723.804688" xlink:href="#DejaVuSans-97"/>
      <use x="785.083984" xlink:href="#DejaVuSans-116"/>
      <use x="824.292969" xlink:href="#DejaVuSans-101"/>
     </g>
    </g>
   </g>
   <g id="line2d_13">
    <path clip-path="url(#pf7c02e4a35)" d="M 69.218182 242.116364 
L 69.314836 242.116364 
L 69.41149 241.645994 
L 69.508144 241.645994 
L 69.701452 241.293217 
L 69.798106 240.352479 
L 70.184722 240.234886 
L 70.184722 239.999701 
L 70.378031 239.999701 
L 70.474685 239.646924 
L 70.571339 239.646924 
L 70.667993 239.176555 
L 70.764647 239.176555 
L 70.861301 238.706186 
L 71.151263 238.118224 
L 71.247917 237.647855 
L 71.344571 237.647855 
L 71.441225 237.41267 
L 71.731187 237.177485 
L 72.117804 236.824708 
L 72.407766 236.707116 
L 72.794382 236.236747 
L 73.277652 236.236747 
L 73.374306 235.766377 
L 73.664269 235.766377 
L 73.760923 235.4136 
L 73.954231 235.4136 
L 74.050885 234.825638 
L 74.340847 234.590454 
L 74.630809 234.590454 
L 74.727463 234.472861 
L 74.727463 234.120084 
L 74.920771 234.120084 
L 74.920771 234.002492 
L 75.11408 234.002492 
L 75.694004 233.649715 
L 75.790658 233.179346 
L 76.177274 232.708976 
L 76.950507 232.121015 
L 77.047161 231.88583 
L 77.337123 231.88583 
L 77.337123 231.768238 
L 77.433777 231.768238 
L 77.627085 231.768238 
L 77.723739 231.650645 
L 77.723739 231.41546 
L 78.013701 231.41546 
L 78.013701 231.297868 
L 78.207009 231.180276 
L 78.207009 230.709906 
L 78.400318 230.709906 
L 78.883588 230.474722 
L 79.17355 229.533983 
L 79.463512 229.533983 
L 79.463512 229.298798 
L 79.560166 229.298798 
L 80.430053 228.946021 
L 80.623361 228.710837 
L 81.009977 228.475652 
L 81.396593 228.005283 
L 81.589902 228.005283 
L 81.589902 227.770098 
L 81.78321 227.652506 
L 81.78321 227.299729 
L 81.879864 227.299729 
L 81.976518 226.946951 
L 82.073172 226.35899 
L 82.26648 226.35899 
L 82.363134 226.006213 
L 82.556442 225.771028 
L 82.846404 225.771028 
L 84.006253 222.713627 
L 84.489523 222.713627 
L 84.586177 222.596035 
L 84.586177 222.125665 
L 85.166102 221.184927 
L 85.552718 220.949742 
L 85.84268 220.949742 
L 85.84268 220.83215 
L 86.132642 220.83215 
L 86.132642 220.714557 
L 86.615913 220.479373 
L 86.905875 219.656226 
L 87.002529 218.362711 
L 87.292491 218.009933 
L 87.389145 217.539564 
L 87.582453 217.539564 
L 87.582453 217.421972 
L 88.259032 216.128456 
L 88.45234 216.128456 
L 88.548994 215.658087 
L 88.645648 215.658087 
L 88.645648 215.540494 
L 88.742302 215.540494 
L 89.612189 214.952533 
L 89.612189 214.83494 
L 90.095459 214.717348 
L 90.868691 213.30624 
L 91.255308 213.30624 
L 91.54527 213.071055 
L 91.835232 213.071055 
L 92.221848 212.953463 
L 92.221848 212.718278 
L 92.415156 212.718278 
L 92.608464 212.600686 
L 92.608464 212.247909 
L 92.705119 212.247909 
L 92.801773 212.130316 
L 92.995081 212.130316 
L 92.995081 212.012724 
L 93.188389 211.895132 
L 93.188389 211.659947 
L 93.478351 211.542355 
L 93.478351 211.189578 
L 93.671659 211.189578 
L 93.768313 211.071985 
L 93.961621 211.071985 
L 94.348238 210.954393 
L 94.444892 210.601616 
L 94.831508 210.248839 
L 95.12147 210.248839 
L 95.218124 209.660877 
L 95.314778 209.660877 
L 95.411432 209.3081 
L 95.991357 208.484954 
L 96.184665 208.484954 
L 96.184665 208.014584 
L 96.377973 208.014584 
L 96.861243 207.7794 
L 96.957897 207.30903 
L 97.054551 207.30903 
L 97.634476 206.956253 
L 98.021092 206.956253 
L 98.117746 206.133107 
L 98.311054 206.133107 
L 98.311054 205.897922 
L 98.504362 205.897922 
L 100.534097 205.074776 
L 100.534097 204.721999 
L 100.920714 204.604406 
L 100.920714 204.134037 
L 101.114022 204.134037 
L 101.983908 203.193298 
L 102.853795 203.075706 
L 104.110298 201.429413 
L 106.140033 199.665528 
L 106.236687 198.959974 
L 106.526649 198.842382 
L 106.526649 198.607197 
L 106.816611 198.607197 
L 107.299882 198.372012 
L 107.396536 197.196089 
L 107.49319 196.960904 
L 107.686498 196.25535 
L 107.97646 196.25535 
L 108.556384 196.137758 
L 108.653038 195.784981 
L 108.749693 195.784981 
L 108.846347 195.667388 
L 108.846347 195.432204 
L 109.522925 194.72665 
L 110.779428 194.138688 
L 110.779428 194.021096 
L 110.876082 194.021096 
L 111.166044 193.668319 
L 111.456006 192.72758 
L 111.842622 192.72758 
L 111.939277 192.374803 
L 112.325893 192.139618 
L 112.615855 191.669249 
L 112.905817 191.669249 
L 113.969012 190.963695 
L 115.805439 190.610918 
L 115.998747 190.375733 
L 116.385363 189.905364 
L 116.675326 189.082217 
L 116.965288 189.082217 
L 117.061942 188.494256 
L 117.158596 188.494256 
L 117.73852 188.376663 
L 118.028482 188.023886 
L 118.608407 187.435925 
L 118.995023 186.612778 
L 119.188331 186.612778 
L 119.478293 186.377593 
L 119.574947 186.142409 
L 119.671601 186.142409 
L 120.251526 185.554447 
L 120.251526 185.084078 
L 120.444834 184.848893 
L 121.218066 184.613708 
L 121.411374 184.613708 
L 121.508029 184.260931 
L 121.604683 184.260931 
L 121.604683 184.025747 
L 122.087953 183.437785 
L 122.571223 183.437785 
L 122.571223 183.320193 
L 122.764531 182.967415 
L 122.861185 182.497046 
L 123.344456 182.261861 
L 123.344456 182.144269 
L 123.44111 182.144269 
L 123.634418 181.791492 
L 123.731072 181.791492 
L 123.731072 181.556307 
L 124.310996 181.085938 
L 124.310996 180.850753 
L 124.890921 179.910015 
L 125.567499 179.67483 
L 126.340732 178.616499 
L 126.437386 177.910945 
L 126.824002 177.558168 
L 127.210618 177.440575 
L 127.307272 176.617429 
L 127.403926 176.14706 
L 127.790542 175.911875 
L 128.273813 175.088729 
L 128.467121 175.088729 
L 128.757083 174.853544 
L 129.530316 174.618359 
L 129.62697 173.912805 
L 129.723624 173.912805 
L 130.206894 173.67762 
L 130.206894 173.560028 
L 130.496856 173.560028 
L 130.496856 173.442436 
L 130.59351 173.442436 
L 130.690164 173.324843 
L 130.690164 172.972066 
L 131.656705 171.796143 
L 131.850013 171.325774 
L 132.429937 170.855404 
L 132.7199 170.855404 
L 133.396478 170.14985 
L 133.396478 169.797073 
L 133.493132 169.797073 
L 134.942943 168.385965 
L 134.942943 168.15078 
L 135.232905 167.915596 
L 135.716175 167.798003 
L 136.199446 167.798003 
L 136.199446 167.680411 
L 136.682716 166.974857 
L 136.682716 166.504488 
L 136.876024 166.504488 
L 137.165986 165.916526 
L 137.455948 165.916526 
L 137.745911 165.093379 
L 137.939219 164.858195 
L 138.422489 164.270233 
L 138.809105 164.270233 
L 138.905759 164.035048 
L 139.292376 164.035048 
L 139.582338 163.799864 
L 139.582338 163.564679 
L 139.775646 163.564679 
L 140.162262 162.153571 
L 141.418765 161.683202 
L 141.515419 161.448017 
L 141.708727 161.448017 
L 141.805381 161.212832 
L 141.902035 161.212832 
L 142.771922 160.742463 
L 142.868576 160.507278 
L 144.898311 159.213762 
L 145.961506 158.860985 
L 145.961506 158.625801 
L 146.54143 158.273024 
L 146.831392 157.920247 
L 147.797933 157.214693 
L 148.087895 156.509138 
L 148.281203 156.509138 
L 148.281203 156.391546 
L 148.377857 156.391546 
L 148.474511 156.273954 
L 148.957782 156.273954 
L 148.957782 155.803584 
L 149.15109 155.803584 
L 149.731014 155.09803 
L 152.437328 152.275814 
L 152.630636 152.275814 
L 152.920598 151.923037 
L 153.113906 151.923037 
L 153.693831 151.452668 
L 154.080447 150.511929 
L 154.467063 150.511929 
L 154.563717 150.276744 
L 154.950333 150.04156 
L 155.046987 149.688783 
L 155.240296 149.57119 
L 155.240296 149.218413 
L 155.433604 149.100821 
L 157.076723 146.748974 
L 157.076723 146.513789 
L 158.043263 145.337866 
L 158.236571 145.337866 
L 158.236571 145.220274 
L 158.91315 145.220274 
L 159.976345 144.04435 
L 161.426155 143.456389 
L 161.619464 143.103611 
L 161.619464 142.868427 
L 162.00608 142.51565 
L 162.00608 142.398057 
L 163.165929 140.869357 
L 163.359237 140.634172 
L 163.649199 140.281395 
L 164.229123 140.281395 
L 164.325777 139.575841 
L 165.002356 139.340657 
L 165.195664 139.340657 
L 165.388972 138.752695 
L 165.58228 138.635102 
L 165.872242 137.694364 
L 166.355513 137.694364 
L 166.355513 137.576771 
L 166.548821 137.576771 
L 167.322053 136.98881 
L 167.805323 136.98881 
L 167.998632 136.400848 
L 168.868518 136.048071 
L 169.061826 135.812886 
L 169.351788 135.812886 
L 170.221675 134.636963 
L 170.318329 134.636963 
L 170.414983 134.049001 
L 170.511637 134.049001 
L 170.994907 133.696224 
L 172.058102 133.343447 
L 172.058102 132.99067 
L 172.154756 132.99067 
L 172.541372 132.99067 
L 172.638027 132.755485 
L 172.734681 132.637893 
L 172.734681 132.285116 
L 172.831335 132.285116 
L 173.121297 131.932339 
L 173.217951 131.109193 
L 173.701221 131.109193 
L 173.701221 130.9916 
L 173.894529 130.9916 
L 173.894529 130.756416 
L 173.991183 130.756416 
L 174.087837 130.638823 
L 174.571108 130.638823 
L 174.764416 130.521231 
L 179.307157 127.111053 
L 179.500465 127.111053 
L 179.500465 126.993461 
L 179.693773 126.993461 
L 180.177043 126.287907 
L 180.467005 126.287907 
L 180.756968 126.052722 
L 180.950276 125.817537 
L 182.206778 124.876798 
L 182.400087 124.876798 
L 182.690049 124.524021 
L 182.690049 124.288837 
L 182.883357 124.288837 
L 183.366627 123.583283 
L 183.366627 123.112913 
L 183.463281 123.112913 
L 183.656589 122.877729 
L 183.946552 122.289767 
L 184.236514 122.289767 
L 184.333168 121.819398 
L 184.429822 121.819398 
L 184.526476 121.466621 
L 184.719784 121.349028 
L 184.719784 121.113843 
L 184.816438 121.113843 
L 185.589671 120.643474 
L 186.266249 120.643474 
L 187.329444 119.232366 
L 187.329444 118.997181 
L 187.522752 118.997181 
L 187.522752 118.879589 
L 188.19933 118.644404 
L 188.19933 118.526812 
L 188.875909 117.821258 
L 189.359179 117.821258 
L 189.649141 117.586073 
L 192.548763 114.528672 
L 192.742071 114.528672 
L 192.742071 114.41108 
L 192.935379 114.41108 
L 192.935379 114.175895 
L 193.032033 114.175895 
L 193.611958 114.058303 
L 193.998574 114.058303 
L 194.191882 113.823118 
L 194.481844 112.999972 
L 194.675152 112.999972 
L 195.351731 112.294418 
L 195.448385 112.294418 
L 195.448385 111.824048 
L 195.738347 111.824048 
L 195.835001 111.471271 
L 196.028309 111.236087 
L 196.511579 111.236087 
L 196.511579 111.118494 
L 196.704888 111.118494 
L 196.898196 110.88331 
L 196.898196 110.648125 
L 197.284812 110.648125 
L 197.284812 110.41294 
L 197.574774 109.942571 
L 197.768082 109.824979 
L 198.058044 109.824979 
L 198.058044 109.707386 
L 198.444661 109.707386 
L 198.444661 109.472202 
L 199.604509 109.472202 
L 199.701163 109.237017 
L 199.797817 109.001832 
L 199.991126 109.001832 
L 199.991126 108.766648 
L 200.377742 108.649055 
L 200.474396 108.649055 
L 200.764358 108.531463 
L 201.344282 108.531463 
L 201.634245 108.296278 
L 201.827553 108.296278 
L 201.924207 108.178686 
L 202.117515 108.178686 
L 202.407477 107.825909 
L 202.890747 107.825909 
L 202.890747 107.473132 
L 203.18071 107.473132 
L 203.18071 107.120355 
L 203.760634 106.88517 
L 204.533866 106.414801 
L 205.307099 106.414801 
L 205.790369 105.474062 
L 205.887023 105.474062 
L 205.983677 105.121285 
L 206.370294 104.8861 
L 206.853564 104.8861 
L 206.950218 104.533323 
L 207.046872 104.533323 
L 207.143526 103.827769 
L 207.433488 103.827769 
L 207.433488 103.592585 
L 208.110067 103.592585 
L 208.786645 103.239807 
L 208.979953 103.239807 
L 208.979953 103.004623 
L 209.366569 103.004623 
L 209.84984 102.299069 
L 209.946494 102.063884 
L 210.429764 101.711107 
L 210.81638 101.711107 
L 210.81638 101.35833 
L 211.009689 101.35833 
L 211.106343 101.123145 
L 211.492959 101.123145 
L 211.492959 100.887961 
L 212.072883 100.535184 
L 212.362845 100.535184 
L 212.459499 100.299999 
L 212.556153 100.299999 
L 212.652808 100.182407 
L 212.846116 99.712037 
L 212.94277 99.712037 
L 213.136078 99.594445 
L 213.522694 99.594445 
L 213.716002 99.35926 
L 213.716002 99.006483 
L 214.489235 99.006483 
L 215.455775 98.771298 
L 215.649083 98.536114 
L 215.939046 98.536114 
L 216.132354 98.418521 
L 216.905586 98.418521 
L 216.905586 98.300929 
L 217.195548 98.300929 
L 217.485511 98.065744 
L 217.872127 98.065744 
L 217.872127 97.948152 
L 217.968781 97.948152 
L 218.258743 97.83056 
L 218.452051 97.242598 
L 218.838667 96.537044 
L 219.12863 96.537044 
L 219.225284 96.301859 
L 219.321938 96.301859 
L 219.321938 96.066675 
L 219.418592 96.066675 
L 220.57844 96.066675 
L 220.771749 95.83149 
L 221.641635 95.83149 
L 222.511522 95.478713 
L 222.898138 94.890751 
L 223.091446 94.890751 
L 223.091446 94.773159 
L 224.057987 94.773159 
L 224.154641 94.537974 
L 224.347949 94.537974 
L 224.347949 94.420382 
L 224.444603 94.420382 
L 224.541257 94.185197 
L 225.411144 94.185197 
L 225.894414 94.067605 
L 225.894414 93.950012 
L 225.991068 93.950012 
L 226.087722 93.83242 
L 226.28103 93.83242 
L 226.7643 93.362051 
L 227.634187 93.362051 
L 227.730841 93.009274 
L 228.020803 93.009274 
L 228.214111 92.891681 
L 228.600728 92.891681 
L 228.600728 92.421312 
L 228.987344 92.421312 
L 229.277306 92.186127 
L 229.760576 91.950943 
L 229.760576 91.83335 
L 229.85723 91.83335 
L 230.050538 91.598166 
L 230.340501 91.598166 
L 230.340501 91.480573 
L 230.823771 91.245389 
L 231.210387 91.245389 
L 231.210387 91.127796 
L 231.500349 91.127796 
L 231.597003 91.010204 
L 231.790311 91.010204 
L 231.790311 90.892612 
L 232.080274 90.775019 
L 232.080274 90.539835 
L 232.853506 89.83428 
L 233.916701 88.540765 
L 234.110009 88.540765 
L 234.110009 88.30558 
L 234.399971 88.30558 
L 234.496625 88.187988 
L 234.689933 88.187988 
L 234.689933 88.070395 
L 234.786587 88.070395 
L 235.269858 88.070395 
L 235.366512 87.952803 
L 235.849782 87.952803 
L 237.009631 87.364841 
L 237.492901 87.364841 
L 237.492901 87.247249 
L 237.589555 87.247249 
L 237.782863 87.012064 
L 238.362788 87.012064 
L 238.846058 86.894472 
L 239.61929 86.071326 
L 239.61929 85.836141 
L 239.715944 85.836141 
L 239.909253 85.718548 
L 240.585831 85.483364 
L 240.585831 85.248179 
L 241.069101 85.248179 
L 241.165755 85.012994 
L 241.359063 85.012994 
L 241.552372 84.30744 
L 241.74568 84.30744 
L 242.71222 84.189848 
L 243.485453 84.189848 
L 243.968723 83.601886 
L 244.548647 83.601886 
L 245.225226 82.896332 
L 245.32188 82.896332 
L 245.80515 82.425963 
L 246.578383 82.425963 
L 246.578383 82.190778 
L 246.868345 82.190778 
L 246.868345 81.955594 
L 246.964999 81.955594 
L 248.511464 81.132447 
L 249.574659 80.897262 
L 252.667589 79.956524 
L 252.764243 79.603747 
L 252.957551 79.603747 
L 253.150859 79.368562 
L 254.697324 78.663008 
L 254.890632 78.663008 
L 255.08394 78.427823 
L 255.760518 78.427823 
L 256.533751 78.310231 
L 257.886908 77.957454 
L 258.756794 77.369492 
L 258.853448 77.369492 
L 260.206605 76.663938 
L 260.689876 76.663938 
L 260.883184 76.546346 
L 261.463108 75.958384 
L 261.656416 75.958384 
L 261.656416 75.840792 
L 261.946378 75.840792 
L 262.043032 75.605607 
L 262.332995 75.605607 
L 263.976114 75.488015 
L 264.459384 75.25283 
L 269.292087 73.841722 
L 269.678703 73.371353 
L 269.872011 73.371353 
L 270.161973 72.665798 
L 270.838552 72.665798 
L 270.838552 72.548206 
L 271.611784 72.195429 
L 272.288363 72.195429 
L 272.288363 71.72506 
L 272.385017 71.72506 
L 277.121066 69.138028 
L 277.507682 68.667659 
L 278.377569 68.432474 
L 278.570877 68.197289 
L 279.150801 68.079697 
L 281.760461 67.021366 
L 281.857115 66.668589 
L 282.050423 66.668589 
L 282.823655 66.433404 
L 282.823655 66.315812 
L 283.596888 65.845443 
L 284.950045 65.610258 
L 285.240007 65.610258 
L 285.336661 65.492666 
L 285.529969 65.492666 
L 285.529969 65.375073 
L 285.626623 65.375073 
L 286.109893 65.257481 
L 286.109893 65.139889 
L 286.593164 65.139889 
L 286.593164 65.022296 
L 287.173088 65.022296 
L 287.173088 64.904704 
L 287.269742 64.904704 
L 287.656358 64.19915 
L 288.526245 64.19915 
L 288.912861 64.081558 
L 289.009515 63.846373 
L 289.782748 63.72878 
L 293.262294 62.788042 
L 293.358948 62.552857 
L 294.518797 62.317672 
L 299.544808 61.729711 
L 299.738116 61.612118 
L 299.83477 61.259341 
L 300.704657 60.906564 
L 300.897965 60.906564 
L 303.121008 60.436195 
L 303.797587 60.083418 
L 303.797587 59.730641 
L 303.894241 59.730641 
L 304.667473 59.730641 
L 304.667473 59.613049 
L 305.054089 59.613049 
L 305.53736 59.377864 
L 305.730668 59.377864 
L 305.923976 59.142679 
L 306.310592 59.142679 
L 306.5039 59.025087 
L 307.083825 59.025087 
L 309.500176 57.966756 
L 311.529911 57.613979 
L 312.593106 57.026017 
L 312.593106 56.908425 
L 312.68976 56.908425 
L 313.17303 56.67324 
L 313.656301 56.438055 
L 314.622841 56.202871 
L 315.009458 56.202871 
L 315.29942 56.085278 
L 315.29942 55.850094 
L 317.619117 54.909355 
L 318.295696 54.909355 
L 319.068928 54.67417 
L 320.132123 54.67417 
L 320.132123 54.556578 
L 320.325431 54.556578 
L 320.518739 54.438985 
L 320.518739 54.203801 
L 320.808701 54.203801 
L 320.808701 54.086208 
L 323.321707 53.733431 
L 323.515015 53.498247 
L 324.481555 53.498247 
L 324.57821 53.380654 
L 328.057756 53.380654 
L 328.057756 53.14547 
L 328.444372 53.14547 
L 328.830988 52.910285 
L 329.217604 52.910285 
L 329.604221 52.792693 
L 329.990837 52.792693 
L 331.923918 52.322323 
L 333.180421 51.851954 
L 333.470383 51.851954 
L 333.663691 51.616769 
L 333.856999 51.616769 
L 333.856999 51.381585 
L 334.34027 51.381585 
L 334.436924 51.028808 
L 334.630232 51.028808 
L 334.630232 50.911215 
L 334.82354 50.911215 
L 335.113502 50.676031 
L 335.210156 50.676031 
L 336.659967 50.205661 
L 336.949929 49.970476 
L 339.656243 49.970476 
L 339.752897 49.735292 
L 340.139513 49.735292 
L 340.52613 49.617699 
L 340.912746 49.617699 
L 340.912746 49.500107 
L 342.362557 49.500107 
L 342.362557 49.382515 
L 343.329097 49.382515 
L 345.165524 49.264922 
L 345.165524 49.029738 
L 346.035411 49.029738 
L 346.132065 48.794553 
L 346.711989 48.794553 
L 346.905297 48.559368 
L 347.871838 48.559368 
L 347.871838 48.441776 
L 348.065146 48.441776 
L 348.065146 48.324184 
L 348.355108 47.971407 
L 348.838379 47.971407 
L 348.838379 47.853814 
L 349.224995 47.853814 
L 349.321649 47.61863 
L 349.804919 47.501037 
L 350.094881 47.501037 
L 351.448038 47.14826 
L 351.931309 47.14826 
L 352.124617 46.795483 
L 352.801195 46.795483 
L 352.801195 46.677891 
L 353.284465 46.677891 
L 353.284465 46.560299 
L 355.024239 46.560299 
L 355.024239 46.442706 
L 355.314201 46.442706 
L 357.343936 45.737152 
L 358.600439 45.737152 
L 358.600439 45.61956 
L 359.180363 45.61956 
L 359.180363 45.501967 
L 359.373671 45.384375 
L 360.340212 45.384375 
L 360.340212 45.14919 
L 362.273293 45.14919 
L 362.466601 45.031598 
L 363.433142 45.031598 
L 364.689645 44.796413 
L 365.559531 44.796413 
L 365.752839 44.678821 
L 367.879229 44.678821 
L 367.975883 44.443636 
L 373.581818 44.443636 
L 373.581818 44.443636 
" style="fill:none;stroke:#0000ff;stroke-linecap:square;stroke-width:2;"/>
   </g>
   <g id="line2d_14">
    <path clip-path="url(#pf7c02e4a35)" d="M 69.218182 242.116364 
L 69.314836 241.293217 
L 69.41149 241.293217 
L 69.604798 241.058033 
L 69.701452 240.470071 
L 69.798106 240.470071 
L 69.89476 240.352479 
L 70.088068 240.352479 
L 70.184722 240.117294 
L 70.281376 240.117294 
L 70.378031 239.294147 
L 70.571339 239.294147 
L 70.667993 238.471001 
L 70.764647 238.471001 
L 70.861301 238.235816 
L 71.054609 238.235816 
L 71.054609 237.765447 
L 71.441225 237.765447 
L 71.634533 237.647855 
L 71.634533 237.295078 
L 71.827841 237.295078 
L 71.827841 237.059893 
L 72.02115 237.059893 
L 72.02115 236.354339 
L 72.214458 236.354339 
L 72.311112 235.883969 
L 72.407766 235.883969 
L 72.407766 235.531192 
L 72.50442 235.531192 
L 72.601074 234.943231 
L 72.794382 234.943231 
L 72.891036 234.708046 
L 72.98769 234.708046 
L 73.084344 234.120084 
L 73.277652 234.120084 
L 73.374306 233.767307 
L 73.760923 233.767307 
L 74.340847 233.179346 
L 74.437501 233.179346 
L 74.630809 233.061753 
L 74.727463 232.356199 
L 74.920771 232.356199 
L 75.017425 231.768238 
L 75.210734 231.41546 
L 75.307388 231.41546 
L 75.404042 231.180276 
L 75.500696 231.062683 
L 75.59735 230.592314 
L 75.694004 230.592314 
L 75.694004 230.474722 
L 75.790658 230.474722 
L 75.983966 230.239537 
L 76.660544 230.121945 
L 76.757199 230.121945 
L 76.757199 229.88676 
L 77.143815 228.946021 
L 77.240469 228.946021 
L 77.627085 228.475652 
L 77.627085 228.240467 
L 77.820393 228.240467 
L 77.917047 227.182136 
L 78.110355 227.182136 
L 78.207009 226.476582 
L 78.303664 226.476582 
L 78.303664 226.35899 
L 78.496972 226.123805 
L 78.69028 226.123805 
L 78.883588 225.88862 
L 78.980242 225.535843 
L 79.270204 225.300659 
L 79.463512 225.183066 
L 79.560166 224.830289 
L 79.65682 224.830289 
L 79.65682 224.595105 
L 79.850128 224.477512 
L 79.850128 224.242328 
L 80.043437 224.242328 
L 80.043437 224.124735 
L 80.236745 224.124735 
L 80.236745 224.007143 
L 80.430053 224.007143 
L 80.526707 223.771958 
L 80.623361 223.771958 
L 80.720015 223.066404 
L 81.009977 222.596035 
L 81.299939 222.596035 
L 81.299939 222.478442 
L 81.589902 222.243258 
L 81.686556 222.008073 
L 82.169826 222.008073 
L 82.74975 221.302519 
L 82.943058 221.302519 
L 83.039712 221.067334 
L 83.136367 221.067334 
L 83.812945 220.244188 
L 84.102907 220.244188 
L 84.392869 220.009003 
L 84.779486 219.773819 
L 85.262756 219.773819 
L 85.262756 219.538634 
L 85.456064 219.538634 
L 85.552718 219.421042 
L 85.746026 219.421042 
L 85.84268 219.068265 
L 86.229296 219.068265 
L 86.422605 218.83308 
L 86.615913 218.83308 
L 86.615913 218.715488 
L 86.712567 218.715488 
L 87.002529 218.597895 
L 87.002529 218.245118 
L 87.099183 218.245118 
L 87.679107 217.304379 
L 88.162378 217.304379 
L 88.259032 217.069195 
L 88.548994 217.069195 
L 88.645648 216.246048 
L 89.128918 215.893271 
L 89.225572 215.070125 
L 89.515535 214.599756 
L 89.612189 214.011794 
L 89.708843 214.011794 
L 90.095459 213.659017 
L 90.192113 212.953463 
L 90.482075 212.953463 
L 90.578729 212.718278 
L 90.772037 212.718278 
L 90.965345 212.247909 
L 91.351962 211.777539 
L 91.54527 211.424762 
L 92.125194 210.601616 
L 92.221848 210.601616 
L 92.318502 209.77847 
L 93.091735 209.77847 
L 93.091735 209.543285 
L 93.188389 209.543285 
L 93.575005 209.425692 
L 93.575005 209.190508 
L 94.444892 207.544215 
L 94.444892 207.30903 
L 94.6382 206.721069 
L 95.60474 205.545145 
L 95.894703 204.486814 
L 96.088011 204.369222 
L 96.377973 204.369222 
L 96.377973 204.251629 
L 96.571281 204.251629 
L 96.667935 203.546075 
L 97.151205 203.193298 
L 97.344513 202.958114 
L 97.537822 202.722929 
L 97.634476 202.25256 
L 97.827784 202.25256 
L 98.021092 202.017375 
L 99.084286 200.606267 
L 99.180941 199.900713 
L 99.277595 199.900713 
L 100.050827 197.901643 
L 100.437443 197.313681 
L 100.534097 196.608127 
L 100.727406 196.608127 
L 100.82406 196.25535 
L 101.114022 195.667388 
L 101.403984 195.432204 
L 101.597292 194.961834 
L 101.887254 194.609057 
L 102.177216 194.609057 
L 102.177216 194.491465 
L 102.660487 194.491465 
L 102.853795 194.25628 
L 102.950449 194.138688 
L 103.143757 194.138688 
L 103.820335 193.433134 
L 104.786876 193.433134 
L 104.88353 193.197949 
L 105.173492 193.080357 
L 105.270146 192.609988 
L 105.560109 192.609988 
L 106.623303 192.139618 
L 106.623303 192.022026 
L 107.49319 191.786841 
L 107.783152 191.198879 
L 107.879806 191.198879 
L 107.97646 190.610918 
L 108.169768 190.610918 
L 108.45973 190.493325 
L 108.653038 190.493325 
L 108.653038 190.258141 
L 109.522925 190.140548 
L 109.812887 190.140548 
L 109.812887 190.022956 
L 110.199503 190.022956 
L 110.296158 189.552587 
L 110.876082 188.964625 
L 111.06939 188.964625 
L 111.06939 188.847033 
L 111.262698 188.847033 
L 111.262698 188.72944 
L 111.939277 188.72944 
L 111.939277 188.611848 
L 112.229239 188.494256 
L 112.905817 188.494256 
L 113.002471 188.259071 
L 113.099125 187.553517 
L 113.485742 187.553517 
L 113.582396 187.318332 
L 114.355628 186.73037 
L 114.935552 185.672039 
L 115.032206 184.966485 
L 115.128861 184.848893 
L 115.418823 184.848893 
L 115.515477 183.437785 
L 115.708785 183.320193 
L 115.902093 183.085008 
L 116.385363 182.379454 
L 116.385363 182.261861 
L 117.061942 181.909084 
L 117.158596 181.438715 
L 117.73852 180.968346 
L 117.73852 180.497976 
L 118.318445 180.145199 
L 118.318445 179.792422 
L 118.415099 179.792422 
L 118.608407 179.67483 
L 118.995023 179.67483 
L 118.995023 179.557238 
L 119.284985 179.557238 
L 119.284985 179.439645 
L 119.671601 179.086868 
L 119.768255 178.498906 
L 120.058218 178.146129 
L 120.058218 177.322983 
L 120.154872 177.322983 
L 120.444834 176.970206 
L 120.638142 176.852614 
L 120.734796 176.14706 
L 120.83145 175.441506 
L 120.928104 175.441506 
L 121.411374 175.206321 
L 121.508029 174.735952 
L 121.701337 174.500767 
L 121.894645 173.67762 
L 122.087953 173.67762 
L 122.087953 173.560028 
L 122.281261 173.560028 
L 122.377915 172.972066 
L 122.861185 172.031328 
L 123.344456 171.208181 
L 123.537764 171.208181 
L 123.537764 170.972997 
L 124.117688 170.972997 
L 125.084229 170.385035 
L 125.374191 169.914666 
L 125.664153 169.914666 
L 125.760807 169.561888 
L 125.954115 169.561888 
L 125.954115 168.62115 
L 126.244077 168.62115 
L 126.244077 168.15078 
L 128.467121 167.327634 
L 128.467121 166.504488 
L 128.563775 166.504488 
L 128.757083 166.269303 
L 128.757083 166.034118 
L 128.950391 166.034118 
L 128.950391 165.798934 
L 129.240353 164.858195 
L 129.530316 164.62301 
L 129.530316 164.270233 
L 130.013586 164.035048 
L 130.303548 163.447087 
L 130.496856 163.447087 
L 130.59351 163.211902 
L 130.883472 163.211902 
L 130.980126 162.859125 
L 131.076781 162.859125 
L 131.076781 162.62394 
L 131.173435 162.62394 
L 131.463397 162.388756 
L 132.236629 162.388756 
L 132.333283 162.035979 
L 133.009862 161.565609 
L 133.20317 161.565609 
L 134.16971 160.742463 
L 134.16971 160.507278 
L 134.556327 160.154501 
L 134.652981 160.036909 
L 134.846289 160.036909 
L 134.846289 159.801724 
L 135.039597 159.566539 
L 136.2961 158.390616 
L 136.2961 157.214693 
L 136.489408 157.214693 
L 136.876024 156.744323 
L 137.359294 156.744323 
L 137.649257 156.273954 
L 137.842565 156.273954 
L 138.132527 156.156361 
L 138.132527 155.685992 
L 138.615797 155.685992 
L 138.712451 155.5684 
L 139.195722 155.5684 
L 139.38903 155.333215 
L 139.485684 155.215623 
L 139.678992 155.215623 
L 139.775646 154.980438 
L 139.968954 154.980438 
L 139.968954 154.627661 
L 140.065608 154.627661 
L 140.162262 154.510069 
L 141.032149 153.922107 
L 141.128803 153.56933 
L 141.322111 153.56933 
L 141.805381 153.334145 
L 141.998689 152.863776 
L 142.385306 152.863776 
L 142.48196 152.510999 
L 142.771922 152.510999 
L 143.061884 152.275814 
L 143.158538 152.275814 
L 143.255192 152.040629 
L 143.4485 152.040629 
L 144.511695 151.452668 
L 144.994965 150.864706 
L 145.188273 150.159152 
L 145.381581 150.159152 
L 145.381581 150.04156 
L 145.478236 150.04156 
L 145.961506 148.748044 
L 146.05816 148.748044 
L 146.348122 148.630452 
L 147.218009 148.512859 
L 147.314663 148.04249 
L 147.411317 148.04249 
L 147.411317 147.807305 
L 147.797933 147.336936 
L 147.991241 147.336936 
L 147.991241 147.219343 
L 148.184549 146.748974 
L 148.957782 146.278605 
L 148.957782 146.04342 
L 149.054436 146.04342 
L 149.15109 145.925828 
L 149.63436 145.925828 
L 150.020976 145.455458 
L 150.310939 145.337866 
L 150.310939 144.985089 
L 150.600901 144.04435 
L 150.794209 143.809166 
L 150.794209 143.573981 
L 150.890863 143.573981 
L 151.277479 143.221204 
L 151.277479 143.103611 
L 151.567441 143.103611 
L 151.567441 142.986019 
L 151.760749 142.986019 
L 151.760749 142.633242 
L 151.954058 142.633242 
L 151.954058 142.51565 
L 152.533982 141.692503 
L 152.920598 141.692503 
L 152.920598 141.574911 
L 153.113906 141.574911 
L 153.21056 141.457319 
L 153.790485 141.457319 
L 153.790485 141.222134 
L 153.983793 140.986949 
L 154.273755 140.986949 
L 154.370409 140.751765 
L 154.563717 140.751765 
L 155.046987 140.281395 
L 155.143642 140.281395 
L 155.143642 140.163803 
L 155.82022 139.928618 
L 156.110182 139.693434 
L 156.496798 138.399918 
L 156.690107 138.282325 
L 156.980069 138.282325 
L 156.980069 137.929548 
L 157.076723 137.929548 
L 157.366685 137.576771 
L 157.656647 137.223994 
L 157.849955 137.223994 
L 157.849955 136.98881 
L 158.139917 136.98881 
L 158.333226 136.636033 
L 158.333226 136.51844 
L 158.623188 136.51844 
L 159.493074 136.283256 
L 159.493074 135.930479 
L 160.459615 135.460109 
L 160.459615 135.224925 
L 160.556269 135.224925 
L 160.749577 134.872148 
L 162.296042 133.931409 
L 162.779312 133.931409 
L 162.875966 133.578632 
L 162.97262 133.578632 
L 163.069275 133.461039 
L 163.069275 133.108262 
L 163.359237 133.108262 
L 163.359237 132.99067 
L 163.649199 132.99067 
L 163.649199 132.873078 
L 163.842507 132.873078 
L 164.035815 132.402708 
L 164.422431 132.049931 
L 164.615739 132.049931 
L 164.615739 131.932339 
L 164.809048 131.932339 
L 164.809048 131.697154 
L 165.002356 131.226785 
L 165.195664 131.226785 
L 165.195664 130.9916 
L 165.775588 130.9916 
L 165.872242 130.874008 
L 166.06555 130.874008 
L 166.06555 130.756416 
L 166.838783 130.521231 
L 166.838783 130.286046 
L 167.032091 130.286046 
L 167.032091 130.168454 
L 167.225399 130.168454 
L 167.322053 129.933269 
L 167.322053 129.4629 
L 167.612015 129.4629 
L 167.612015 129.345307 
L 168.288594 129.345307 
L 169.931713 128.757346 
L 169.931713 128.639753 
L 170.125021 128.639753 
L 170.125021 128.522161 
L 170.414983 128.404569 
L 170.608291 128.404569 
L 170.801599 128.169384 
L 170.994907 128.169384 
L 171.091562 128.051792 
L 171.28487 128.051792 
L 172.638027 127.46383 
L 172.734681 126.875868 
L 173.121297 126.875868 
L 173.217951 126.758276 
L 173.991183 126.287907 
L 173.991183 126.052722 
L 174.281146 126.052722 
L 174.667762 125.582352 
L 175.247686 125.582352 
L 175.247686 125.229575 
L 175.34434 125.229575 
L 175.924265 124.759206 
L 176.214227 123.818467 
L 176.310881 123.818467 
L 176.310881 123.348098 
L 176.407535 123.348098 
L 176.890805 123.230506 
L 176.890805 122.877729 
L 177.180767 122.524952 
L 177.374075 122.524952 
L 177.374075 122.289767 
L 177.47073 122.289767 
L 177.954 121.93699 
L 178.050654 121.701805 
L 179.113849 120.996251 
L 179.307157 120.761066 
L 179.307157 120.525882 
L 179.403811 120.525882 
L 180.467005 120.525882 
L 180.660314 120.173105 
L 181.143584 120.173105 
L 181.143584 120.055512 
L 181.5302 119.93792 
L 181.5302 119.820328 
L 181.916816 119.820328 
L 181.916816 119.114774 
L 182.206778 119.114774 
L 182.206778 118.997181 
L 182.400087 118.997181 
L 182.496741 118.879589 
L 183.269973 118.879589 
L 184.429822 118.056443 
L 184.429822 117.93885 
L 184.913092 117.93885 
L 184.913092 117.821258 
L 185.1064 117.821258 
L 185.299708 117.586073 
L 185.493017 117.586073 
L 185.686325 117.468481 
L 185.879633 117.350889 
L 186.266249 117.350889 
L 186.459557 116.998112 
L 186.749519 116.880519 
L 186.942827 116.645334 
L 187.23279 116.645334 
L 187.23279 116.527742 
L 188.102676 116.057373 
L 188.102676 115.822188 
L 188.19933 115.822188 
L 188.585946 115.351819 
L 188.779255 115.351819 
L 188.875909 114.999042 
L 189.359179 114.528672 
L 189.552487 114.528672 
L 189.745795 114.175895 
L 189.842449 113.823118 
L 190.229066 113.470341 
L 190.422374 113.470341 
L 190.422374 113.352749 
L 190.615682 113.352749 
L 191.29226 112.647195 
L 191.678876 112.647195 
L 191.77553 112.294418 
L 191.872185 112.294418 
L 191.968839 112.176825 
L 192.355455 112.176825 
L 192.452109 111.941641 
L 192.548763 111.824048 
L 192.548763 111.588864 
L 192.838725 111.588864 
L 192.838725 111.000902 
L 193.032033 111.000902 
L 193.032033 110.88331 
L 193.225341 110.648125 
L 193.321995 110.060163 
L 193.708612 110.060163 
L 193.708612 109.942571 
L 194.288536 109.942571 
L 194.288536 109.707386 
L 194.965114 109.707386 
L 195.061769 109.354609 
L 195.545039 109.354609 
L 195.738347 108.88424 
L 195.931655 108.88424 
L 196.028309 108.766648 
L 196.608233 108.766648 
L 196.704888 108.413871 
L 196.801542 108.413871 
L 196.898196 108.178686 
L 197.864736 108.178686 
L 198.058044 107.943501 
L 198.058044 107.708316 
L 198.251353 107.708316 
L 198.734623 107.590724 
L 198.734623 107.355539 
L 198.831277 107.355539 
L 199.411201 107.237947 
L 200.08778 107.120355 
L 200.281088 106.414801 
L 200.667704 106.414801 
L 201.05432 105.826839 
L 201.344282 105.826839 
L 201.440937 105.591654 
L 201.440937 105.238877 
L 201.537591 105.238877 
L 201.634245 105.121285 
L 202.214169 105.121285 
L 202.214169 105.003693 
L 202.504131 105.003693 
L 202.504131 104.8861 
L 202.794093 104.8861 
L 202.794093 104.415731 
L 202.890747 104.415731 
L 202.987401 104.298139 
L 203.277364 104.298139 
L 203.760634 103.827769 
L 203.857288 103.827769 
L 203.953942 103.710177 
L 204.340558 103.710177 
L 204.727175 103.122215 
L 204.727175 103.004623 
L 204.823829 103.004623 
L 205.307099 102.416661 
L 205.790369 102.299069 
L 205.983677 102.063884 
L 206.176985 102.063884 
L 206.370294 101.828699 
L 206.660256 101.828699 
L 206.660256 101.711107 
L 206.853564 101.711107 
L 206.950218 101.475922 
L 207.24018 101.475922 
L 207.24018 101.35833 
L 207.433488 101.35833 
L 207.433488 101.240738 
L 207.530142 101.240738 
L 207.72345 101.123145 
L 207.72345 100.770368 
L 208.013413 100.652776 
L 208.496683 100.652776 
L 208.593337 100.535184 
L 209.173261 100.535184 
L 209.269915 100.417591 
L 209.463224 100.417591 
L 209.463224 100.182407 
L 209.559878 100.182407 
L 209.656532 99.947222 
L 209.84984 99.947222 
L 210.139802 99.712037 
L 210.81638 99.476853 
L 211.299651 99.476853 
L 211.589613 99.241668 
L 211.589613 99.124075 
L 212.072883 99.124075 
L 212.459499 97.83056 
L 212.652808 97.83056 
L 213.136078 97.36019 
L 213.232732 97.125006 
L 213.522694 97.125006 
L 213.619348 96.419452 
L 213.716002 96.301859 
L 214.199272 96.301859 
L 214.199272 96.066675 
L 214.392581 96.066675 
L 214.392581 95.949082 
L 214.779197 95.949082 
L 214.779197 95.713898 
L 215.262467 95.713898 
L 215.262467 95.596305 
L 215.455775 95.596305 
L 215.455775 95.361121 
L 215.649083 95.361121 
L 215.745737 95.243528 
L 217.968781 95.243528 
L 218.645359 95.008344 
L 220.771749 93.83242 
L 221.448327 93.83242 
L 221.544981 93.597235 
L 221.738289 93.126866 
L 222.028251 93.126866 
L 222.511522 92.656497 
L 222.898138 92.656497 
L 222.898138 92.421312 
L 223.091446 92.421312 
L 223.381408 92.186127 
L 223.768024 92.186127 
L 224.444603 91.83335 
L 225.894414 91.480573 
L 226.377684 91.245389 
L 227.924149 90.539835 
L 227.924149 90.422242 
L 228.117457 90.422242 
L 228.117457 90.30465 
L 228.214111 90.30465 
L 228.407419 90.30465 
L 228.504073 90.069465 
L 229.37396 90.069465 
L 229.37396 89.951873 
L 229.567268 89.951873 
L 229.567268 89.83428 
L 229.85723 89.83428 
L 229.953884 89.599096 
L 230.727117 89.599096 
L 230.727117 89.363911 
L 231.210387 89.128726 
L 232.273582 89.011134 
L 232.756852 88.423172 
L 233.046814 88.423172 
L 233.046814 88.30558 
L 234.013355 88.30558 
L 235.366512 87.600026 
L 236.816323 87.364841 
L 239.13602 87.129657 
L 239.522636 86.541695 
L 240.585831 86.541695 
L 241.359063 86.424103 
L 242.518912 85.836141 
L 242.615566 85.718548 
L 243.485453 85.718548 
L 243.485453 85.600956 
L 243.678761 85.600956 
L 243.968723 85.365771 
L 244.258685 85.365771 
L 244.258685 85.248179 
L 244.83861 84.895402 
L 245.708496 84.895402 
L 245.80515 84.660217 
L 246.288421 84.660217 
L 246.288421 84.542625 
L 246.385075 84.542625 
L 246.481729 84.425033 
L 246.771691 84.425033 
L 246.868345 83.719479 
L 247.448269 83.719479 
L 247.544923 83.484294 
L 247.834886 82.77874 
L 248.028194 82.77874 
L 248.221502 82.543555 
L 248.994734 81.720409 
L 249.381351 81.720409 
L 249.767967 81.602817 
L 250.154583 81.602817 
L 250.251237 81.132447 
L 250.444545 81.132447 
L 250.541199 80.897262 
L 250.734507 80.897262 
L 251.797702 80.77967 
L 251.797702 80.426893 
L 254.020745 79.721339 
L 254.214054 79.486154 
L 255.663864 79.486154 
L 255.857173 79.368562 
L 256.147135 79.368562 
L 256.243789 79.133377 
L 256.437097 79.133377 
L 256.437097 79.015785 
L 256.630405 79.015785 
L 256.727059 78.663008 
L 257.017021 78.663008 
L 257.596946 78.427823 
L 257.6936 78.192639 
L 258.756794 77.604677 
L 258.756794 77.2519 
L 258.853448 77.2519 
L 259.240065 76.78153 
L 259.819989 76.78153 
L 259.819989 76.663938 
L 261.366454 76.663938 
L 261.559762 76.546346 
L 261.75307 76.546346 
L 261.849724 76.428753 
L 261.849724 76.075976 
L 261.946378 76.075976 
L 263.009573 75.840792 
L 263.009573 75.723199 
L 263.106227 75.723199 
L 263.976114 74.547276 
L 264.652692 74.312091 
L 265.32927 74.312091 
L 265.425925 73.959314 
L 265.715887 73.606537 
L 266.102503 73.606537 
L 267.648968 72.665798 
L 267.93893 72.665798 
L 267.93893 72.548206 
L 268.615509 72.548206 
L 268.615509 72.313021 
L 269.582049 72.313021 
L 270.355282 72.077837 
L 270.54859 71.842652 
L 271.225168 71.842652 
L 271.225168 71.72506 
L 273.254903 71.72506 
L 273.254903 71.489875 
L 273.544866 71.489875 
L 273.64152 71.372283 
L 274.221444 71.372283 
L 274.221444 71.25469 
L 274.318098 71.25469 
L 274.414752 71.137098 
L 274.60806 71.137098 
L 274.704714 70.901913 
L 274.801368 70.901913 
L 274.898022 70.313952 
L 274.994677 70.313952 
L 276.444487 69.843582 
L 276.637796 69.843582 
L 277.507682 69.490805 
L 279.150801 68.785251 
L 279.344109 68.785251 
L 279.344109 68.667659 
L 279.440763 68.667659 
L 279.730725 68.667659 
L 280.987228 68.550067 
L 280.987228 68.314882 
L 281.180536 68.314882 
L 281.27719 68.197289 
L 281.953769 68.197289 
L 281.953769 68.079697 
L 282.147077 68.079697 
L 283.693542 67.491735 
L 283.790196 67.256551 
L 283.983504 67.256551 
L 283.983504 67.138958 
L 284.756737 67.138958 
L 285.916585 66.786181 
L 287.269742 66.550997 
L 287.366396 66.315812 
L 287.849667 66.315812 
L 287.946321 65.610258 
L 288.042975 65.610258 
L 288.042975 65.492666 
L 288.622899 65.492666 
L 288.719553 65.375073 
L 289.009515 65.375073 
L 289.299477 65.257481 
L 290.266018 65.257481 
L 290.362672 65.139889 
L 290.942596 64.787112 
L 290.942596 64.551927 
L 291.812483 64.316742 
L 292.102445 64.316742 
L 292.489061 63.963965 
L 292.585716 63.963965 
L 292.779024 63.846373 
L 293.358948 63.611188 
L 294.035526 63.376003 
L 294.422143 63.376003 
L 294.422143 63.140819 
L 294.808759 63.140819 
L 295.292029 62.788042 
L 295.485337 62.435265 
L 295.581991 62.20008 
L 296.065262 61.729711 
L 296.74184 61.729711 
L 296.74184 61.612118 
L 297.321764 61.612118 
L 297.805035 61.494526 
L 297.901689 61.141749 
L 297.998343 61.141749 
L 299.931424 60.318603 
L 300.028078 59.848233 
L 301.864505 59.848233 
L 301.864505 59.613049 
L 302.251122 59.613049 
L 303.700932 58.789902 
L 304.667473 58.789902 
L 304.764127 58.554717 
L 305.247397 58.084348 
L 305.53736 58.084348 
L 306.407246 57.966756 
L 306.407246 57.849163 
L 307.857057 57.613979 
L 308.147019 57.261202 
L 308.147019 57.026017 
L 308.243673 57.026017 
L 309.11356 56.67324 
L 309.500176 56.202871 
L 310.176755 56.202871 
L 310.176755 55.850094 
L 310.466717 55.850094 
L 311.143295 55.497317 
L 311.239949 55.379724 
L 311.433257 55.379724 
L 311.529911 55.026947 
L 311.723219 54.909355 
L 311.723219 54.67417 
L 312.109836 54.67417 
L 312.20649 54.438985 
L 312.883068 54.438985 
L 313.462993 54.203801 
L 313.559647 54.203801 
L 313.656301 53.968616 
L 314.042917 53.968616 
L 314.236225 53.733431 
L 314.622841 53.733431 
L 314.816149 53.498247 
L 315.589382 53.498247 
L 315.589382 53.380654 
L 315.686036 53.380654 
L 316.459268 53.380654 
L 316.845885 53.263062 
L 317.135847 53.263062 
L 317.135847 53.027877 
L 317.909079 53.027877 
L 318.102387 52.910285 
L 318.489004 52.910285 
L 318.489004 52.792693 
L 318.682312 52.792693 
L 318.682312 52.6751 
L 318.972274 52.6751 
L 319.648852 52.557508 
L 322.838436 52.557508 
L 322.838436 52.439916 
L 322.935091 52.439916 
L 323.031745 52.322323 
L 323.515015 52.322323 
L 323.611669 52.087139 
L 324.288247 52.087139 
L 325.834712 51.851954 
L 325.931366 51.734362 
L 326.704599 51.381585 
L 327.767794 51.381585 
L 327.767794 51.1464 
L 328.444372 51.1464 
L 328.444372 51.028808 
L 328.734334 51.028808 
L 328.734334 50.793623 
L 328.830988 50.793623 
L 329.024296 50.793623 
L 329.12095 50.558438 
L 329.700875 50.558438 
L 329.700875 50.440846 
L 330.087491 50.440846 
L 330.184145 50.205661 
L 332.020572 50.205661 
L 332.020572 50.088069 
L 332.117226 50.088069 
L 332.697151 50.088069 
L 332.793805 49.852884 
L 334.050307 49.852884 
L 334.050307 49.735292 
L 334.34027 49.735292 
L 334.34027 49.500107 
L 334.726886 49.264922 
L 339.656243 49.264922 
L 339.656243 49.14733 
L 340.042859 49.14733 
L 340.139513 48.912145 
L 341.299362 48.912145 
L 341.299362 48.794553 
L 341.589324 48.794553 
L 341.589324 48.676961 
L 341.685978 48.676961 
L 341.782632 48.559368 
L 342.169249 48.559368 
L 342.169249 48.324184 
L 342.749173 48.324184 
L 342.749173 48.206591 
L 343.619059 48.206591 
L 343.619059 47.971407 
L 345.358833 47.971407 
L 345.455487 47.853814 
L 345.648795 47.853814 
L 345.648795 47.736222 
L 347.581876 47.501037 
L 348.258454 47.501037 
L 348.258454 47.383445 
L 349.418303 47.383445 
L 349.611611 47.265853 
L 350.28819 47.030668 
L 350.578152 47.030668 
L 350.578152 46.913076 
L 351.448038 46.913076 
L 351.544692 46.677891 
L 352.607887 46.677891 
L 352.801195 46.560299 
L 353.767736 46.560299 
L 353.767736 46.325114 
L 354.540968 46.325114 
L 354.540968 46.207521 
L 355.410855 46.207521 
L 355.410855 46.089929 
L 356.474049 46.089929 
L 357.053974 45.854744 
L 358.793747 45.854744 
L 358.793747 45.737152 
L 359.083709 45.737152 
L 359.083709 45.501967 
L 359.663633 45.501967 
L 359.663633 45.266783 
L 361.01679 45.266783 
L 361.01679 45.031598 
L 363.723104 45.031598 
L 363.723104 44.914006 
L 365.462877 44.914006 
L 365.462877 44.796413 
L 367.009342 44.796413 
L 367.009342 44.678821 
L 367.879229 44.678821 
L 367.879229 44.561229 
L 370.102272 44.561229 
L 370.102272 44.443636 
L 373.581818 44.443636 
L 373.581818 44.443636 
" style="fill:none;stroke:#ffa500;stroke-linecap:square;stroke-width:2;"/>
   </g>
   <g id="line2d_15">
    <path clip-path="url(#pf7c02e4a35)" d="M 69.218182 242.116364 
L 69.314836 241.881179 
L 69.41149 241.175625 
L 69.604798 241.175625 
L 69.89476 240.705256 
L 70.088068 240.234886 
L 70.184722 239.764517 
L 70.281376 239.529332 
L 70.378031 238.706186 
L 70.667993 238.353409 
L 70.667993 238.000632 
L 70.861301 238.000632 
L 70.861301 237.765447 
L 71.054609 237.765447 
L 71.054609 237.647855 
L 71.247917 237.41267 
L 71.441225 237.41267 
L 71.537879 237.177485 
L 71.731187 237.177485 
L 71.827841 236.942301 
L 72.117804 236.942301 
L 72.117804 236.824708 
L 72.311112 236.824708 
L 72.50442 236.589524 
L 72.50442 236.236747 
L 72.697728 236.119154 
L 72.697728 235.766377 
L 72.891036 235.766377 
L 72.891036 235.531192 
L 73.374306 235.178415 
L 73.760923 233.649715 
L 73.857577 233.41453 
L 73.954231 233.41453 
L 74.147539 233.296938 
L 74.340847 233.296938 
L 74.340847 233.179346 
L 74.437501 233.179346 
L 74.630809 232.944161 
L 75.210734 232.944161 
L 75.210734 232.708976 
L 75.983966 232.708976 
L 76.08062 231.88583 
L 76.177274 231.768238 
L 76.370582 231.768238 
L 76.467236 231.533053 
L 77.143815 231.062683 
L 77.917047 230.004352 
L 78.110355 230.004352 
L 78.110355 229.88676 
L 78.207009 229.88676 
L 78.593626 229.533983 
L 78.69028 229.181206 
L 79.17355 229.181206 
L 79.946783 228.35806 
L 80.623361 228.35806 
L 81.106631 227.88769 
L 81.976518 227.534913 
L 82.073172 227.417321 
L 82.26648 227.417321 
L 82.26648 227.299729 
L 82.363134 227.299729 
L 83.233021 225.065474 
L 83.522983 224.947882 
L 83.522983 224.712697 
L 83.619637 224.712697 
L 83.909599 224.595105 
L 83.909599 224.35992 
L 84.102907 224.35992 
L 84.296215 224.007143 
L 84.586177 223.889551 
L 84.682831 223.301589 
L 84.972794 222.948812 
L 85.35941 222.948812 
L 86.809221 222.008073 
L 87.485799 221.302519 
L 88.065724 221.067334 
L 88.355686 220.949742 
L 88.355686 220.596965 
L 88.548994 220.596965 
L 89.128918 219.538634 
L 89.322226 219.421042 
L 89.41888 219.068265 
L 89.805497 218.480303 
L 90.192113 217.892341 
L 90.482075 217.892341 
L 90.868691 217.539564 
L 91.448616 216.363641 
L 91.738578 216.363641 
L 91.738578 216.010864 
L 92.318502 215.070125 
L 92.51181 215.070125 
L 92.608464 214.599756 
L 92.705119 214.599756 
L 92.801773 214.129386 
L 92.898427 214.129386 
L 94.251583 212.365501 
L 94.734854 211.777539 
L 95.314778 211.071985 
L 95.60474 211.071985 
L 95.701394 210.719208 
L 96.281319 210.484024 
L 96.377973 210.131247 
L 96.571281 210.131247 
L 96.764589 209.660877 
L 97.441167 209.190508 
L 97.537822 208.602546 
L 97.634476 208.602546 
L 97.827784 208.367361 
L 98.2144 208.367361 
L 98.311054 208.249769 
L 98.601016 207.7794 
L 98.987632 207.7794 
L 98.987632 207.661807 
L 99.084286 207.661807 
L 99.180941 207.426623 
L 99.470903 207.426623 
L 99.760865 207.30903 
L 100.050827 206.368292 
L 100.534097 206.133107 
L 100.534097 205.897922 
L 101.017368 205.545145 
L 101.30733 205.074776 
L 101.403984 203.898852 
L 101.983908 203.546075 
L 102.080562 203.310891 
L 102.27387 202.958114 
L 102.563833 202.958114 
L 102.757141 202.605337 
L 103.047103 202.605337 
L 103.143757 202.25256 
L 103.337065 202.25256 
L 104.690222 201.076636 
L 104.980184 200.841452 
L 105.3668 199.78312 
L 105.753417 199.78312 
L 105.753417 199.195159 
L 106.043379 199.195159 
L 106.043379 199.077566 
L 106.719957 198.607197 
L 106.816611 197.078497 
L 107.009919 197.078497 
L 107.009919 196.960904 
L 107.686498 196.72572 
L 107.783152 196.137758 
L 107.97646 196.137758 
L 107.97646 196.020165 
L 108.169768 195.902573 
L 108.266422 195.549796 
L 108.556384 195.549796 
L 108.749693 194.961834 
L 109.232963 194.961834 
L 109.329617 194.25628 
L 109.716233 193.785911 
L 110.58612 193.785911 
L 110.682774 193.550726 
L 111.166044 193.433134 
L 111.166044 192.845172 
L 111.55266 192.374803 
L 111.745968 192.374803 
L 112.035931 191.904434 
L 114.258974 191.198879 
L 114.258974 190.846102 
L 114.452282 190.610918 
L 114.548936 189.905364 
L 114.742244 189.905364 
L 114.742244 189.552587 
L 115.998747 188.141479 
L 116.095401 188.141479 
L 116.192055 187.671109 
L 116.482017 187.671109 
L 116.578671 187.435925 
L 117.25525 186.965555 
L 117.25525 186.847963 
L 117.448558 186.612778 
L 117.448558 186.260001 
L 117.545212 186.260001 
L 117.73852 186.260001 
L 117.835174 185.907224 
L 118.028482 185.20167 
L 118.318445 184.966485 
L 118.608407 184.731301 
L 118.898369 184.731301 
L 118.898369 184.496116 
L 119.284985 184.260931 
L 119.381639 183.555377 
L 119.574947 183.437785 
L 119.671601 182.732231 
L 119.864909 182.732231 
L 120.251526 182.497046 
L 120.541488 182.497046 
L 120.541488 182.379454 
L 121.411374 182.261861 
L 121.701337 180.850753 
L 122.087953 180.380384 
L 122.281261 180.380384 
L 123.151148 179.792422 
L 123.151148 179.322053 
L 123.247802 179.322053 
L 123.344456 179.204461 
L 123.344456 178.498906 
L 123.537764 178.498906 
L 123.537764 178.146129 
L 124.214342 178.146129 
L 124.40765 177.910945 
L 125.664153 177.205391 
L 125.857461 177.205391 
L 126.050769 176.735021 
L 126.244077 175.794283 
L 126.437386 175.794283 
L 126.630694 175.559098 
L 126.824002 175.559098 
L 126.920656 175.206321 
L 127.01731 175.206321 
L 127.887197 174.030397 
L 127.983851 173.795213 
L 128.080505 173.795213 
L 128.080505 173.67762 
L 129.143699 173.089659 
L 129.337007 172.854474 
L 129.337007 172.619289 
L 129.530316 172.619289 
L 129.62697 172.384105 
L 129.723624 172.384105 
L 129.820278 171.913735 
L 129.916932 171.913735 
L 130.013586 171.796143 
L 130.303548 171.796143 
L 130.786818 171.560958 
L 131.850013 171.208181 
L 132.236629 170.14985 
L 132.429937 170.14985 
L 132.429937 169.914666 
L 133.009862 169.679481 
L 133.009862 169.326704 
L 133.20317 169.091519 
L 133.20317 168.856334 
L 133.68644 168.856334 
L 133.783094 168.385965 
L 133.976402 168.15078 
L 134.266365 167.915596 
L 134.266365 167.562819 
L 134.556327 167.562819 
L 134.749635 167.210042 
L 135.039597 167.092449 
L 135.136251 166.504488 
L 135.812829 166.386895 
L 136.006138 165.916526 
L 136.199446 165.916526 
L 136.489408 165.563749 
L 136.682716 165.563749 
L 136.682716 165.446157 
L 136.972678 165.328564 
L 137.26264 164.858195 
L 137.455948 164.858195 
L 137.455948 164.740602 
L 138.035873 164.152641 
L 138.035873 163.917456 
L 138.422489 163.682271 
L 138.615797 163.329494 
L 139.195722 163.329494 
L 139.292376 162.976717 
L 139.582338 162.976717 
L 139.968954 162.62394 
L 141.612073 162.035979 
L 141.612073 161.800794 
L 141.708727 161.800794 
L 141.902035 161.800794 
L 141.902035 161.683202 
L 142.385306 160.977648 
L 142.48196 160.742463 
L 142.771922 160.742463 
L 143.4485 160.036909 
L 143.835116 160.036909 
L 143.835116 159.801724 
L 144.028425 159.801724 
L 144.415041 158.978578 
L 144.608349 158.978578 
L 144.801657 158.743393 
L 144.994965 158.273024 
L 145.768198 157.685062 
L 145.768198 157.214693 
L 145.961506 157.214693 
L 146.05816 156.861916 
L 146.154814 156.861916 
L 146.154814 156.744323 
L 146.444776 156.744323 
L 146.734738 156.391546 
L 147.0247 156.391546 
L 147.0247 156.273954 
L 147.218009 156.273954 
L 147.314663 156.156361 
L 147.701279 156.156361 
L 147.797933 155.921177 
L 147.991241 155.921177 
L 147.991241 155.803584 
L 148.474511 155.333215 
L 148.764474 155.333215 
L 148.861128 154.980438 
L 149.15109 154.980438 
L 149.15109 154.862846 
L 149.441052 154.862846 
L 149.537706 154.627661 
L 149.731014 154.627661 
L 149.731014 154.392476 
L 150.310939 154.039699 
L 150.407593 153.56933 
L 150.504247 153.56933 
L 151.084171 153.334145 
L 151.277479 153.334145 
L 151.470787 153.098961 
L 151.470787 152.746184 
L 151.760749 152.746184 
L 151.857404 152.628591 
L 151.857404 152.275814 
L 151.954058 152.275814 
L 152.437328 152.040629 
L 152.630636 152.040629 
L 152.72729 150.982298 
L 152.823944 150.982298 
L 153.500523 150.511929 
L 153.500523 150.276744 
L 153.790485 150.159152 
L 153.887139 149.806375 
L 153.983793 149.806375 
L 153.983793 149.688783 
L 154.080447 149.688783 
L 154.273755 149.688783 
L 154.273755 149.57119 
L 155.240296 149.57119 
L 155.723566 149.218413 
L 155.723566 149.100821 
L 155.916874 149.100821 
L 156.013528 148.512859 
L 156.30349 148.160082 
L 156.496798 147.807305 
L 157.656647 146.984159 
L 157.656647 146.278605 
L 157.946609 146.278605 
L 158.816496 145.925828 
L 159.009804 145.573051 
L 159.299766 145.573051 
L 159.39642 145.337866 
L 159.493074 145.337866 
L 159.589728 144.749904 
L 159.686382 144.749904 
L 159.686382 144.632312 
L 159.783036 144.632312 
L 159.976345 144.279535 
L 160.169653 144.04435 
L 160.266307 143.809166 
L 160.362961 142.868427 
L 160.942885 142.750834 
L 161.039539 142.750834 
L 161.039539 142.633242 
L 162.102734 142.633242 
L 162.102734 142.398057 
L 162.296042 142.398057 
L 162.392696 142.162873 
L 162.48935 142.162873 
L 162.586004 141.927688 
L 162.682658 141.927688 
L 162.779312 141.692503 
L 162.97262 141.692503 
L 163.069275 141.339726 
L 163.262583 141.222134 
L 164.229123 141.222134 
L 164.325777 140.986949 
L 164.422431 140.986949 
L 164.519085 140.634172 
L 164.615739 140.634172 
L 164.615739 140.398988 
L 164.809048 140.398988 
L 164.905702 140.046211 
L 165.195664 139.458249 
L 165.485626 139.458249 
L 165.58228 138.870287 
L 165.678934 138.870287 
L 165.678934 138.635102 
L 166.355513 137.929548 
L 166.548821 137.929548 
L 166.548821 137.811956 
L 166.645475 137.811956 
L 167.032091 137.341587 
L 167.322053 137.341587 
L 167.901978 136.51844 
L 167.998632 135.930479 
L 168.095286 135.812886 
L 168.288594 135.812886 
L 168.385248 135.342517 
L 168.868518 135.342517 
L 168.868518 135.107332 
L 169.255134 135.107332 
L 169.351788 134.872148 
L 169.545097 134.401778 
L 170.125021 134.401778 
L 170.318329 134.284186 
L 170.511637 134.284186 
L 170.511637 134.049001 
L 170.704945 134.049001 
L 170.704945 133.931409 
L 170.898253 133.931409 
L 170.994907 133.696224 
L 171.091562 133.696224 
L 171.28487 132.99067 
L 172.25141 132.873078 
L 172.348064 132.520301 
L 172.444718 132.520301 
L 172.734681 132.167524 
L 172.927989 132.167524 
L 172.927989 132.049931 
L 173.024643 132.049931 
L 173.217951 132.049931 
L 173.314605 131.697154 
L 173.507913 131.697154 
L 173.507913 131.46197 
L 173.701221 131.46197 
L 173.701221 131.226785 
L 174.087837 131.109193 
L 174.474454 131.109193 
L 174.571108 130.756416 
L 174.86107 130.756416 
L 174.957724 130.638823 
L 175.247686 130.638823 
L 175.247686 130.521231 
L 175.34434 130.521231 
L 175.537648 130.286046 
L 175.537648 130.050862 
L 175.82761 130.050862 
L 175.82761 129.698084 
L 176.600843 129.698084 
L 176.600843 129.580492 
L 176.794151 129.580492 
L 176.794151 129.227715 
L 176.890805 129.227715 
L 177.084113 128.99253 
L 177.277421 128.99253 
L 177.857346 128.757346 
L 177.954 128.169384 
L 178.147308 128.169384 
L 178.147308 128.051792 
L 178.533924 128.051792 
L 178.92054 127.699015 
L 179.017194 127.581422 
L 179.210503 127.581422 
L 179.210503 127.46383 
L 179.403811 127.46383 
L 179.403811 127.346238 
L 179.500465 127.346238 
L 179.790427 126.875868 
L 180.177043 126.875868 
L 180.273697 126.758276 
L 180.563659 126.758276 
L 180.660314 126.640684 
L 180.756968 125.817537 
L 180.950276 125.817537 
L 181.04693 125.229575 
L 181.336892 124.641614 
L 181.723508 124.641614 
L 181.723508 124.524021 
L 181.820162 124.524021 
L 181.916816 124.406429 
L 182.303433 124.406429 
L 182.303433 124.171244 
L 182.496741 124.171244 
L 182.496741 124.053652 
L 183.463281 124.053652 
L 183.559935 123.93606 
L 184.13986 123.93606 
L 184.236514 123.583283 
L 184.526476 123.583283 
L 184.62313 123.230506 
L 184.719784 123.230506 
L 184.719784 123.112913 
L 185.009746 123.112913 
L 185.009746 122.995321 
L 185.1064 122.995321 
L 185.589671 122.760136 
L 185.879633 122.760136 
L 185.879633 122.642544 
L 186.266249 122.642544 
L 186.749519 122.054582 
L 186.749519 121.701805 
L 186.846173 121.701805 
L 186.942827 121.584213 
L 186.942827 121.349028 
L 187.136136 121.349028 
L 187.136136 121.231436 
L 188.102676 120.643474 
L 188.19933 119.349958 
L 188.585946 119.349958 
L 188.682601 119.114774 
L 188.779255 119.114774 
L 188.875909 118.879589 
L 188.972563 118.879589 
L 188.972563 118.526812 
L 189.165871 118.526812 
L 189.262525 118.174035 
L 189.455833 118.174035 
L 189.455833 118.056443 
L 189.649141 118.056443 
L 189.939103 117.821258 
L 190.422374 116.998112 
L 191.098952 116.998112 
L 191.098952 116.645334 
L 191.29226 116.645334 
L 191.29226 116.527742 
L 191.485568 116.527742 
L 191.77553 116.174965 
L 192.065493 116.174965 
L 192.162147 116.057373 
L 192.355455 116.057373 
L 192.452109 115.587003 
L 192.742071 115.587003 
L 192.935379 115.469411 
L 192.935379 115.116634 
L 193.032033 115.116634 
L 193.128687 114.999042 
L 193.321995 114.999042 
L 193.321995 114.763857 
L 193.805266 114.763857 
L 193.90192 114.646265 
L 194.481844 114.41108 
L 194.578498 114.058303 
L 194.675152 114.058303 
L 194.675152 113.940711 
L 194.86846 113.940711 
L 194.86846 113.587934 
L 195.738347 113.587934 
L 195.738347 113.470341 
L 195.931655 113.470341 
L 195.931655 113.235157 
L 196.704888 113.235157 
L 196.801542 112.999972 
L 197.188158 112.647195 
L 197.47812 112.647195 
L 197.671428 112.41201 
L 197.768082 111.824048 
L 198.251353 111.824048 
L 198.251353 111.706456 
L 198.348007 111.706456 
L 198.831277 111.236087 
L 199.121239 111.236087 
L 199.121239 111.118494 
L 200.08778 111.118494 
L 200.281088 110.88331 
L 200.474396 110.88331 
L 200.474396 110.765717 
L 200.667704 110.765717 
L 201.247628 110.41294 
L 201.247628 110.060163 
L 201.344282 110.060163 
L 201.537591 109.472202 
L 201.730899 109.472202 
L 201.827553 109.237017 
L 201.924207 109.237017 
L 202.020861 109.001832 
L 202.504131 109.001832 
L 202.697439 108.766648 
L 202.697439 108.531463 
L 203.277364 108.531463 
L 203.857288 108.296278 
L 203.857288 108.061094 
L 204.14725 108.061094 
L 204.14725 107.943501 
L 205.210445 107.943501 
L 205.403753 107.825909 
L 205.983677 107.590724 
L 206.370294 107.590724 
L 206.370294 107.355539 
L 206.660256 107.355539 
L 206.75691 107.120355 
L 206.950218 107.120355 
L 207.336834 107.002762 
L 207.336834 106.88517 
L 207.530142 106.88517 
L 207.530142 106.414801 
L 207.916759 106.414801 
L 207.916759 105.944431 
L 208.496683 105.944431 
L 208.883299 105.474062 
L 209.076607 105.474062 
L 209.173261 105.121285 
L 209.269915 105.121285 
L 209.269915 105.003693 
L 209.463224 104.650916 
L 209.946494 104.650916 
L 210.043148 104.298139 
L 210.429764 104.298139 
L 210.526418 103.945362 
L 210.913034 103.945362 
L 210.913034 103.827769 
L 211.299651 103.827769 
L 211.299651 103.710177 
L 211.686267 103.710177 
L 211.782921 103.592585 
L 212.169537 103.592585 
L 212.169537 103.239807 
L 212.459499 103.239807 
L 212.556153 102.769438 
L 212.652808 102.769438 
L 212.749462 102.416661 
L 212.94277 102.416661 
L 212.94277 102.299069 
L 213.522694 102.299069 
L 213.619348 101.593515 
L 213.812656 101.593515 
L 213.90931 101.35833 
L 214.199272 101.35833 
L 214.199272 101.240738 
L 214.585889 101.240738 
L 214.972505 101.123145 
L 214.972505 100.887961 
L 215.262467 100.887961 
L 215.262467 100.770368 
L 216.132354 100.770368 
L 216.51897 100.417591 
L 217.485511 100.417591 
L 217.485511 100.299999 
L 217.872127 99.947222 
L 217.872127 99.82963 
L 218.065435 99.82963 
L 218.065435 99.712037 
L 218.258743 99.712037 
L 218.355397 99.594445 
L 218.548705 99.594445 
L 218.548705 99.35926 
L 218.645359 99.35926 
L 218.935321 99.35926 
L 219.225284 99.124075 
L 219.321938 99.124075 
L 219.321938 99.006483 
L 219.515246 99.006483 
L 219.515246 98.888891 
L 219.6119 98.888891 
L 219.998516 98.888891 
L 219.998516 98.771298 
L 220.09517 98.771298 
L 220.57844 98.771298 
L 220.771749 98.653706 
L 220.771749 98.418521 
L 221.061711 98.418521 
L 221.158365 98.300929 
L 221.834943 98.300929 
L 221.834943 98.183337 
L 222.028251 98.183337 
L 222.028251 98.065744 
L 222.898138 98.065744 
L 223.284754 97.948152 
L 223.768024 97.948152 
L 223.768024 97.83056 
L 223.864679 97.83056 
L 224.154641 97.83056 
L 224.154641 97.595375 
L 224.347949 97.595375 
L 224.444603 97.125006 
L 224.637911 97.125006 
L 224.831219 96.889821 
L 225.121181 96.889821 
L 225.217835 96.772229 
L 225.604452 96.772229 
L 225.79776 96.537044 
L 225.79776 96.184267 
L 226.377684 95.949082 
L 226.377684 95.713898 
L 226.570992 95.478713 
L 227.537533 95.478713 
L 227.537533 95.361121 
L 227.827495 95.243528 
L 227.827495 95.008344 
L 228.697382 95.008344 
L 228.697382 94.773159 
L 228.89069 94.773159 
L 229.663922 94.185197 
L 229.85723 93.950012 
L 230.243847 93.950012 
L 230.340501 93.714828 
L 231.790311 93.714828 
L 231.790311 93.479643 
L 231.98362 93.479643 
L 232.080274 93.244458 
L 232.46689 93.244458 
L 232.563544 93.126866 
L 233.046814 93.126866 
L 233.143468 92.891681 
L 233.433431 92.891681 
L 233.530085 92.774089 
L 233.530085 92.538904 
L 233.820047 92.538904 
L 234.303317 91.83335 
L 234.593279 91.83335 
L 234.689933 91.715758 
L 234.979895 91.715758 
L 234.979895 91.598166 
L 235.269858 91.598166 
L 235.269858 91.480573 
L 235.366512 91.480573 
L 235.753128 91.362981 
L 235.753128 91.010204 
L 235.946436 91.010204 
L 235.946436 90.892612 
L 236.236398 90.892612 
L 236.236398 90.775019 
L 237.106285 90.775019 
L 237.299593 90.539835 
L 237.299593 90.187057 
L 237.492901 90.187057 
L 237.492901 90.069465 
L 237.976171 90.069465 
L 237.976171 89.83428 
L 238.266134 89.83428 
L 238.362788 89.599096 
L 239.13602 89.599096 
L 239.13602 89.481503 
L 239.715944 89.246319 
L 239.909253 89.246319 
L 240.102561 89.128726 
L 240.102561 88.423172 
L 240.199215 88.423172 
L 240.585831 88.30558 
L 241.649026 87.952803 
L 242.132296 87.952803 
L 242.132296 87.835211 
L 242.615566 87.835211 
L 242.615566 87.717618 
L 243.195491 87.717618 
L 243.195491 87.600026 
L 243.292145 87.600026 
L 243.968723 87.482434 
L 243.968723 86.894472 
L 244.355339 86.894472 
L 244.451993 86.659287 
L 244.935264 86.659287 
L 244.935264 86.541695 
L 245.128572 86.541695 
L 245.128572 86.424103 
L 245.225226 86.424103 
L 245.708496 86.424103 
L 245.708496 86.30651 
L 245.901804 86.30651 
L 245.901804 86.188918 
L 246.385075 86.188918 
L 248.608118 85.365771 
L 248.608118 85.130587 
L 248.704772 85.130587 
L 248.994734 84.895402 
L 250.637853 84.77781 
L 250.637853 84.660217 
L 250.927815 84.660217 
L 251.314432 83.837071 
L 251.701048 83.837071 
L 251.797702 83.719479 
L 251.894356 83.366702 
L 252.087664 83.366702 
L 252.280972 83.249109 
L 252.570934 83.249109 
L 252.667589 83.013925 
L 253.247513 83.013925 
L 253.247513 82.896332 
L 253.634129 82.896332 
L 253.634129 82.77874 
L 253.730783 82.77874 
L 254.214054 82.190778 
L 256.147135 82.190778 
L 256.920367 81.955594 
L 257.210329 81.955594 
L 257.210329 81.838001 
L 257.306983 81.838001 
L 257.6936 81.838001 
L 257.790254 81.720409 
L 258.370178 81.602817 
L 259.819989 81.014855 
L 260.78653 81.014855 
L 260.78653 80.77967 
L 260.883184 80.77967 
L 261.463108 80.77967 
L 261.559762 80.426893 
L 263.396189 79.25097 
L 263.782806 79.25097 
L 264.169422 78.7806 
L 264.169422 78.310231 
L 264.556038 78.310231 
L 264.749346 78.192639 
L 265.232616 78.192639 
L 266.295811 77.957454 
L 266.295811 77.839862 
L 268.035584 77.487085 
L 268.035584 77.369492 
L 268.132238 77.369492 
L 268.518854 77.369492 
L 268.615509 77.134308 
L 269.292087 77.134308 
L 269.292087 77.016715 
L 269.678703 76.78153 
L 270.065319 76.546346 
L 271.901747 76.193569 
L 272.674979 75.723199 
L 272.674979 75.488015 
L 272.771633 75.488015 
L 272.964941 75.25283 
L 273.254903 75.25283 
L 273.544866 74.782461 
L 273.544866 74.664868 
L 273.64152 74.664868 
L 273.834828 74.664868 
L 274.028136 74.429684 
L 274.318098 74.429684 
L 274.318098 74.312091 
L 274.60806 74.194499 
L 274.898022 73.959314 
L 276.444487 73.25376 
L 276.444487 73.136168 
L 276.637796 73.136168 
L 276.73445 73.018576 
L 277.121066 73.018576 
L 277.121066 72.900983 
L 277.21772 72.900983 
L 277.70099 72.430614 
L 277.894298 72.430614 
L 277.894298 72.195429 
L 278.087606 72.195429 
L 278.184261 72.077837 
L 278.474223 72.077837 
L 278.570877 71.960244 
L 278.957493 71.960244 
L 279.150801 71.72506 
L 280.79392 71.72506 
L 281.953769 71.489875 
L 282.050423 71.25469 
L 282.243731 71.25469 
L 282.243731 71.137098 
L 282.823655 71.137098 
L 282.920309 71.019506 
L 282.920309 70.784321 
L 283.016964 70.784321 
L 283.210272 70.431544 
L 283.596888 69.843582 
L 284.756737 69.843582 
L 284.950045 69.72599 
L 285.433315 69.72599 
L 285.433315 69.608398 
L 285.723277 69.608398 
L 285.723277 69.490805 
L 286.689818 69.490805 
L 287.269742 68.902844 
L 287.559704 68.902844 
L 287.559704 68.785251 
L 287.849667 68.785251 
L 287.946321 68.667659 
L 288.139629 68.667659 
L 288.139629 68.432474 
L 288.236283 68.432474 
L 289.106169 67.962105 
L 289.976056 67.491735 
L 290.266018 67.491735 
L 290.266018 67.256551 
L 290.55598 67.138958 
L 292.779024 66.433404 
L 293.16564 66.433404 
L 293.16564 66.315812 
L 293.262294 66.315812 
L 293.64891 66.315812 
L 293.64891 66.080627 
L 294.228835 66.080627 
L 294.228835 65.845443 
L 294.518797 65.845443 
L 295.388683 65.375073 
L 296.161916 65.375073 
L 296.355224 65.139889 
L 296.74184 65.139889 
L 297.708381 64.904704 
L 298.288305 64.904704 
L 298.384959 64.669519 
L 300.124732 64.669519 
L 300.221386 64.434335 
L 300.608003 64.434335 
L 300.608003 64.19915 
L 300.704657 64.19915 
L 300.994619 63.963965 
L 301.671197 63.963965 
L 301.671197 63.846373 
L 301.864505 63.846373 
L 301.864505 63.72878 
L 301.961159 63.72878 
L 302.347776 63.72878 
L 302.831046 63.493596 
L 302.9277 62.788042 
L 303.990895 62.788042 
L 304.570819 62.670449 
L 305.440706 62.670449 
L 305.440706 62.552857 
L 305.53736 62.552857 
L 306.02063 62.552857 
L 306.02063 62.435265 
L 306.117284 62.435265 
L 306.793862 61.964895 
L 307.567095 61.964895 
L 307.663749 61.494526 
L 308.147019 61.494526 
L 308.533635 61.259341 
L 309.403522 61.259341 
L 309.790138 61.141749 
L 310.660025 60.788972 
L 310.660025 60.67138 
L 310.949987 60.67138 
L 312.20649 60.20101 
L 312.883068 60.20101 
L 313.076376 60.083418 
L 314.042917 60.083418 
L 314.042917 59.848233 
L 314.236225 59.848233 
L 314.332879 59.730641 
L 314.526187 59.730641 
L 315.396074 59.142679 
L 315.686036 59.142679 
L 315.78269 59.025087 
L 317.619117 59.025087 
L 317.619117 58.789902 
L 317.909079 58.789902 
L 317.909079 58.67231 
L 319.455544 58.67231 
L 319.552198 58.554717 
L 319.552198 58.319533 
L 319.745507 58.319533 
L 319.745507 58.20194 
L 320.228777 58.20194 
L 320.228777 58.084348 
L 320.615393 57.849163 
L 320.615393 57.613979 
L 320.808701 57.496386 
L 321.48528 57.496386 
L 321.48528 57.378794 
L 322.548474 57.378794 
L 322.741782 57.026017 
L 324.868172 56.438055 
L 326.317983 56.438055 
L 326.317983 56.202871 
L 326.414637 56.202871 
L 326.897907 55.967686 
L 327.381177 55.967686 
L 327.574485 55.850094 
L 327.864448 55.850094 
L 328.734334 55.026947 
L 329.797529 55.026947 
L 329.797529 54.909355 
L 329.894183 54.909355 
L 330.667415 54.909355 
L 330.860723 54.556578 
L 332.793805 54.321393 
L 332.793805 54.203801 
L 332.987113 54.203801 
L 332.987113 54.086208 
L 334.243616 54.086208 
L 334.243616 53.968616 
L 334.436924 53.968616 
L 334.436924 53.851024 
L 334.630232 53.851024 
L 334.726886 53.615839 
L 335.210156 53.615839 
L 337.723162 53.263062 
L 338.013124 53.263062 
L 338.013124 53.14547 
L 338.979665 53.027877 
L 339.752897 53.027877 
L 339.752897 52.910285 
L 340.912746 52.439916 
L 341.202708 51.851954 
L 341.685978 51.851954 
L 343.522405 50.793623 
L 343.812368 50.793623 
L 345.262178 50.440846 
L 345.938757 50.440846 
L 346.325373 50.323253 
L 346.325373 50.205661 
L 346.518681 50.205661 
L 346.615335 49.735292 
L 346.808643 49.735292 
L 346.808643 49.382515 
L 347.388568 49.382515 
L 348.645071 49.14733 
L 349.321649 49.14733 
L 349.514957 49.029738 
L 350.384844 48.912145 
L 350.384844 48.794553 
L 350.674806 48.794553 
L 350.964768 48.676961 
L 351.738001 48.676961 
L 352.027963 48.559368 
L 352.221271 48.559368 
L 353.187811 48.324184 
L 354.927585 47.501037 
L 355.507509 47.501037 
L 355.894125 47.030668 
L 357.827206 47.030668 
L 359.373671 46.795483 
L 359.470325 46.560299 
L 359.760288 46.560299 
L 359.760288 46.442706 
L 360.05025 46.442706 
L 360.340212 46.325114 
L 361.210098 46.325114 
L 361.210098 46.207521 
L 361.500061 45.854744 
L 362.079985 45.854744 
L 362.079985 45.737152 
L 362.369947 45.737152 
L 362.369947 45.61956 
L 362.756563 45.61956 
L 362.756563 45.501967 
L 363.433142 45.501967 
L 363.433142 45.384375 
L 363.723104 45.384375 
L 364.303028 45.266783 
L 365.946147 45.266783 
L 366.042801 45.14919 
L 366.526072 45.14919 
L 366.71938 45.031598 
L 369.232385 45.031598 
L 369.232385 44.678821 
L 370.102272 44.678821 
L 370.102272 44.561229 
L 372.325315 44.561229 
L 372.325315 44.443636 
L 373.581818 44.443636 
L 373.581818 44.443636 
" style="fill:none;stroke:#ff0000;stroke-linecap:square;stroke-width:2;"/>
   </g>
   <g id="line2d_16">
    <path clip-path="url(#pf7c02e4a35)" d="M 69.218182 242.116364 
L 373.581818 44.443636 
" style="fill:none;stroke:#ee82ee;stroke-dasharray:5.55,2.4;stroke-dashoffset:0;stroke-width:1.5;"/>
   </g>
   <g id="patch_3">
    <path d="M 54 252 
L 54 34.56 
" style="fill:none;stroke:#000000;stroke-linecap:square;stroke-linejoin:miter;stroke-width:0.8;"/>
   </g>
   <g id="patch_4">
    <path d="M 388.8 252 
L 388.8 34.56 
" style="fill:none;stroke:#000000;stroke-linecap:square;stroke-linejoin:miter;stroke-width:0.8;"/>
   </g>
   <g id="patch_5">
    <path d="M 54 252 
L 388.8 252 
" style="fill:none;stroke:#000000;stroke-linecap:square;stroke-linejoin:miter;stroke-width:0.8;"/>
   </g>
   <g id="patch_6">
    <path d="M 54 34.56 
L 388.8 34.56 
" style="fill:none;stroke:#000000;stroke-linecap:square;stroke-linejoin:miter;stroke-width:0.8;"/>
   </g>
   <g id="text_15">
    <!-- ROC curve for Recidivism -->
    <defs>
     <path d="M 44.390625 34.1875 
Q 47.5625 33.109375 50.5625 29.59375 
Q 53.5625 26.078125 56.59375 19.921875 
L 66.609375 0 
L 56 0 
L 46.6875 18.703125 
Q 43.0625 26.03125 39.671875 28.421875 
Q 36.28125 30.8125 30.421875 30.8125 
L 19.671875 30.8125 
L 19.671875 0 
L 9.8125 0 
L 9.8125 72.90625 
L 32.078125 72.90625 
Q 44.578125 72.90625 50.734375 67.671875 
Q 56.890625 62.453125 56.890625 51.90625 
Q 56.890625 45.015625 53.6875 40.46875 
Q 50.484375 35.9375 44.390625 34.1875 
z
M 19.671875 64.796875 
L 19.671875 38.921875 
L 32.078125 38.921875 
Q 39.203125 38.921875 42.84375 42.21875 
Q 46.484375 45.515625 46.484375 51.90625 
Q 46.484375 58.296875 42.84375 61.546875 
Q 39.203125 64.796875 32.078125 64.796875 
z
" id="DejaVuSans-82"/>
     <path d="M 39.40625 66.21875 
Q 28.65625 66.21875 22.328125 58.203125 
Q 16.015625 50.203125 16.015625 36.375 
Q 16.015625 22.609375 22.328125 14.59375 
Q 28.65625 6.59375 39.40625 6.59375 
Q 50.140625 6.59375 56.421875 14.59375 
Q 62.703125 22.609375 62.703125 36.375 
Q 62.703125 50.203125 56.421875 58.203125 
Q 50.140625 66.21875 39.40625 66.21875 
z
M 39.40625 74.21875 
Q 54.734375 74.21875 63.90625 63.9375 
Q 73.09375 53.65625 73.09375 36.375 
Q 73.09375 19.140625 63.90625 8.859375 
Q 54.734375 -1.421875 39.40625 -1.421875 
Q 24.03125 -1.421875 14.8125 8.828125 
Q 5.609375 19.09375 5.609375 36.375 
Q 5.609375 53.65625 14.8125 63.9375 
Q 24.03125 74.21875 39.40625 74.21875 
z
" id="DejaVuSans-79"/>
     <path d="M 64.40625 67.28125 
L 64.40625 56.890625 
Q 59.421875 61.53125 53.78125 63.8125 
Q 48.140625 66.109375 41.796875 66.109375 
Q 29.296875 66.109375 22.65625 58.46875 
Q 16.015625 50.828125 16.015625 36.375 
Q 16.015625 21.96875 22.65625 14.328125 
Q 29.296875 6.6875 41.796875 6.6875 
Q 48.140625 6.6875 53.78125 8.984375 
Q 59.421875 11.28125 64.40625 15.921875 
L 64.40625 5.609375 
Q 59.234375 2.09375 53.4375 0.328125 
Q 47.65625 -1.421875 41.21875 -1.421875 
Q 24.65625 -1.421875 15.125 8.703125 
Q 5.609375 18.84375 5.609375 36.375 
Q 5.609375 53.953125 15.125 64.078125 
Q 24.65625 74.21875 41.21875 74.21875 
Q 47.75 74.21875 53.53125 72.484375 
Q 59.328125 70.75 64.40625 67.28125 
z
" id="DejaVuSans-67"/>
     <path d="M 48.78125 52.59375 
L 48.78125 44.1875 
Q 44.96875 46.296875 41.140625 47.34375 
Q 37.3125 48.390625 33.40625 48.390625 
Q 24.65625 48.390625 19.8125 42.84375 
Q 14.984375 37.3125 14.984375 27.296875 
Q 14.984375 17.28125 19.8125 11.734375 
Q 24.65625 6.203125 33.40625 6.203125 
Q 37.3125 6.203125 41.140625 7.25 
Q 44.96875 8.296875 48.78125 10.40625 
L 48.78125 2.09375 
Q 45.015625 0.34375 40.984375 -0.53125 
Q 36.96875 -1.421875 32.421875 -1.421875 
Q 20.0625 -1.421875 12.78125 6.34375 
Q 5.515625 14.109375 5.515625 27.296875 
Q 5.515625 40.671875 12.859375 48.328125 
Q 20.21875 56 33.015625 56 
Q 37.15625 56 41.109375 55.140625 
Q 45.0625 54.296875 48.78125 52.59375 
z
" id="DejaVuSans-99"/>
     <path d="M 37.109375 75.984375 
L 37.109375 68.5 
L 28.515625 68.5 
Q 23.6875 68.5 21.796875 66.546875 
Q 19.921875 64.59375 19.921875 59.515625 
L 19.921875 54.6875 
L 34.71875 54.6875 
L 34.71875 47.703125 
L 19.921875 47.703125 
L 19.921875 0 
L 10.890625 0 
L 10.890625 47.703125 
L 2.296875 47.703125 
L 2.296875 54.6875 
L 10.890625 54.6875 
L 10.890625 58.5 
Q 10.890625 67.625 15.140625 71.796875 
Q 19.390625 75.984375 28.609375 75.984375 
z
" id="DejaVuSans-102"/>
     <path d="M 45.40625 46.390625 
L 45.40625 75.984375 
L 54.390625 75.984375 
L 54.390625 0 
L 45.40625 0 
L 45.40625 8.203125 
Q 42.578125 3.328125 38.25 0.953125 
Q 33.9375 -1.421875 27.875 -1.421875 
Q 17.96875 -1.421875 11.734375 6.484375 
Q 5.515625 14.40625 5.515625 27.296875 
Q 5.515625 40.1875 11.734375 48.09375 
Q 17.96875 56 27.875 56 
Q 33.9375 56 38.25 53.625 
Q 42.578125 51.265625 45.40625 46.390625 
z
M 14.796875 27.296875 
Q 14.796875 17.390625 18.875 11.75 
Q 22.953125 6.109375 30.078125 6.109375 
Q 37.203125 6.109375 41.296875 11.75 
Q 45.40625 17.390625 45.40625 27.296875 
Q 45.40625 37.203125 41.296875 42.84375 
Q 37.203125 48.484375 30.078125 48.484375 
Q 22.953125 48.484375 18.875 42.84375 
Q 14.796875 37.203125 14.796875 27.296875 
z
" id="DejaVuSans-100"/>
     <path d="M 52 44.1875 
Q 55.375 50.25 60.0625 53.125 
Q 64.75 56 71.09375 56 
Q 79.640625 56 84.28125 50.015625 
Q 88.921875 44.046875 88.921875 33.015625 
L 88.921875 0 
L 79.890625 0 
L 79.890625 32.71875 
Q 79.890625 40.578125 77.09375 44.375 
Q 74.3125 48.1875 68.609375 48.1875 
Q 61.625 48.1875 57.5625 43.546875 
Q 53.515625 38.921875 53.515625 30.90625 
L 53.515625 0 
L 44.484375 0 
L 44.484375 32.71875 
Q 44.484375 40.625 41.703125 44.40625 
Q 38.921875 48.1875 33.109375 48.1875 
Q 26.21875 48.1875 22.15625 43.53125 
Q 18.109375 38.875 18.109375 30.90625 
L 18.109375 0 
L 9.078125 0 
L 9.078125 54.6875 
L 18.109375 54.6875 
L 18.109375 46.1875 
Q 21.1875 51.21875 25.484375 53.609375 
Q 29.78125 56 35.6875 56 
Q 41.65625 56 45.828125 52.96875 
Q 50 49.953125 52 44.1875 
z
" id="DejaVuSans-109"/>
    </defs>
    <g transform="translate(145.049062 28.56)scale(0.12 -0.12)">
     <use xlink:href="#DejaVuSans-82"/>
     <use x="69.482422" xlink:href="#DejaVuSans-79"/>
     <use x="148.193359" xlink:href="#DejaVuSans-67"/>
     <use x="218.017578" xlink:href="#DejaVuSans-32"/>
     <use x="249.804688" xlink:href="#DejaVuSans-99"/>
     <use x="304.785156" xlink:href="#DejaVuSans-117"/>
     <use x="368.164062" xlink:href="#DejaVuSans-114"/>
     <use x="409.277344" xlink:href="#DejaVuSans-118"/>
     <use x="468.457031" xlink:href="#DejaVuSans-101"/>
     <use x="529.980469" xlink:href="#DejaVuSans-32"/>
     <use x="561.767578" xlink:href="#DejaVuSans-102"/>
     <use x="596.972656" xlink:href="#DejaVuSans-111"/>
     <use x="658.154297" xlink:href="#DejaVuSans-114"/>
     <use x="699.267578" xlink:href="#DejaVuSans-32"/>
     <use x="731.054688" xlink:href="#DejaVuSans-82"/>
     <use x="800.474609" xlink:href="#DejaVuSans-101"/>
     <use x="861.998047" xlink:href="#DejaVuSans-99"/>
     <use x="916.978516" xlink:href="#DejaVuSans-105"/>
     <use x="944.761719" xlink:href="#DejaVuSans-100"/>
     <use x="1008.238281" xlink:href="#DejaVuSans-105"/>
     <use x="1036.021484" xlink:href="#DejaVuSans-118"/>
     <use x="1095.201172" xlink:href="#DejaVuSans-105"/>
     <use x="1122.984375" xlink:href="#DejaVuSans-115"/>
     <use x="1175.083984" xlink:href="#DejaVuSans-109"/>
    </g>
   </g>
  </g>
 </g>
 <defs>
  <clipPath id="pf7c02e4a35">
   <rect height="217.44" width="334.8" x="54" y="34.56"/>
  </clipPath>
 </defs>
</svg>
