<?xml version="1.0" encoding="utf-8" standalone="no"?>
<!DOCTYPE svg PUBLIC "-//W3C//DTD SVG 1.1//EN"
  "http://www.w3.org/Graphics/SVG/1.1/DTD/svg11.dtd">
<!-- Created with matplotlib (https://matplotlib.org/) -->
<svg height="288pt" version="1.1" viewBox="0 0 432 288" width="432pt" xmlns="http://www.w3.org/2000/svg" xmlns:xlink="http://www.w3.org/1999/xlink">
 <defs>
  <style type="text/css">
*{stroke-linecap:butt;stroke-linejoin:round;}
  </style>
 </defs>
 <g id="figure_1">
  <g id="patch_1">
   <path d="M 0 288 
L 432 288 
L 432 0 
L 0 0 
z
" style="fill:#ffffff;"/>
  </g>
  <g id="axes_1">
   <g id="patch_2">
    <path d="M 54 252 
L 388.8 252 
L 388.8 34.56 
L 54 34.56 
z
" style="fill:#ffffff;"/>
   </g>
   <g id="matplotlib.axis_1">
    <g id="xtick_1">
     <g id="line2d_1">
      <defs>
       <path d="M 0 0 
L 0 3.5 
" id="meac4684aa4" style="stroke:#000000;stroke-width:0.8;"/>
      </defs>
      <g>
       <use style="stroke:#000000;stroke-width:0.8;" x="69.218182" xlink:href="#meac4684aa4" y="252"/>
      </g>
     </g>
     <g id="text_1">
      <!-- 0.0 -->
      <defs>
       <path d="M 31.78125 66.40625 
Q 24.171875 66.40625 20.328125 58.90625 
Q 16.5 51.421875 16.5 36.375 
Q 16.5 21.390625 20.328125 13.890625 
Q 24.171875 6.390625 31.78125 6.390625 
Q 39.453125 6.390625 43.28125 13.890625 
Q 47.125 21.390625 47.125 36.375 
Q 47.125 51.421875 43.28125 58.90625 
Q 39.453125 66.40625 31.78125 66.40625 
z
M 31.78125 74.21875 
Q 44.046875 74.21875 50.515625 64.515625 
Q 56.984375 54.828125 56.984375 36.375 
Q 56.984375 17.96875 50.515625 8.265625 
Q 44.046875 -1.421875 31.78125 -1.421875 
Q 19.53125 -1.421875 13.0625 8.265625 
Q 6.59375 17.96875 6.59375 36.375 
Q 6.59375 54.828125 13.0625 64.515625 
Q 19.53125 74.21875 31.78125 74.21875 
z
" id="DejaVuSans-48"/>
       <path d="M 10.6875 12.40625 
L 21 12.40625 
L 21 0 
L 10.6875 0 
z
" id="DejaVuSans-46"/>
      </defs>
      <g transform="translate(61.266619 266.598437)scale(0.1 -0.1)">
       <use xlink:href="#DejaVuSans-48"/>
       <use x="63.623047" xlink:href="#DejaVuSans-46"/>
       <use x="95.410156" xlink:href="#DejaVuSans-48"/>
      </g>
     </g>
    </g>
    <g id="xtick_2">
     <g id="line2d_2">
      <g>
       <use style="stroke:#000000;stroke-width:0.8;" x="130.090909" xlink:href="#meac4684aa4" y="252"/>
      </g>
     </g>
     <g id="text_2">
      <!-- 0.2 -->
      <defs>
       <path d="M 19.1875 8.296875 
L 53.609375 8.296875 
L 53.609375 0 
L 7.328125 0 
L 7.328125 8.296875 
Q 12.9375 14.109375 22.625 23.890625 
Q 32.328125 33.6875 34.8125 36.53125 
Q 39.546875 41.84375 41.421875 45.53125 
Q 43.3125 49.21875 43.3125 52.78125 
Q 43.3125 58.59375 39.234375 62.25 
Q 35.15625 65.921875 28.609375 65.921875 
Q 23.96875 65.921875 18.8125 64.3125 
Q 13.671875 62.703125 7.8125 59.421875 
L 7.8125 69.390625 
Q 13.765625 71.78125 18.9375 73 
Q 24.125 74.21875 28.421875 74.21875 
Q 39.75 74.21875 46.484375 68.546875 
Q 53.21875 62.890625 53.21875 53.421875 
Q 53.21875 48.921875 51.53125 44.890625 
Q 49.859375 40.875 45.40625 35.40625 
Q 44.1875 33.984375 37.640625 27.21875 
Q 31.109375 20.453125 19.1875 8.296875 
z
" id="DejaVuSans-50"/>
      </defs>
      <g transform="translate(122.139347 266.598437)scale(0.1 -0.1)">
       <use xlink:href="#DejaVuSans-48"/>
       <use x="63.623047" xlink:href="#DejaVuSans-46"/>
       <use x="95.410156" xlink:href="#DejaVuSans-50"/>
      </g>
     </g>
    </g>
    <g id="xtick_3">
     <g id="line2d_3">
      <g>
       <use style="stroke:#000000;stroke-width:0.8;" x="190.963636" xlink:href="#meac4684aa4" y="252"/>
      </g>
     </g>
     <g id="text_3">
      <!-- 0.4 -->
      <defs>
       <path d="M 37.796875 64.3125 
L 12.890625 25.390625 
L 37.796875 25.390625 
z
M 35.203125 72.90625 
L 47.609375 72.90625 
L 47.609375 25.390625 
L 58.015625 25.390625 
L 58.015625 17.1875 
L 47.609375 17.1875 
L 47.609375 0 
L 37.796875 0 
L 37.796875 17.1875 
L 4.890625 17.1875 
L 4.890625 26.703125 
z
" id="DejaVuSans-52"/>
      </defs>
      <g transform="translate(183.012074 266.598437)scale(0.1 -0.1)">
       <use xlink:href="#DejaVuSans-48"/>
       <use x="63.623047" xlink:href="#DejaVuSans-46"/>
       <use x="95.410156" xlink:href="#DejaVuSans-52"/>
      </g>
     </g>
    </g>
    <g id="xtick_4">
     <g id="line2d_4">
      <g>
       <use style="stroke:#000000;stroke-width:0.8;" x="251.836364" xlink:href="#meac4684aa4" y="252"/>
      </g>
     </g>
     <g id="text_4">
      <!-- 0.6 -->
      <defs>
       <path d="M 33.015625 40.375 
Q 26.375 40.375 22.484375 35.828125 
Q 18.609375 31.296875 18.609375 23.390625 
Q 18.609375 15.53125 22.484375 10.953125 
Q 26.375 6.390625 33.015625 6.390625 
Q 39.65625 6.390625 43.53125 10.953125 
Q 47.40625 15.53125 47.40625 23.390625 
Q 47.40625 31.296875 43.53125 35.828125 
Q 39.65625 40.375 33.015625 40.375 
z
M 52.59375 71.296875 
L 52.59375 62.3125 
Q 48.875 64.0625 45.09375 64.984375 
Q 41.3125 65.921875 37.59375 65.921875 
Q 27.828125 65.921875 22.671875 59.328125 
Q 17.53125 52.734375 16.796875 39.40625 
Q 19.671875 43.65625 24.015625 45.921875 
Q 28.375 48.1875 33.59375 48.1875 
Q 44.578125 48.1875 50.953125 41.515625 
Q 57.328125 34.859375 57.328125 23.390625 
Q 57.328125 12.15625 50.6875 5.359375 
Q 44.046875 -1.421875 33.015625 -1.421875 
Q 20.359375 -1.421875 13.671875 8.265625 
Q 6.984375 17.96875 6.984375 36.375 
Q 6.984375 53.65625 15.1875 63.9375 
Q 23.390625 74.21875 37.203125 74.21875 
Q 40.921875 74.21875 44.703125 73.484375 
Q 48.484375 72.75 52.59375 71.296875 
z
" id="DejaVuSans-54"/>
      </defs>
      <g transform="translate(243.884801 266.598437)scale(0.1 -0.1)">
       <use xlink:href="#DejaVuSans-48"/>
       <use x="63.623047" xlink:href="#DejaVuSans-46"/>
       <use x="95.410156" xlink:href="#DejaVuSans-54"/>
      </g>
     </g>
    </g>
    <g id="xtick_5">
     <g id="line2d_5">
      <g>
       <use style="stroke:#000000;stroke-width:0.8;" x="312.709091" xlink:href="#meac4684aa4" y="252"/>
      </g>
     </g>
     <g id="text_5">
      <!-- 0.8 -->
      <defs>
       <path d="M 31.78125 34.625 
Q 24.75 34.625 20.71875 30.859375 
Q 16.703125 27.09375 16.703125 20.515625 
Q 16.703125 13.921875 20.71875 10.15625 
Q 24.75 6.390625 31.78125 6.390625 
Q 38.8125 6.390625 42.859375 10.171875 
Q 46.921875 13.96875 46.921875 20.515625 
Q 46.921875 27.09375 42.890625 30.859375 
Q 38.875 34.625 31.78125 34.625 
z
M 21.921875 38.8125 
Q 15.578125 40.375 12.03125 44.71875 
Q 8.5 49.078125 8.5 55.328125 
Q 8.5 64.0625 14.71875 69.140625 
Q 20.953125 74.21875 31.78125 74.21875 
Q 42.671875 74.21875 48.875 69.140625 
Q 55.078125 64.0625 55.078125 55.328125 
Q 55.078125 49.078125 51.53125 44.71875 
Q 48 40.375 41.703125 38.8125 
Q 48.828125 37.15625 52.796875 32.3125 
Q 56.78125 27.484375 56.78125 20.515625 
Q 56.78125 9.90625 50.3125 4.234375 
Q 43.84375 -1.421875 31.78125 -1.421875 
Q 19.734375 -1.421875 13.25 4.234375 
Q 6.78125 9.90625 6.78125 20.515625 
Q 6.78125 27.484375 10.78125 32.3125 
Q 14.796875 37.15625 21.921875 38.8125 
z
M 18.3125 54.390625 
Q 18.3125 48.734375 21.84375 45.5625 
Q 25.390625 42.390625 31.78125 42.390625 
Q 38.140625 42.390625 41.71875 45.5625 
Q 45.3125 48.734375 45.3125 54.390625 
Q 45.3125 60.0625 41.71875 63.234375 
Q 38.140625 66.40625 31.78125 66.40625 
Q 25.390625 66.40625 21.84375 63.234375 
Q 18.3125 60.0625 18.3125 54.390625 
z
" id="DejaVuSans-56"/>
      </defs>
      <g transform="translate(304.757528 266.598437)scale(0.1 -0.1)">
       <use xlink:href="#DejaVuSans-48"/>
       <use x="63.623047" xlink:href="#DejaVuSans-46"/>
       <use x="95.410156" xlink:href="#DejaVuSans-56"/>
      </g>
     </g>
    </g>
    <g id="xtick_6">
     <g id="line2d_6">
      <g>
       <use style="stroke:#000000;stroke-width:0.8;" x="373.581818" xlink:href="#meac4684aa4" y="252"/>
      </g>
     </g>
     <g id="text_6">
      <!-- 1.0 -->
      <defs>
       <path d="M 12.40625 8.296875 
L 28.515625 8.296875 
L 28.515625 63.921875 
L 10.984375 60.40625 
L 10.984375 69.390625 
L 28.421875 72.90625 
L 38.28125 72.90625 
L 38.28125 8.296875 
L 54.390625 8.296875 
L 54.390625 0 
L 12.40625 0 
z
" id="DejaVuSans-49"/>
      </defs>
      <g transform="translate(365.630256 266.598437)scale(0.1 -0.1)">
       <use xlink:href="#DejaVuSans-49"/>
       <use x="63.623047" xlink:href="#DejaVuSans-46"/>
       <use x="95.410156" xlink:href="#DejaVuSans-48"/>
      </g>
     </g>
    </g>
    <g id="text_7">
     <!-- False positive rate -->
     <defs>
      <path d="M 9.8125 72.90625 
L 51.703125 72.90625 
L 51.703125 64.59375 
L 19.671875 64.59375 
L 19.671875 43.109375 
L 48.578125 43.109375 
L 48.578125 34.8125 
L 19.671875 34.8125 
L 19.671875 0 
L 9.8125 0 
z
" id="DejaVuSans-70"/>
      <path d="M 34.28125 27.484375 
Q 23.390625 27.484375 19.1875 25 
Q 14.984375 22.515625 14.984375 16.5 
Q 14.984375 11.71875 18.140625 8.90625 
Q 21.296875 6.109375 26.703125 6.109375 
Q 34.1875 6.109375 38.703125 11.40625 
Q 43.21875 16.703125 43.21875 25.484375 
L 43.21875 27.484375 
z
M 52.203125 31.203125 
L 52.203125 0 
L 43.21875 0 
L 43.21875 8.296875 
Q 40.140625 3.328125 35.546875 0.953125 
Q 30.953125 -1.421875 24.3125 -1.421875 
Q 15.921875 -1.421875 10.953125 3.296875 
Q 6 8.015625 6 15.921875 
Q 6 25.140625 12.171875 29.828125 
Q 18.359375 34.515625 30.609375 34.515625 
L 43.21875 34.515625 
L 43.21875 35.40625 
Q 43.21875 41.609375 39.140625 45 
Q 35.0625 48.390625 27.6875 48.390625 
Q 23 48.390625 18.546875 47.265625 
Q 14.109375 46.140625 10.015625 43.890625 
L 10.015625 52.203125 
Q 14.9375 54.109375 19.578125 55.046875 
Q 24.21875 56 28.609375 56 
Q 40.484375 56 46.34375 49.84375 
Q 52.203125 43.703125 52.203125 31.203125 
z
" id="DejaVuSans-97"/>
      <path d="M 9.421875 75.984375 
L 18.40625 75.984375 
L 18.40625 0 
L 9.421875 0 
z
" id="DejaVuSans-108"/>
      <path d="M 44.28125 53.078125 
L 44.28125 44.578125 
Q 40.484375 46.53125 36.375 47.5 
Q 32.28125 48.484375 27.875 48.484375 
Q 21.1875 48.484375 17.84375 46.4375 
Q 14.5 44.390625 14.5 40.28125 
Q 14.5 37.15625 16.890625 35.375 
Q 19.28125 33.59375 26.515625 31.984375 
L 29.59375 31.296875 
Q 39.15625 29.25 43.1875 25.515625 
Q 47.21875 21.78125 47.21875 15.09375 
Q 47.21875 7.46875 41.1875 3.015625 
Q 35.15625 -1.421875 24.609375 -1.421875 
Q 20.21875 -1.421875 15.453125 -0.5625 
Q 10.6875 0.296875 5.421875 2 
L 5.421875 11.28125 
Q 10.40625 8.6875 15.234375 7.390625 
Q 20.0625 6.109375 24.8125 6.109375 
Q 31.15625 6.109375 34.5625 8.28125 
Q 37.984375 10.453125 37.984375 14.40625 
Q 37.984375 18.0625 35.515625 20.015625 
Q 33.0625 21.96875 24.703125 23.78125 
L 21.578125 24.515625 
Q 13.234375 26.265625 9.515625 29.90625 
Q 5.8125 33.546875 5.8125 39.890625 
Q 5.8125 47.609375 11.28125 51.796875 
Q 16.75 56 26.8125 56 
Q 31.78125 56 36.171875 55.265625 
Q 40.578125 54.546875 44.28125 53.078125 
z
" id="DejaVuSans-115"/>
      <path d="M 56.203125 29.59375 
L 56.203125 25.203125 
L 14.890625 25.203125 
Q 15.484375 15.921875 20.484375 11.0625 
Q 25.484375 6.203125 34.421875 6.203125 
Q 39.59375 6.203125 44.453125 7.46875 
Q 49.3125 8.734375 54.109375 11.28125 
L 54.109375 2.78125 
Q 49.265625 0.734375 44.1875 -0.34375 
Q 39.109375 -1.421875 33.890625 -1.421875 
Q 20.796875 -1.421875 13.15625 6.1875 
Q 5.515625 13.8125 5.515625 26.8125 
Q 5.515625 40.234375 12.765625 48.109375 
Q 20.015625 56 32.328125 56 
Q 43.359375 56 49.78125 48.890625 
Q 56.203125 41.796875 56.203125 29.59375 
z
M 47.21875 32.234375 
Q 47.125 39.59375 43.09375 43.984375 
Q 39.0625 48.390625 32.421875 48.390625 
Q 24.90625 48.390625 20.390625 44.140625 
Q 15.875 39.890625 15.1875 32.171875 
z
" id="DejaVuSans-101"/>
      <path id="DejaVuSans-32"/>
      <path d="M 18.109375 8.203125 
L 18.109375 -20.796875 
L 9.078125 -20.796875 
L 9.078125 54.6875 
L 18.109375 54.6875 
L 18.109375 46.390625 
Q 20.953125 51.265625 25.265625 53.625 
Q 29.59375 56 35.59375 56 
Q 45.5625 56 51.78125 48.09375 
Q 58.015625 40.1875 58.015625 27.296875 
Q 58.015625 14.40625 51.78125 6.484375 
Q 45.5625 -1.421875 35.59375 -1.421875 
Q 29.59375 -1.421875 25.265625 0.953125 
Q 20.953125 3.328125 18.109375 8.203125 
z
M 48.6875 27.296875 
Q 48.6875 37.203125 44.609375 42.84375 
Q 40.53125 48.484375 33.40625 48.484375 
Q 26.265625 48.484375 22.1875 42.84375 
Q 18.109375 37.203125 18.109375 27.296875 
Q 18.109375 17.390625 22.1875 11.75 
Q 26.265625 6.109375 33.40625 6.109375 
Q 40.53125 6.109375 44.609375 11.75 
Q 48.6875 17.390625 48.6875 27.296875 
z
" id="DejaVuSans-112"/>
      <path d="M 30.609375 48.390625 
Q 23.390625 48.390625 19.1875 42.75 
Q 14.984375 37.109375 14.984375 27.296875 
Q 14.984375 17.484375 19.15625 11.84375 
Q 23.34375 6.203125 30.609375 6.203125 
Q 37.796875 6.203125 41.984375 11.859375 
Q 46.1875 17.53125 46.1875 27.296875 
Q 46.1875 37.015625 41.984375 42.703125 
Q 37.796875 48.390625 30.609375 48.390625 
z
M 30.609375 56 
Q 42.328125 56 49.015625 48.375 
Q 55.71875 40.765625 55.71875 27.296875 
Q 55.71875 13.875 49.015625 6.21875 
Q 42.328125 -1.421875 30.609375 -1.421875 
Q 18.84375 -1.421875 12.171875 6.21875 
Q 5.515625 13.875 5.515625 27.296875 
Q 5.515625 40.765625 12.171875 48.375 
Q 18.84375 56 30.609375 56 
z
" id="DejaVuSans-111"/>
      <path d="M 9.421875 54.6875 
L 18.40625 54.6875 
L 18.40625 0 
L 9.421875 0 
z
M 9.421875 75.984375 
L 18.40625 75.984375 
L 18.40625 64.59375 
L 9.421875 64.59375 
z
" id="DejaVuSans-105"/>
      <path d="M 18.3125 70.21875 
L 18.3125 54.6875 
L 36.8125 54.6875 
L 36.8125 47.703125 
L 18.3125 47.703125 
L 18.3125 18.015625 
Q 18.3125 11.328125 20.140625 9.421875 
Q 21.96875 7.515625 27.59375 7.515625 
L 36.8125 7.515625 
L 36.8125 0 
L 27.59375 0 
Q 17.1875 0 13.234375 3.875 
Q 9.28125 7.765625 9.28125 18.015625 
L 9.28125 47.703125 
L 2.6875 47.703125 
L 2.6875 54.6875 
L 9.28125 54.6875 
L 9.28125 70.21875 
z
" id="DejaVuSans-116"/>
      <path d="M 2.984375 54.6875 
L 12.5 54.6875 
L 29.59375 8.796875 
L 46.6875 54.6875 
L 56.203125 54.6875 
L 35.6875 0 
L 23.484375 0 
z
" id="DejaVuSans-118"/>
      <path d="M 41.109375 46.296875 
Q 39.59375 47.171875 37.8125 47.578125 
Q 36.03125 48 33.890625 48 
Q 26.265625 48 22.1875 43.046875 
Q 18.109375 38.09375 18.109375 28.8125 
L 18.109375 0 
L 9.078125 0 
L 9.078125 54.6875 
L 18.109375 54.6875 
L 18.109375 46.1875 
Q 20.953125 51.171875 25.484375 53.578125 
Q 30.03125 56 36.53125 56 
Q 37.453125 56 38.578125 55.875 
Q 39.703125 55.765625 41.0625 55.515625 
z
" id="DejaVuSans-114"/>
     </defs>
     <g transform="translate(175.45 280.276563)scale(0.1 -0.1)">
      <use xlink:href="#DejaVuSans-70"/>
      <use x="57.378906" xlink:href="#DejaVuSans-97"/>
      <use x="118.658203" xlink:href="#DejaVuSans-108"/>
      <use x="146.441406" xlink:href="#DejaVuSans-115"/>
      <use x="198.541016" xlink:href="#DejaVuSans-101"/>
      <use x="260.064453" xlink:href="#DejaVuSans-32"/>
      <use x="291.851562" xlink:href="#DejaVuSans-112"/>
      <use x="355.328125" xlink:href="#DejaVuSans-111"/>
      <use x="416.509766" xlink:href="#DejaVuSans-115"/>
      <use x="468.609375" xlink:href="#DejaVuSans-105"/>
      <use x="496.392578" xlink:href="#DejaVuSans-116"/>
      <use x="535.601562" xlink:href="#DejaVuSans-105"/>
      <use x="563.384766" xlink:href="#DejaVuSans-118"/>
      <use x="622.564453" xlink:href="#DejaVuSans-101"/>
      <use x="684.087891" xlink:href="#DejaVuSans-32"/>
      <use x="715.875" xlink:href="#DejaVuSans-114"/>
      <use x="756.988281" xlink:href="#DejaVuSans-97"/>
      <use x="818.267578" xlink:href="#DejaVuSans-116"/>
      <use x="857.476562" xlink:href="#DejaVuSans-101"/>
     </g>
    </g>
   </g>
   <g id="matplotlib.axis_2">
    <g id="ytick_1">
     <g id="line2d_7">
      <defs>
       <path d="M 0 0 
L -3.5 0 
" id="m4bc0fc6612" style="stroke:#000000;stroke-width:0.8;"/>
      </defs>
      <g>
       <use style="stroke:#000000;stroke-width:0.8;" x="54" xlink:href="#m4bc0fc6612" y="242.116364"/>
      </g>
     </g>
     <g id="text_8">
      <!-- 0.0 -->
      <g transform="translate(31.096875 245.915582)scale(0.1 -0.1)">
       <use xlink:href="#DejaVuSans-48"/>
       <use x="63.623047" xlink:href="#DejaVuSans-46"/>
       <use x="95.410156" xlink:href="#DejaVuSans-48"/>
      </g>
     </g>
    </g>
    <g id="ytick_2">
     <g id="line2d_8">
      <g>
       <use style="stroke:#000000;stroke-width:0.8;" x="54" xlink:href="#m4bc0fc6612" y="202.581818"/>
      </g>
     </g>
     <g id="text_9">
      <!-- 0.2 -->
      <g transform="translate(31.096875 206.381037)scale(0.1 -0.1)">
       <use xlink:href="#DejaVuSans-48"/>
       <use x="63.623047" xlink:href="#DejaVuSans-46"/>
       <use x="95.410156" xlink:href="#DejaVuSans-50"/>
      </g>
     </g>
    </g>
    <g id="ytick_3">
     <g id="line2d_9">
      <g>
       <use style="stroke:#000000;stroke-width:0.8;" x="54" xlink:href="#m4bc0fc6612" y="163.047273"/>
      </g>
     </g>
     <g id="text_10">
      <!-- 0.4 -->
      <g transform="translate(31.096875 166.846491)scale(0.1 -0.1)">
       <use xlink:href="#DejaVuSans-48"/>
       <use x="63.623047" xlink:href="#DejaVuSans-46"/>
       <use x="95.410156" xlink:href="#DejaVuSans-52"/>
      </g>
     </g>
    </g>
    <g id="ytick_4">
     <g id="line2d_10">
      <g>
       <use style="stroke:#000000;stroke-width:0.8;" x="54" xlink:href="#m4bc0fc6612" y="123.512727"/>
      </g>
     </g>
     <g id="text_11">
      <!-- 0.6 -->
      <g transform="translate(31.096875 127.311946)scale(0.1 -0.1)">
       <use xlink:href="#DejaVuSans-48"/>
       <use x="63.623047" xlink:href="#DejaVuSans-46"/>
       <use x="95.410156" xlink:href="#DejaVuSans-54"/>
      </g>
     </g>
    </g>
    <g id="ytick_5">
     <g id="line2d_11">
      <g>
       <use style="stroke:#000000;stroke-width:0.8;" x="54" xlink:href="#m4bc0fc6612" y="83.978182"/>
      </g>
     </g>
     <g id="text_12">
      <!-- 0.8 -->
      <g transform="translate(31.096875 87.777401)scale(0.1 -0.1)">
       <use xlink:href="#DejaVuSans-48"/>
       <use x="63.623047" xlink:href="#DejaVuSans-46"/>
       <use x="95.410156" xlink:href="#DejaVuSans-56"/>
      </g>
     </g>
    </g>
    <g id="ytick_6">
     <g id="line2d_12">
      <g>
       <use style="stroke:#000000;stroke-width:0.8;" x="54" xlink:href="#m4bc0fc6612" y="44.443636"/>
      </g>
     </g>
     <g id="text_13">
      <!-- 1.0 -->
      <g transform="translate(31.096875 48.242855)scale(0.1 -0.1)">
       <use xlink:href="#DejaVuSans-49"/>
       <use x="63.623047" xlink:href="#DejaVuSans-46"/>
       <use x="95.410156" xlink:href="#DejaVuSans-48"/>
      </g>
     </g>
    </g>
    <g id="text_14">
     <!-- True positive rate -->
     <defs>
      <path d="M -0.296875 72.90625 
L 61.375 72.90625 
L 61.375 64.59375 
L 35.5 64.59375 
L 35.5 0 
L 25.59375 0 
L 25.59375 64.59375 
L -0.296875 64.59375 
z
" id="DejaVuSans-84"/>
      <path d="M 8.5 21.578125 
L 8.5 54.6875 
L 17.484375 54.6875 
L 17.484375 21.921875 
Q 17.484375 14.15625 20.5 10.265625 
Q 23.53125 6.390625 29.59375 6.390625 
Q 36.859375 6.390625 41.078125 11.03125 
Q 45.3125 15.671875 45.3125 23.6875 
L 45.3125 54.6875 
L 54.296875 54.6875 
L 54.296875 0 
L 45.3125 0 
L 45.3125 8.40625 
Q 42.046875 3.421875 37.71875 1 
Q 33.40625 -1.421875 27.6875 -1.421875 
Q 18.265625 -1.421875 13.375 4.4375 
Q 8.5 10.296875 8.5 21.578125 
z
M 31.109375 56 
z
" id="DejaVuSans-117"/>
     </defs>
     <g transform="translate(25.017187 187.570625)rotate(-90)scale(0.1 -0.1)">
      <use xlink:href="#DejaVuSans-84"/>
      <use x="60.865234" xlink:href="#DejaVuSans-114"/>
      <use x="101.978516" xlink:href="#DejaVuSans-117"/>
      <use x="165.357422" xlink:href="#DejaVuSans-101"/>
      <use x="226.880859" xlink:href="#DejaVuSans-32"/>
      <use x="258.667969" xlink:href="#DejaVuSans-112"/>
      <use x="322.144531" xlink:href="#DejaVuSans-111"/>
      <use x="383.326172" xlink:href="#DejaVuSans-115"/>
      <use x="435.425781" xlink:href="#DejaVuSans-105"/>
      <use x="463.208984" xlink:href="#DejaVuSans-116"/>
      <use x="502.417969" xlink:href="#DejaVuSans-105"/>
      <use x="530.201172" xlink:href="#DejaVuSans-118"/>
      <use x="589.380859" xlink:href="#DejaVuSans-101"/>
      <use x="650.904297" xlink:href="#DejaVuSans-32"/>
      <use x="682.691406" xlink:href="#DejaVuSans-114"/>
      <use x="723.804688" xlink:href="#DejaVuSans-97"/>
      <use x="785.083984" xlink:href="#DejaVuSans-116"/>
      <use x="824.292969" xlink:href="#DejaVuSans-101"/>
     </g>
    </g>
   </g>
   <g id="line2d_13">
    <path clip-path="url(#p6f5888083b)" d="M 69.218182 242.116364 
L 69.604798 241.528402 
L 69.991414 240.822848 
L 70.088068 240.117294 
L 70.184722 240.117294 
L 70.281376 239.646924 
L 71.054609 239.646924 
L 71.054609 239.294147 
L 71.731187 239.294147 
L 71.827841 239.176555 
L 72.02115 239.176555 
L 72.02115 238.823778 
L 72.214458 238.823778 
L 72.311112 238.471001 
L 72.50442 238.471001 
L 72.794382 238.235816 
L 72.891036 237.530262 
L 73.084344 237.530262 
L 73.567615 237.41267 
L 73.760923 237.41267 
L 74.050885 237.059893 
L 74.244193 237.059893 
L 74.534155 236.942301 
L 74.534155 236.707116 
L 75.11408 236.707116 
L 75.210734 236.354339 
L 75.307388 236.236747 
L 75.500696 236.236747 
L 75.790658 236.119154 
L 75.790658 235.648785 
L 76.370582 235.296008 
L 76.56389 235.060823 
L 76.660544 234.943231 
L 76.660544 234.355269 
L 77.337123 233.767307 
L 77.337123 233.532123 
L 77.627085 233.061753 
L 77.723739 232.003422 
L 78.110355 232.003422 
L 78.110355 231.768238 
L 78.303664 231.768238 
L 78.303664 231.297868 
L 78.496972 231.297868 
L 78.69028 231.062683 
L 78.883588 231.062683 
L 78.980242 230.827499 
L 79.17355 230.827499 
L 79.17355 230.592314 
L 79.463512 229.651575 
L 79.560166 229.298798 
L 80.043437 229.298798 
L 80.043437 229.181206 
L 80.236745 229.181206 
L 80.333399 228.005283 
L 80.430053 228.005283 
L 80.526707 227.652506 
L 81.299939 226.594174 
L 81.299939 226.35899 
L 81.589902 226.006213 
L 81.78321 226.006213 
L 82.26648 224.595105 
L 82.556442 224.595105 
L 82.556442 224.35992 
L 82.653096 224.35992 
L 83.136367 223.183997 
L 84.006253 223.183997 
L 84.972794 222.008073 
L 85.069448 221.537704 
L 85.552718 221.537704 
L 85.649372 221.302519 
L 85.939334 221.302519 
L 86.422605 220.596965 
L 86.712567 220.479373 
L 86.712567 220.244188 
L 86.809221 220.244188 
L 87.002529 220.244188 
L 87.389145 219.891411 
L 87.679107 219.656226 
L 88.162378 218.480303 
L 88.742302 218.009933 
L 89.128918 218.009933 
L 89.128918 217.892341 
L 89.225572 217.892341 
L 89.41888 217.539564 
L 90.192113 216.481233 
L 90.192113 216.363641 
L 90.385421 216.363641 
L 90.385421 216.246048 
L 90.482075 216.246048 
L 90.868691 215.422902 
L 91.158654 215.187717 
L 91.54527 215.070125 
L 91.641924 214.599756 
L 91.835232 213.894202 
L 91.835232 213.30624 
L 91.931886 213.30624 
L 92.801773 212.83587 
L 92.801773 212.365501 
L 93.381697 212.247909 
L 93.478351 211.895132 
L 93.961621 211.777539 
L 94.058275 211.542355 
L 94.444892 211.30717 
L 94.831508 211.071985 
L 94.831508 210.954393 
L 94.928162 210.954393 
L 95.12147 210.719208 
L 95.411432 210.601616 
L 95.411432 210.248839 
L 95.701394 210.248839 
L 95.798048 209.425692 
L 96.957897 208.955323 
L 96.957897 208.249769 
L 97.247859 208.249769 
L 97.247859 207.7794 
L 97.344513 207.7794 
L 97.441167 207.661807 
L 97.924438 206.838661 
L 98.2144 206.721069 
L 98.2144 206.485884 
L 98.407708 206.485884 
L 98.407708 206.250699 
L 98.69767 206.015515 
L 98.890978 205.78033 
L 98.987632 205.309961 
L 99.180941 205.309961 
L 99.277595 204.839591 
L 99.374249 204.721999 
L 99.567557 204.251629 
L 99.857519 204.016445 
L 99.857519 203.546075 
L 100.437443 202.605337 
L 100.727406 202.605337 
L 100.727406 202.487744 
L 100.82406 202.487744 
L 101.7906 201.547006 
L 101.983908 201.547006 
L 102.177216 201.311821 
L 102.177216 200.959044 
L 102.27387 200.959044 
L 102.660487 200.606267 
L 103.530373 200.371082 
L 103.820335 200.135897 
L 104.110298 200.135897 
L 104.206952 199.547936 
L 104.40026 199.547936 
L 104.593568 199.195159 
L 104.690222 198.724789 
L 104.88353 198.724789 
L 105.3668 198.019235 
L 105.3668 197.901643 
L 105.560109 197.901643 
L 105.560109 197.784051 
L 105.850071 197.313681 
L 106.043379 197.313681 
L 106.816611 196.490535 
L 108.749693 194.961834 
L 108.943001 194.961834 
L 108.943001 194.844242 
L 111.166044 191.316472 
L 111.166044 191.081287 
L 111.262698 191.081287 
L 111.745968 190.846102 
L 111.745968 190.72851 
L 112.132585 190.022956 
L 112.132585 189.670179 
L 112.422547 189.670179 
L 112.809163 189.082217 
L 112.905817 189.082217 
L 113.002471 188.141479 
L 113.195779 188.141479 
L 113.195779 187.671109 
L 113.582396 187.671109 
L 113.67905 187.553517 
L 113.872358 187.553517 
L 113.969012 187.20074 
L 114.258974 187.20074 
L 114.838898 186.847963 
L 114.935552 185.789632 
L 115.128861 185.554447 
L 115.418823 185.084078 
L 115.418823 184.848893 
L 116.482017 183.67297 
L 116.482017 183.555377 
L 117.351904 183.2026 
L 117.351904 183.085008 
L 117.545212 182.849823 
L 117.545212 182.614638 
L 117.641866 182.614638 
L 117.835174 182.379454 
L 117.835174 182.144269 
L 118.318445 182.144269 
L 119.091677 181.909084 
L 119.091677 181.791492 
L 119.574947 181.085938 
L 119.768255 181.085938 
L 119.768255 180.968346 
L 119.864909 180.968346 
L 120.928104 179.204461 
L 121.218066 179.204461 
L 121.411374 179.086868 
L 121.701337 178.263722 
L 122.474569 176.617429 
L 122.957839 176.617429 
L 123.151148 176.14706 
L 123.344456 176.14706 
L 123.344456 176.029467 
L 123.44111 176.029467 
L 124.214342 174.853544 
L 124.214342 174.618359 
L 124.310996 174.618359 
L 124.40765 174.500767 
L 126.630694 172.736882 
L 126.630694 172.384105 
L 126.824002 172.384105 
L 126.920656 172.14892 
L 127.01731 172.14892 
L 127.01731 172.031328 
L 127.307272 172.031328 
L 127.403926 171.913735 
L 127.790542 171.913735 
L 128.273813 170.972997 
L 128.273813 170.62022 
L 128.660429 170.267443 
L 128.757083 170.032258 
L 128.853737 170.032258 
L 129.143699 169.797073 
L 129.433661 168.856334 
L 129.62697 168.856334 
L 130.400202 168.503557 
L 130.496856 168.15078 
L 130.59351 167.915596 
L 130.980126 167.562819 
L 131.946667 164.858195 
L 133.009862 163.917456 
L 133.106516 162.976717 
L 133.299824 162.976717 
L 133.299824 162.859125 
L 133.396478 162.859125 
L 133.976402 162.62394 
L 134.749635 161.800794 
L 134.846289 161.800794 
L 135.329559 161.565609 
L 135.329559 161.330425 
L 135.716175 160.507278 
L 136.006138 160.507278 
L 136.006138 160.389686 
L 136.586062 159.801724 
L 136.77937 159.566539 
L 136.876024 159.331355 
L 138.615797 158.508208 
L 138.615797 158.390616 
L 138.712451 158.390616 
L 139.485684 157.685062 
L 139.582338 157.56747 
L 140.35557 157.449877 
L 140.452224 157.0971 
L 140.742187 156.979508 
L 140.838841 156.744323 
L 143.4485 155.5684 
L 143.545154 155.215623 
L 143.641808 155.215623 
L 143.738462 154.745253 
L 143.931771 154.745253 
L 144.028425 154.510069 
L 144.221733 154.392476 
L 144.221733 154.157292 
L 145.091619 153.56933 
L 145.381581 153.216553 
L 145.864852 152.981368 
L 146.05816 152.628591 
L 146.251468 152.628591 
L 146.251468 152.510999 
L 146.54143 152.510999 
L 146.638084 152.040629 
L 146.928046 152.040629 
L 146.928046 151.923037 
L 147.314663 151.57026 
L 148.184549 150.394337 
L 150.020976 149.806375 
L 150.020976 149.688783 
L 150.600901 149.218413 
L 150.600901 148.865636 
L 150.794209 148.865636 
L 150.890863 148.630452 
L 151.180825 148.630452 
L 151.664095 148.395267 
L 151.760749 147.924898 
L 151.857404 147.924898 
L 153.403868 146.984159 
L 153.403868 146.513789 
L 153.887139 146.513789 
L 155.046987 145.455458 
L 155.82022 144.04435 
L 156.30349 143.809166 
L 157.753301 142.398057 
L 158.043263 142.398057 
L 158.526534 142.04528 
L 160.266307 140.398988 
L 161.619464 138.870287 
L 161.812772 138.870287 
L 161.812772 138.635102 
L 162.00608 138.047141 
L 162.296042 138.047141 
L 162.48935 137.811956 
L 162.48935 137.459179 
L 162.682658 137.223994 
L 163.455891 136.98881 
L 163.455891 136.753625 
L 163.745853 136.753625 
L 163.842507 136.636033 
L 164.132469 135.812886 
L 164.325777 135.812886 
L 164.325777 135.577702 
L 164.422431 135.577702 
L 164.519085 135.460109 
L 164.712394 134.872148 
L 164.905702 134.872148 
L 164.905702 134.636963 
L 166.162204 133.813816 
L 166.355513 133.813816 
L 166.645475 133.343447 
L 166.838783 133.343447 
L 166.838783 133.225855 
L 166.935437 133.225855 
L 167.225399 132.873078 
L 167.225399 132.637893 
L 167.418707 132.402708 
L 167.612015 132.402708 
L 167.612015 132.167524 
L 167.901978 131.932339 
L 168.288594 131.932339 
L 168.385248 131.697154 
L 168.67521 131.697154 
L 168.67521 131.46197 
L 169.061826 131.46197 
L 169.061826 131.344377 
L 170.414983 130.403639 
L 170.414983 130.168454 
L 170.704945 129.580492 
L 170.898253 129.580492 
L 170.898253 129.4629 
L 171.091562 129.4629 
L 172.058102 128.99253 
L 172.058102 128.874938 
L 172.831335 128.404569 
L 173.121297 128.404569 
L 173.121297 128.286976 
L 173.411259 128.169384 
L 173.507913 127.581422 
L 176.600843 123.112913 
L 176.794151 123.112913 
L 177.084113 122.877729 
L 177.180767 122.054582 
L 177.374075 122.054582 
L 177.567384 121.819398 
L 177.567384 121.584213 
L 178.243962 121.349028 
L 178.243962 121.113843 
L 178.533924 120.408289 
L 179.210503 120.408289 
L 179.403811 120.173105 
L 179.790427 119.93792 
L 179.887081 119.702735 
L 180.080389 119.702735 
L 180.853622 118.879589 
L 181.143584 118.879589 
L 181.240238 118.40922 
L 181.336892 118.40922 
L 181.723508 118.291627 
L 181.916816 118.291627 
L 182.110124 118.056443 
L 182.496741 118.056443 
L 182.496741 117.821258 
L 182.593395 117.821258 
L 185.009746 116.645334 
L 185.203054 116.41015 
L 185.686325 116.41015 
L 186.362903 115.587003 
L 187.039482 115.469411 
L 187.329444 115.116634 
L 187.812714 114.881449 
L 188.006022 114.528672 
L 188.19933 114.175895 
L 188.489292 114.175895 
L 189.552487 113.940711 
L 190.132411 113.587934 
L 190.229066 113.470341 
L 190.422374 113.470341 
L 190.422374 113.352749 
L 190.519028 113.352749 
L 190.80899 113.117564 
L 190.905644 112.764787 
L 191.098952 112.764787 
L 191.195606 112.529603 
L 191.968839 112.529603 
L 191.968839 112.41201 
L 192.258801 112.294418 
L 192.258801 112.059233 
L 192.355455 112.059233 
L 192.548763 111.706456 
L 192.935379 111.706456 
L 193.128687 111.588864 
L 193.128687 111.236087 
L 193.321995 111.236087 
L 193.418649 111.118494 
L 193.90192 110.765717 
L 194.38519 110.060163 
L 195.448385 110.060163 
L 195.641693 109.942571 
L 196.124963 109.589794 
L 196.124963 109.354609 
L 196.318271 109.354609 
L 196.318271 109.237017 
L 196.608233 109.237017 
L 196.801542 109.119425 
L 197.091504 109.119425 
L 197.284812 109.001832 
L 197.574774 109.001832 
L 198.058044 108.649055 
L 198.734623 108.649055 
L 198.831277 108.296278 
L 199.024585 108.296278 
L 199.121239 107.943501 
L 199.797817 107.943501 
L 200.764358 107.355539 
L 200.957666 107.002762 
L 201.440937 106.767578 
L 201.924207 106.414801 
L 202.117515 106.414801 
L 202.214169 106.062024 
L 202.407477 105.944431 
L 202.504131 105.591654 
L 202.697439 105.591654 
L 202.794093 105.238877 
L 203.18071 105.238877 
L 203.18071 105.003693 
L 203.857288 104.298139 
L 204.437212 104.062954 
L 205.017137 104.062954 
L 206.176985 103.474992 
L 206.176985 103.122215 
L 207.820105 101.123145 
L 208.013413 100.652776 
L 208.206721 100.652776 
L 208.593337 100.299999 
L 208.979953 100.299999 
L 209.173261 100.064814 
L 209.559878 99.476853 
L 209.84984 99.476853 
L 209.946494 99.35926 
L 210.236456 99.35926 
L 210.526418 98.888891 
L 212.749462 98.183337 
L 213.039424 98.065744 
L 214.682543 97.83056 
L 215.552429 97.595375 
L 215.649083 97.242598 
L 215.745737 97.125006 
L 215.939046 97.125006 
L 215.939046 97.007413 
L 216.0357 97.007413 
L 216.51897 96.654636 
L 217.098894 96.537044 
L 217.292202 96.537044 
L 217.292202 96.184267 
L 217.485511 96.184267 
L 219.418592 95.478713 
L 219.515246 95.008344 
L 219.6119 95.008344 
L 219.708554 94.655566 
L 219.998516 94.655566 
L 219.998516 94.537974 
L 220.09517 94.537974 
L 220.57844 94.537974 
L 220.675095 94.185197 
L 220.771749 94.185197 
L 220.868403 93.950012 
L 221.448327 93.714828 
L 222.22156 93.714828 
L 222.318214 93.597235 
L 222.511522 93.597235 
L 222.511522 93.479643 
L 222.608176 93.479643 
L 222.898138 93.479643 
L 223.381408 93.362051 
L 223.478062 93.009274 
L 223.768024 93.009274 
L 223.768024 92.891681 
L 224.057987 92.891681 
L 225.217835 92.538904 
L 225.217835 92.30372 
L 225.991068 92.30372 
L 226.087722 92.186127 
L 226.28103 92.186127 
L 226.28103 92.068535 
L 226.570992 92.068535 
L 227.537533 91.83335 
L 228.504073 91.83335 
L 228.504073 91.715758 
L 228.987344 91.715758 
L 228.987344 91.480573 
L 229.083998 91.480573 
L 229.277306 91.480573 
L 229.37396 91.362981 
L 230.243847 91.362981 
L 230.243847 91.245389 
L 230.437155 91.245389 
L 230.437155 91.127796 
L 230.823771 91.127796 
L 230.823771 90.539835 
L 230.920425 90.539835 
L 231.017079 90.422242 
L 231.017079 90.187057 
L 231.113733 90.187057 
L 231.693657 90.187057 
L 231.693657 90.069465 
L 232.080274 90.069465 
L 232.080274 89.951873 
L 232.660198 89.951873 
L 232.660198 89.83428 
L 233.723393 89.83428 
L 233.723393 89.716688 
L 233.820047 89.716688 
L 234.013355 89.363911 
L 234.496625 89.363911 
L 235.753128 88.893542 
L 235.849782 88.658357 
L 235.946436 88.658357 
L 237.202939 88.187988 
L 237.782863 88.070395 
L 238.266134 87.600026 
L 239.039366 87.600026 
L 239.039366 87.482434 
L 239.715944 87.129657 
L 240.102561 87.129657 
L 240.199215 86.894472 
L 240.682485 86.894472 
L 240.682485 86.659287 
L 240.875793 86.659287 
L 240.875793 86.541695 
L 241.649026 86.541695 
L 242.22895 85.953733 
L 242.325604 85.953733 
L 243.002183 85.600956 
L 243.292145 85.600956 
L 244.162031 84.660217 
L 244.355339 84.660217 
L 244.451993 84.542625 
L 244.645302 84.542625 
L 244.741956 84.30744 
L 244.83861 84.30744 
L 244.83861 84.189848 
L 246.095112 84.189848 
L 246.868345 83.954663 
L 246.964999 83.601886 
L 247.061653 83.601886 
L 247.448269 82.896332 
L 247.641577 82.896332 
L 248.41481 82.77874 
L 249.188042 81.838001 
L 249.671313 81.838001 
L 249.864621 81.367632 
L 250.251237 81.250039 
L 250.251237 81.132447 
L 251.411086 80.77967 
L 251.797702 80.77967 
L 252.087664 80.544485 
L 252.860897 80.544485 
L 253.150859 80.191708 
L 254.987286 79.838931 
L 255.373902 79.721339 
L 256.147135 79.486154 
L 256.437097 79.25097 
L 256.630405 79.25097 
L 256.727059 79.133377 
L 257.403638 78.898193 
L 257.500292 78.898193 
L 257.596946 78.7806 
L 257.886908 78.7806 
L 258.17687 78.663008 
L 258.17687 78.427823 
L 258.756794 78.075046 
L 259.143411 78.075046 
L 259.143411 77.957454 
L 259.433373 77.957454 
L 260.013297 77.722269 
L 260.109951 77.487085 
L 260.593222 77.016715 
L 260.979838 76.546346 
L 261.463108 76.546346 
L 261.559762 76.311161 
L 261.849724 76.311161 
L 261.849724 75.958384 
L 262.912919 75.958384 
L 263.396189 75.605607 
L 265.425925 75.017645 
L 267.648968 73.72413 
L 267.93893 73.72413 
L 268.325546 73.606537 
L 268.808817 73.606537 
L 269.195433 73.488945 
L 269.292087 73.488945 
L 269.292087 73.371353 
L 269.388741 73.371353 
L 270.161973 73.371353 
L 270.54859 73.25376 
L 271.418476 73.25376 
L 272.868287 72.665798 
L 274.60806 71.960244 
L 275.091331 70.901913 
L 275.187985 70.901913 
L 275.381293 70.784321 
L 276.73445 70.431544 
L 277.121066 70.431544 
L 277.121066 70.313952 
L 277.21772 70.313952 
L 277.604336 70.313952 
L 277.70099 69.843582 
L 279.82738 69.490805 
L 279.82738 69.373213 
L 280.020688 69.373213 
L 280.890574 69.138028 
L 280.890574 68.785251 
L 281.470499 68.785251 
L 281.470499 68.667659 
L 281.857115 68.667659 
L 281.857115 68.550067 
L 282.533693 68.550067 
L 282.533693 68.432474 
L 282.630347 68.432474 
L 283.693542 67.962105 
L 284.853391 67.844512 
L 285.143353 67.374143 
L 285.626623 67.374143 
L 285.723277 67.256551 
L 287.366396 66.903774 
L 287.656358 66.903774 
L 288.332937 66.786181 
L 288.332937 66.550997 
L 290.362672 66.433404 
L 290.652634 66.080627 
L 292.392407 65.72785 
L 292.489061 65.492666 
L 293.16564 65.492666 
L 293.938872 65.139889 
L 294.325489 65.139889 
L 294.808759 64.904704 
L 295.678645 64.904704 
L 297.128456 64.316742 
L 298.288305 64.316742 
L 298.288305 64.19915 
L 298.481613 64.19915 
L 298.578267 63.963965 
L 299.3515 63.611188 
L 300.801311 63.376003 
L 301.284581 62.905634 
L 301.477889 62.905634 
L 301.961159 62.788042 
L 302.734392 62.317672 
L 303.024354 62.317672 
L 305.247397 61.847303 
L 305.730668 61.612118 
L 306.02063 61.612118 
L 306.987171 61.141749 
L 306.987171 61.024157 
L 307.083825 61.024157 
L 308.050365 61.024157 
L 309.403522 60.67138 
L 309.983446 60.67138 
L 312.109836 60.20101 
L 312.109836 60.083418 
L 313.076376 59.730641 
L 313.17303 59.613049 
L 313.366339 59.613049 
L 314.042917 59.260271 
L 314.622841 59.260271 
L 314.912803 58.907494 
L 315.202766 58.907494 
L 315.975998 58.789902 
L 316.169306 58.319533 
L 316.555923 58.319533 
L 321.002009 57.849163 
L 321.002009 57.731571 
L 321.195317 57.731571 
L 321.195317 57.613979 
L 321.775242 57.496386 
L 322.45182 56.67324 
L 323.225053 56.555648 
L 323.225053 56.320463 
L 323.418361 56.320463 
L 323.418361 56.085278 
L 323.901631 55.850094 
L 324.868172 55.614909 
L 324.868172 55.497317 
L 324.964826 55.497317 
L 326.511291 55.497317 
L 326.511291 55.262132 
L 326.801253 55.262132 
L 327.767794 55.026947 
L 327.767794 54.909355 
L 328.15441 54.909355 
L 328.251064 54.67417 
L 328.444372 54.67417 
L 329.507567 54.438985 
L 329.507567 54.321393 
L 329.700875 54.321393 
L 329.797529 54.086208 
L 330.667415 54.086208 
L 330.764069 53.733431 
L 330.957378 53.498247 
L 330.957378 53.14547 
L 331.24734 53.14547 
L 331.537302 53.027877 
L 332.503842 52.204731 
L 332.890459 52.087139 
L 332.987113 51.851954 
L 336.176697 51.851954 
L 336.949929 51.499177 
L 338.39974 51.263992 
L 338.39974 51.1464 
L 338.496394 51.1464 
L 338.88301 51.1464 
L 339.076319 50.558438 
L 339.752897 50.558438 
L 339.946205 50.323253 
L 340.332821 50.323253 
L 340.332821 50.205661 
L 340.719438 50.205661 
L 341.106054 50.088069 
L 341.685978 49.970476 
L 341.782632 49.735292 
L 342.555865 49.735292 
L 342.845827 49.500107 
L 343.522405 49.500107 
L 343.619059 49.264922 
L 343.909022 49.264922 
L 344.005676 49.14733 
L 344.778908 49.14733 
L 346.808643 48.912145 
L 346.905297 48.559368 
L 348.451762 48.559368 
L 349.804919 48.324184 
L 350.191536 48.324184 
L 350.384844 48.206591 
L 350.578152 48.206591 
L 351.834655 48.088999 
L 353.091157 47.736222 
L 353.477774 47.736222 
L 353.86439 47.61863 
L 353.961044 47.383445 
L 355.410855 47.265853 
L 356.764012 47.265853 
L 356.860666 46.913076 
L 358.503785 46.913076 
L 358.890401 46.795483 
L 359.856942 46.795483 
L 359.953596 46.677891 
L 360.146904 46.677891 
L 360.146904 46.560299 
L 360.243558 46.560299 
L 360.340212 46.442706 
L 360.726828 46.442706 
L 361.306753 46.089929 
L 362.176639 46.089929 
L 362.273293 45.972337 
L 362.853217 45.972337 
L 362.853217 45.854744 
L 364.496336 45.854744 
L 364.592991 45.737152 
L 365.269569 45.737152 
L 365.269569 45.61956 
L 365.752839 45.61956 
L 365.946147 45.501967 
L 366.526072 45.501967 
L 367.299304 45.14919 
L 368.362499 45.14919 
L 368.362499 45.031598 
L 368.555807 45.031598 
L 368.555807 44.914006 
L 368.652461 44.914006 
L 370.29558 44.914006 
L 370.29558 44.796413 
L 371.455429 44.796413 
L 371.455429 44.678821 
L 371.745391 44.678821 
L 371.745391 44.561229 
L 371.842045 44.561229 
L 373.291856 44.561229 
L 373.291856 44.443636 
L 373.581818 44.443636 
L 373.581818 44.443636 
" style="fill:none;stroke:#0000ff;stroke-linecap:square;stroke-width:2;"/>
   </g>
   <g id="line2d_14">
    <path clip-path="url(#p6f5888083b)" d="M 69.218182 242.116364 
L 69.314836 241.293217 
L 69.41149 241.293217 
L 69.604798 241.058033 
L 69.701452 240.470071 
L 69.798106 240.470071 
L 69.89476 240.352479 
L 70.088068 240.352479 
L 70.184722 240.117294 
L 70.281376 240.117294 
L 70.378031 239.294147 
L 70.571339 239.294147 
L 70.667993 238.471001 
L 70.764647 238.471001 
L 70.861301 238.235816 
L 71.054609 238.235816 
L 71.054609 237.765447 
L 71.441225 237.765447 
L 71.634533 237.647855 
L 71.634533 237.295078 
L 71.827841 237.295078 
L 71.827841 237.059893 
L 72.02115 237.059893 
L 72.02115 236.354339 
L 72.214458 236.354339 
L 72.311112 235.883969 
L 72.407766 235.883969 
L 72.407766 235.531192 
L 72.50442 235.531192 
L 72.601074 234.943231 
L 72.794382 234.943231 
L 72.891036 234.708046 
L 72.98769 234.708046 
L 73.084344 234.120084 
L 73.277652 234.120084 
L 73.374306 233.767307 
L 73.760923 233.767307 
L 74.340847 233.179346 
L 74.437501 233.179346 
L 74.630809 233.061753 
L 74.727463 232.356199 
L 74.920771 232.356199 
L 75.017425 231.768238 
L 75.210734 231.41546 
L 75.307388 231.41546 
L 75.404042 231.180276 
L 75.500696 231.062683 
L 75.59735 230.592314 
L 75.694004 230.592314 
L 75.694004 230.474722 
L 75.790658 230.474722 
L 75.983966 230.239537 
L 76.660544 230.121945 
L 76.757199 230.121945 
L 76.757199 229.88676 
L 77.143815 228.946021 
L 77.240469 228.946021 
L 77.627085 228.475652 
L 77.627085 228.240467 
L 77.820393 228.240467 
L 77.917047 227.182136 
L 78.110355 227.182136 
L 78.207009 226.476582 
L 78.303664 226.476582 
L 78.303664 226.35899 
L 78.496972 226.123805 
L 78.69028 226.123805 
L 78.883588 225.88862 
L 78.980242 225.535843 
L 79.270204 225.300659 
L 79.463512 225.183066 
L 79.560166 224.830289 
L 79.65682 224.830289 
L 79.65682 224.595105 
L 79.850128 224.477512 
L 79.850128 224.242328 
L 80.043437 224.242328 
L 80.043437 224.124735 
L 80.236745 224.124735 
L 80.236745 224.007143 
L 80.430053 224.007143 
L 80.526707 223.771958 
L 80.623361 223.771958 
L 80.720015 223.066404 
L 81.009977 222.596035 
L 81.299939 222.596035 
L 81.299939 222.478442 
L 81.589902 222.243258 
L 81.686556 222.008073 
L 82.169826 222.008073 
L 82.74975 221.302519 
L 82.943058 221.302519 
L 83.039712 221.067334 
L 83.136367 221.067334 
L 83.812945 220.244188 
L 84.102907 220.244188 
L 84.392869 220.009003 
L 84.779486 219.773819 
L 85.262756 219.773819 
L 85.262756 219.538634 
L 85.456064 219.538634 
L 85.552718 219.421042 
L 85.746026 219.421042 
L 85.84268 219.068265 
L 86.229296 219.068265 
L 86.422605 218.83308 
L 86.615913 218.83308 
L 86.615913 218.715488 
L 86.712567 218.715488 
L 87.002529 218.597895 
L 87.002529 218.245118 
L 87.099183 218.245118 
L 87.679107 217.304379 
L 88.162378 217.304379 
L 88.259032 217.069195 
L 88.548994 217.069195 
L 88.645648 216.246048 
L 89.128918 215.893271 
L 89.225572 215.070125 
L 89.515535 214.599756 
L 89.612189 214.011794 
L 89.708843 214.011794 
L 90.095459 213.659017 
L 90.192113 212.953463 
L 90.482075 212.953463 
L 90.578729 212.718278 
L 90.772037 212.718278 
L 90.965345 212.247909 
L 91.351962 211.777539 
L 91.54527 211.424762 
L 92.125194 210.601616 
L 92.221848 210.601616 
L 92.318502 209.77847 
L 93.091735 209.77847 
L 93.091735 209.543285 
L 93.188389 209.543285 
L 93.575005 209.425692 
L 93.575005 209.190508 
L 94.444892 207.544215 
L 94.444892 207.30903 
L 94.6382 206.721069 
L 95.60474 205.545145 
L 95.894703 204.486814 
L 96.088011 204.369222 
L 96.377973 204.369222 
L 96.377973 204.251629 
L 96.571281 204.251629 
L 96.667935 203.546075 
L 97.151205 203.193298 
L 97.344513 202.958114 
L 97.537822 202.722929 
L 97.634476 202.25256 
L 97.827784 202.25256 
L 98.021092 202.017375 
L 99.084286 200.606267 
L 99.180941 199.900713 
L 99.277595 199.900713 
L 100.050827 197.901643 
L 100.437443 197.313681 
L 100.534097 196.608127 
L 100.727406 196.608127 
L 100.82406 196.25535 
L 101.114022 195.667388 
L 101.403984 195.432204 
L 101.597292 194.961834 
L 101.887254 194.609057 
L 102.177216 194.609057 
L 102.177216 194.491465 
L 102.660487 194.491465 
L 102.853795 194.25628 
L 102.950449 194.138688 
L 103.143757 194.138688 
L 103.820335 193.433134 
L 104.786876 193.433134 
L 104.88353 193.197949 
L 105.173492 193.080357 
L 105.270146 192.609988 
L 105.560109 192.609988 
L 106.623303 192.139618 
L 106.623303 192.022026 
L 107.49319 191.786841 
L 107.783152 191.198879 
L 107.879806 191.198879 
L 107.97646 190.610918 
L 108.169768 190.610918 
L 108.45973 190.493325 
L 108.653038 190.493325 
L 108.653038 190.258141 
L 109.522925 190.140548 
L 109.812887 190.140548 
L 109.812887 190.022956 
L 110.199503 190.022956 
L 110.296158 189.552587 
L 110.876082 188.964625 
L 111.06939 188.964625 
L 111.06939 188.847033 
L 111.262698 188.847033 
L 111.262698 188.72944 
L 111.939277 188.72944 
L 111.939277 188.611848 
L 112.229239 188.494256 
L 112.905817 188.494256 
L 113.002471 188.259071 
L 113.099125 187.553517 
L 113.485742 187.553517 
L 113.582396 187.318332 
L 114.355628 186.73037 
L 114.935552 185.672039 
L 115.032206 184.966485 
L 115.128861 184.848893 
L 115.418823 184.848893 
L 115.515477 183.437785 
L 115.708785 183.320193 
L 115.902093 183.085008 
L 116.385363 182.379454 
L 116.385363 182.261861 
L 117.061942 181.909084 
L 117.158596 181.438715 
L 117.73852 180.968346 
L 117.73852 180.497976 
L 118.318445 180.145199 
L 118.318445 179.792422 
L 118.415099 179.792422 
L 118.608407 179.67483 
L 118.995023 179.67483 
L 118.995023 179.557238 
L 119.284985 179.557238 
L 119.284985 179.439645 
L 119.671601 179.086868 
L 119.768255 178.498906 
L 120.058218 178.146129 
L 120.058218 177.322983 
L 120.154872 177.322983 
L 120.444834 176.970206 
L 120.638142 176.852614 
L 120.734796 176.14706 
L 120.83145 175.441506 
L 120.928104 175.441506 
L 121.411374 175.206321 
L 121.508029 174.735952 
L 121.701337 174.500767 
L 121.894645 173.67762 
L 122.087953 173.67762 
L 122.087953 173.560028 
L 122.281261 173.560028 
L 122.377915 172.972066 
L 122.861185 172.031328 
L 123.344456 171.208181 
L 123.537764 171.208181 
L 123.537764 170.972997 
L 124.117688 170.972997 
L 125.084229 170.385035 
L 125.374191 169.914666 
L 125.664153 169.914666 
L 125.760807 169.561888 
L 125.954115 169.561888 
L 125.954115 168.62115 
L 126.244077 168.62115 
L 126.244077 168.15078 
L 128.467121 167.327634 
L 128.467121 166.504488 
L 128.563775 166.504488 
L 128.757083 166.269303 
L 128.757083 166.034118 
L 128.950391 166.034118 
L 128.950391 165.798934 
L 129.240353 164.858195 
L 129.530316 164.62301 
L 129.530316 164.270233 
L 130.013586 164.035048 
L 130.303548 163.447087 
L 130.496856 163.447087 
L 130.59351 163.211902 
L 130.883472 163.211902 
L 130.980126 162.859125 
L 131.076781 162.859125 
L 131.076781 162.62394 
L 131.173435 162.62394 
L 131.463397 162.388756 
L 132.236629 162.388756 
L 132.333283 162.035979 
L 133.009862 161.565609 
L 133.20317 161.565609 
L 134.16971 160.742463 
L 134.16971 160.507278 
L 134.556327 160.154501 
L 134.652981 160.036909 
L 134.846289 160.036909 
L 134.846289 159.801724 
L 135.039597 159.566539 
L 136.2961 158.390616 
L 136.2961 157.214693 
L 136.489408 157.214693 
L 136.876024 156.744323 
L 137.359294 156.744323 
L 137.649257 156.273954 
L 137.842565 156.273954 
L 138.132527 156.156361 
L 138.132527 155.685992 
L 138.615797 155.685992 
L 138.712451 155.5684 
L 139.195722 155.5684 
L 139.38903 155.333215 
L 139.485684 155.215623 
L 139.678992 155.215623 
L 139.775646 154.980438 
L 139.968954 154.980438 
L 139.968954 154.627661 
L 140.065608 154.627661 
L 140.162262 154.510069 
L 141.032149 153.922107 
L 141.128803 153.56933 
L 141.322111 153.56933 
L 141.805381 153.334145 
L 141.998689 152.863776 
L 142.385306 152.863776 
L 142.48196 152.510999 
L 142.771922 152.510999 
L 143.061884 152.275814 
L 143.158538 152.275814 
L 143.255192 152.040629 
L 143.4485 152.040629 
L 144.511695 151.452668 
L 144.994965 150.864706 
L 145.188273 150.159152 
L 145.381581 150.159152 
L 145.381581 150.04156 
L 145.478236 150.04156 
L 145.961506 148.748044 
L 146.05816 148.748044 
L 146.348122 148.630452 
L 147.218009 148.512859 
L 147.314663 148.04249 
L 147.411317 148.04249 
L 147.411317 147.807305 
L 147.797933 147.336936 
L 147.991241 147.336936 
L 147.991241 147.219343 
L 148.184549 146.748974 
L 148.957782 146.278605 
L 148.957782 146.04342 
L 149.054436 146.04342 
L 149.15109 145.925828 
L 149.63436 145.925828 
L 150.020976 145.455458 
L 150.310939 145.337866 
L 150.310939 144.985089 
L 150.600901 144.04435 
L 150.794209 143.809166 
L 150.794209 143.573981 
L 150.890863 143.573981 
L 151.277479 143.221204 
L 151.277479 143.103611 
L 151.567441 143.103611 
L 151.567441 142.986019 
L 151.760749 142.986019 
L 151.760749 142.633242 
L 151.954058 142.633242 
L 151.954058 142.51565 
L 152.533982 141.692503 
L 152.920598 141.692503 
L 152.920598 141.574911 
L 153.113906 141.574911 
L 153.21056 141.457319 
L 153.790485 141.457319 
L 153.790485 141.222134 
L 153.983793 140.986949 
L 154.273755 140.986949 
L 154.370409 140.751765 
L 154.563717 140.751765 
L 155.046987 140.281395 
L 155.143642 140.281395 
L 155.143642 140.163803 
L 155.82022 139.928618 
L 156.110182 139.693434 
L 156.496798 138.399918 
L 156.690107 138.282325 
L 156.980069 138.282325 
L 156.980069 137.929548 
L 157.076723 137.929548 
L 157.366685 137.576771 
L 157.656647 137.223994 
L 157.849955 137.223994 
L 157.849955 136.98881 
L 158.139917 136.98881 
L 158.333226 136.636033 
L 158.333226 136.51844 
L 158.623188 136.51844 
L 159.493074 136.283256 
L 159.493074 135.930479 
L 160.459615 135.460109 
L 160.459615 135.224925 
L 160.556269 135.224925 
L 160.749577 134.872148 
L 162.296042 133.931409 
L 162.779312 133.931409 
L 162.875966 133.578632 
L 162.97262 133.578632 
L 163.069275 133.461039 
L 163.069275 133.108262 
L 163.359237 133.108262 
L 163.359237 132.99067 
L 163.649199 132.99067 
L 163.649199 132.873078 
L 163.842507 132.873078 
L 164.035815 132.402708 
L 164.422431 132.049931 
L 164.615739 132.049931 
L 164.615739 131.932339 
L 164.809048 131.932339 
L 164.809048 131.697154 
L 165.002356 131.226785 
L 165.195664 131.226785 
L 165.195664 130.9916 
L 165.775588 130.9916 
L 165.872242 130.874008 
L 166.06555 130.874008 
L 166.06555 130.756416 
L 166.838783 130.521231 
L 166.838783 130.286046 
L 167.032091 130.286046 
L 167.032091 130.168454 
L 167.225399 130.168454 
L 167.322053 129.933269 
L 167.322053 129.4629 
L 167.612015 129.4629 
L 167.612015 129.345307 
L 168.288594 129.345307 
L 169.931713 128.757346 
L 169.931713 128.639753 
L 170.125021 128.639753 
L 170.125021 128.522161 
L 170.414983 128.404569 
L 170.608291 128.404569 
L 170.801599 128.169384 
L 170.994907 128.169384 
L 171.091562 128.051792 
L 171.28487 128.051792 
L 172.638027 127.46383 
L 172.734681 126.875868 
L 173.121297 126.875868 
L 173.217951 126.758276 
L 173.991183 126.287907 
L 173.991183 126.052722 
L 174.281146 126.052722 
L 174.667762 125.582352 
L 175.247686 125.582352 
L 175.247686 125.229575 
L 175.34434 125.229575 
L 175.924265 124.759206 
L 176.214227 123.818467 
L 176.310881 123.818467 
L 176.310881 123.348098 
L 176.407535 123.348098 
L 176.890805 123.230506 
L 176.890805 122.877729 
L 177.180767 122.524952 
L 177.374075 122.524952 
L 177.374075 122.289767 
L 177.47073 122.289767 
L 177.954 121.93699 
L 178.050654 121.701805 
L 179.113849 120.996251 
L 179.307157 120.761066 
L 179.307157 120.525882 
L 179.403811 120.525882 
L 180.467005 120.525882 
L 180.660314 120.173105 
L 181.143584 120.173105 
L 181.143584 120.055512 
L 181.5302 119.93792 
L 181.5302 119.820328 
L 181.916816 119.820328 
L 181.916816 119.114774 
L 182.206778 119.114774 
L 182.206778 118.997181 
L 182.400087 118.997181 
L 182.496741 118.879589 
L 183.269973 118.879589 
L 184.429822 118.056443 
L 184.429822 117.93885 
L 184.913092 117.93885 
L 184.913092 117.821258 
L 185.1064 117.821258 
L 185.299708 117.586073 
L 185.493017 117.586073 
L 185.686325 117.468481 
L 185.879633 117.350889 
L 186.266249 117.350889 
L 186.459557 116.998112 
L 186.749519 116.880519 
L 186.942827 116.645334 
L 187.23279 116.645334 
L 187.23279 116.527742 
L 188.102676 116.057373 
L 188.102676 115.822188 
L 188.19933 115.822188 
L 188.585946 115.351819 
L 188.779255 115.351819 
L 188.875909 114.999042 
L 189.359179 114.528672 
L 189.552487 114.528672 
L 189.745795 114.175895 
L 189.842449 113.823118 
L 190.229066 113.470341 
L 190.422374 113.470341 
L 190.422374 113.352749 
L 190.615682 113.352749 
L 191.29226 112.647195 
L 191.678876 112.647195 
L 191.77553 112.294418 
L 191.872185 112.294418 
L 191.968839 112.176825 
L 192.355455 112.176825 
L 192.452109 111.941641 
L 192.548763 111.824048 
L 192.548763 111.588864 
L 192.838725 111.588864 
L 192.838725 111.000902 
L 193.032033 111.000902 
L 193.032033 110.88331 
L 193.225341 110.648125 
L 193.321995 110.060163 
L 193.708612 110.060163 
L 193.708612 109.942571 
L 194.288536 109.942571 
L 194.288536 109.707386 
L 194.965114 109.707386 
L 195.061769 109.354609 
L 195.545039 109.354609 
L 195.738347 108.88424 
L 195.931655 108.88424 
L 196.028309 108.766648 
L 196.608233 108.766648 
L 196.704888 108.413871 
L 196.801542 108.413871 
L 196.898196 108.178686 
L 197.864736 108.178686 
L 198.058044 107.943501 
L 198.058044 107.708316 
L 198.251353 107.708316 
L 198.734623 107.590724 
L 198.734623 107.355539 
L 198.831277 107.355539 
L 199.411201 107.237947 
L 200.08778 107.120355 
L 200.281088 106.414801 
L 200.667704 106.414801 
L 201.05432 105.826839 
L 201.344282 105.826839 
L 201.440937 105.591654 
L 201.440937 105.238877 
L 201.537591 105.238877 
L 201.634245 105.121285 
L 202.214169 105.121285 
L 202.214169 105.003693 
L 202.504131 105.003693 
L 202.504131 104.8861 
L 202.794093 104.8861 
L 202.794093 104.415731 
L 202.890747 104.415731 
L 202.987401 104.298139 
L 203.277364 104.298139 
L 203.760634 103.827769 
L 203.857288 103.827769 
L 203.953942 103.710177 
L 204.340558 103.710177 
L 204.727175 103.122215 
L 204.727175 103.004623 
L 204.823829 103.004623 
L 205.307099 102.416661 
L 205.790369 102.299069 
L 205.983677 102.063884 
L 206.176985 102.063884 
L 206.370294 101.828699 
L 206.660256 101.828699 
L 206.660256 101.711107 
L 206.853564 101.711107 
L 206.950218 101.475922 
L 207.24018 101.475922 
L 207.24018 101.35833 
L 207.433488 101.35833 
L 207.433488 101.240738 
L 207.530142 101.240738 
L 207.72345 101.123145 
L 207.72345 100.770368 
L 208.013413 100.652776 
L 208.496683 100.652776 
L 208.593337 100.535184 
L 209.173261 100.535184 
L 209.269915 100.417591 
L 209.463224 100.417591 
L 209.463224 100.182407 
L 209.559878 100.182407 
L 209.656532 99.947222 
L 209.84984 99.947222 
L 210.139802 99.712037 
L 210.81638 99.476853 
L 211.299651 99.476853 
L 211.589613 99.241668 
L 211.589613 99.124075 
L 212.072883 99.124075 
L 212.459499 97.83056 
L 212.652808 97.83056 
L 213.136078 97.36019 
L 213.232732 97.125006 
L 213.522694 97.125006 
L 213.619348 96.419452 
L 213.716002 96.301859 
L 214.199272 96.301859 
L 214.199272 96.066675 
L 214.392581 96.066675 
L 214.392581 95.949082 
L 214.779197 95.949082 
L 214.779197 95.713898 
L 215.262467 95.713898 
L 215.262467 95.596305 
L 215.455775 95.596305 
L 215.455775 95.361121 
L 215.649083 95.361121 
L 215.745737 95.243528 
L 217.968781 95.243528 
L 218.645359 95.008344 
L 220.771749 93.83242 
L 221.448327 93.83242 
L 221.544981 93.597235 
L 221.738289 93.126866 
L 222.028251 93.126866 
L 222.511522 92.656497 
L 222.898138 92.656497 
L 222.898138 92.421312 
L 223.091446 92.421312 
L 223.381408 92.186127 
L 223.768024 92.186127 
L 224.444603 91.83335 
L 225.894414 91.480573 
L 226.377684 91.245389 
L 227.924149 90.539835 
L 227.924149 90.422242 
L 228.117457 90.422242 
L 228.117457 90.30465 
L 228.214111 90.30465 
L 228.407419 90.30465 
L 228.504073 90.069465 
L 229.37396 90.069465 
L 229.37396 89.951873 
L 229.567268 89.951873 
L 229.567268 89.83428 
L 229.85723 89.83428 
L 229.953884 89.599096 
L 230.727117 89.599096 
L 230.727117 89.363911 
L 231.210387 89.128726 
L 232.273582 89.011134 
L 232.756852 88.423172 
L 233.046814 88.423172 
L 233.046814 88.30558 
L 234.013355 88.30558 
L 235.366512 87.600026 
L 236.816323 87.364841 
L 239.13602 87.129657 
L 239.522636 86.541695 
L 240.585831 86.541695 
L 241.359063 86.424103 
L 242.518912 85.836141 
L 242.615566 85.718548 
L 243.485453 85.718548 
L 243.485453 85.600956 
L 243.678761 85.600956 
L 243.968723 85.365771 
L 244.258685 85.365771 
L 244.258685 85.248179 
L 244.83861 84.895402 
L 245.708496 84.895402 
L 245.80515 84.660217 
L 246.288421 84.660217 
L 246.288421 84.542625 
L 246.385075 84.542625 
L 246.481729 84.425033 
L 246.771691 84.425033 
L 246.868345 83.719479 
L 247.448269 83.719479 
L 247.544923 83.484294 
L 247.834886 82.77874 
L 248.028194 82.77874 
L 248.221502 82.543555 
L 248.994734 81.720409 
L 249.381351 81.720409 
L 249.767967 81.602817 
L 250.154583 81.602817 
L 250.251237 81.132447 
L 250.444545 81.132447 
L 250.541199 80.897262 
L 250.734507 80.897262 
L 251.797702 80.77967 
L 251.797702 80.426893 
L 254.020745 79.721339 
L 254.214054 79.486154 
L 255.663864 79.486154 
L 255.857173 79.368562 
L 256.147135 79.368562 
L 256.243789 79.133377 
L 256.437097 79.133377 
L 256.437097 79.015785 
L 256.630405 79.015785 
L 256.727059 78.663008 
L 257.017021 78.663008 
L 257.596946 78.427823 
L 257.6936 78.192639 
L 258.756794 77.604677 
L 258.756794 77.2519 
L 258.853448 77.2519 
L 259.240065 76.78153 
L 259.819989 76.78153 
L 259.819989 76.663938 
L 261.366454 76.663938 
L 261.559762 76.546346 
L 261.75307 76.546346 
L 261.849724 76.428753 
L 261.849724 76.075976 
L 261.946378 76.075976 
L 263.009573 75.840792 
L 263.009573 75.723199 
L 263.106227 75.723199 
L 263.976114 74.547276 
L 264.652692 74.312091 
L 265.32927 74.312091 
L 265.425925 73.959314 
L 265.715887 73.606537 
L 266.102503 73.606537 
L 267.648968 72.665798 
L 267.93893 72.665798 
L 267.93893 72.548206 
L 268.615509 72.548206 
L 268.615509 72.313021 
L 269.582049 72.313021 
L 270.355282 72.077837 
L 270.54859 71.842652 
L 271.225168 71.842652 
L 271.225168 71.72506 
L 273.254903 71.72506 
L 273.254903 71.489875 
L 273.544866 71.489875 
L 273.64152 71.372283 
L 274.221444 71.372283 
L 274.221444 71.25469 
L 274.318098 71.25469 
L 274.414752 71.137098 
L 274.60806 71.137098 
L 274.704714 70.901913 
L 274.801368 70.901913 
L 274.898022 70.313952 
L 274.994677 70.313952 
L 276.444487 69.843582 
L 276.637796 69.843582 
L 277.507682 69.490805 
L 279.150801 68.785251 
L 279.344109 68.785251 
L 279.344109 68.667659 
L 279.440763 68.667659 
L 279.730725 68.667659 
L 280.987228 68.550067 
L 280.987228 68.314882 
L 281.180536 68.314882 
L 281.27719 68.197289 
L 281.953769 68.197289 
L 281.953769 68.079697 
L 282.147077 68.079697 
L 283.693542 67.491735 
L 283.790196 67.256551 
L 283.983504 67.256551 
L 283.983504 67.138958 
L 284.756737 67.138958 
L 285.916585 66.786181 
L 287.269742 66.550997 
L 287.366396 66.315812 
L 287.849667 66.315812 
L 287.946321 65.610258 
L 288.042975 65.610258 
L 288.042975 65.492666 
L 288.622899 65.492666 
L 288.719553 65.375073 
L 289.009515 65.375073 
L 289.299477 65.257481 
L 290.266018 65.257481 
L 290.362672 65.139889 
L 290.942596 64.787112 
L 290.942596 64.551927 
L 291.812483 64.316742 
L 292.102445 64.316742 
L 292.489061 63.963965 
L 292.585716 63.963965 
L 292.779024 63.846373 
L 293.358948 63.611188 
L 294.035526 63.376003 
L 294.422143 63.376003 
L 294.422143 63.140819 
L 294.808759 63.140819 
L 295.292029 62.788042 
L 295.485337 62.435265 
L 295.581991 62.20008 
L 296.065262 61.729711 
L 296.74184 61.729711 
L 296.74184 61.612118 
L 297.321764 61.612118 
L 297.805035 61.494526 
L 297.901689 61.141749 
L 297.998343 61.141749 
L 299.931424 60.318603 
L 300.028078 59.848233 
L 301.864505 59.848233 
L 301.864505 59.613049 
L 302.251122 59.613049 
L 303.700932 58.789902 
L 304.667473 58.789902 
L 304.764127 58.554717 
L 305.247397 58.084348 
L 305.53736 58.084348 
L 306.407246 57.966756 
L 306.407246 57.849163 
L 307.857057 57.613979 
L 308.147019 57.261202 
L 308.147019 57.026017 
L 308.243673 57.026017 
L 309.11356 56.67324 
L 309.500176 56.202871 
L 310.176755 56.202871 
L 310.176755 55.850094 
L 310.466717 55.850094 
L 311.143295 55.497317 
L 311.239949 55.379724 
L 311.433257 55.379724 
L 311.529911 55.026947 
L 311.723219 54.909355 
L 311.723219 54.67417 
L 312.109836 54.67417 
L 312.20649 54.438985 
L 312.883068 54.438985 
L 313.462993 54.203801 
L 313.559647 54.203801 
L 313.656301 53.968616 
L 314.042917 53.968616 
L 314.236225 53.733431 
L 314.622841 53.733431 
L 314.816149 53.498247 
L 315.589382 53.498247 
L 315.589382 53.380654 
L 315.686036 53.380654 
L 316.459268 53.380654 
L 316.845885 53.263062 
L 317.135847 53.263062 
L 317.135847 53.027877 
L 317.909079 53.027877 
L 318.102387 52.910285 
L 318.489004 52.910285 
L 318.489004 52.792693 
L 318.682312 52.792693 
L 318.682312 52.6751 
L 318.972274 52.6751 
L 319.648852 52.557508 
L 322.838436 52.557508 
L 322.838436 52.439916 
L 322.935091 52.439916 
L 323.031745 52.322323 
L 323.515015 52.322323 
L 323.611669 52.087139 
L 324.288247 52.087139 
L 325.834712 51.851954 
L 325.931366 51.734362 
L 326.704599 51.381585 
L 327.767794 51.381585 
L 327.767794 51.1464 
L 328.444372 51.1464 
L 328.444372 51.028808 
L 328.734334 51.028808 
L 328.734334 50.793623 
L 328.830988 50.793623 
L 329.024296 50.793623 
L 329.12095 50.558438 
L 329.700875 50.558438 
L 329.700875 50.440846 
L 330.087491 50.440846 
L 330.184145 50.205661 
L 332.020572 50.205661 
L 332.020572 50.088069 
L 332.117226 50.088069 
L 332.697151 50.088069 
L 332.793805 49.852884 
L 334.050307 49.852884 
L 334.050307 49.735292 
L 334.34027 49.735292 
L 334.34027 49.500107 
L 334.726886 49.264922 
L 339.656243 49.264922 
L 339.656243 49.14733 
L 340.042859 49.14733 
L 340.139513 48.912145 
L 341.299362 48.912145 
L 341.299362 48.794553 
L 341.589324 48.794553 
L 341.589324 48.676961 
L 341.685978 48.676961 
L 341.782632 48.559368 
L 342.169249 48.559368 
L 342.169249 48.324184 
L 342.749173 48.324184 
L 342.749173 48.206591 
L 343.619059 48.206591 
L 343.619059 47.971407 
L 345.358833 47.971407 
L 345.455487 47.853814 
L 345.648795 47.853814 
L 345.648795 47.736222 
L 347.581876 47.501037 
L 348.258454 47.501037 
L 348.258454 47.383445 
L 349.418303 47.383445 
L 349.611611 47.265853 
L 350.28819 47.030668 
L 350.578152 47.030668 
L 350.578152 46.913076 
L 351.448038 46.913076 
L 351.544692 46.677891 
L 352.607887 46.677891 
L 352.801195 46.560299 
L 353.767736 46.560299 
L 353.767736 46.325114 
L 354.540968 46.325114 
L 354.540968 46.207521 
L 355.410855 46.207521 
L 355.410855 46.089929 
L 356.474049 46.089929 
L 357.053974 45.854744 
L 358.793747 45.854744 
L 358.793747 45.737152 
L 359.083709 45.737152 
L 359.083709 45.501967 
L 359.663633 45.501967 
L 359.663633 45.266783 
L 361.01679 45.266783 
L 361.01679 45.031598 
L 363.723104 45.031598 
L 363.723104 44.914006 
L 365.462877 44.914006 
L 365.462877 44.796413 
L 367.009342 44.796413 
L 367.009342 44.678821 
L 367.879229 44.678821 
L 367.879229 44.561229 
L 370.102272 44.561229 
L 370.102272 44.443636 
L 373.581818 44.443636 
L 373.581818 44.443636 
" style="fill:none;stroke:#ffa500;stroke-linecap:square;stroke-width:2;"/>
   </g>
   <g id="line2d_15">
    <path clip-path="url(#p6f5888083b)" d="M 69.218182 242.116364 
L 69.314836 241.881179 
L 69.508144 241.175625 
L 69.89476 240.587663 
L 69.89476 240.352479 
L 70.088068 239.999701 
L 70.184722 239.176555 
L 70.281376 239.058963 
L 70.378031 238.353409 
L 70.474685 238.353409 
L 70.764647 238.000632 
L 70.861301 237.647855 
L 71.151263 237.647855 
L 71.537879 237.295078 
L 71.634533 237.295078 
L 71.924496 236.707116 
L 72.214458 236.707116 
L 72.214458 236.589524 
L 72.311112 236.589524 
L 72.697728 236.354339 
L 72.794382 235.648785 
L 72.891036 235.648785 
L 72.891036 235.531192 
L 73.277652 235.178415 
L 73.374306 235.060823 
L 73.760923 234.120084 
L 73.857577 234.120084 
L 73.857577 233.41453 
L 74.147539 233.41453 
L 74.244193 233.061753 
L 74.824117 233.061753 
L 75.307388 232.473792 
L 76.08062 232.473792 
L 76.177274 231.650645 
L 76.273928 231.650645 
L 76.660544 231.297868 
L 76.950507 231.297868 
L 77.530431 230.827499 
L 78.110355 229.88676 
L 78.496972 229.88676 
L 78.883588 229.533983 
L 78.980242 229.181206 
L 79.463512 229.181206 
L 79.65682 228.946021 
L 79.850128 228.946021 
L 79.850128 228.710837 
L 80.140091 228.35806 
L 80.816669 228.35806 
L 81.009977 228.240467 
L 81.396593 227.88769 
L 81.78321 227.770098 
L 82.169826 227.770098 
L 82.556442 227.299729 
L 82.556442 226.946951 
L 83.426329 224.712697 
L 83.716291 224.595105 
L 83.812945 224.124735 
L 84.006253 224.124735 
L 84.006253 223.771958 
L 84.392869 223.654366 
L 84.586177 223.066404 
L 85.069448 222.948812 
L 85.456064 222.948812 
L 85.939334 222.478442 
L 86.035988 222.478442 
L 86.132642 222.36085 
L 86.132642 222.125665 
L 86.325951 222.125665 
L 87.099183 221.655296 
L 87.775761 220.949742 
L 88.162378 220.714557 
L 88.162378 220.479373 
L 88.45234 220.479373 
L 88.742302 220.36178 
L 88.742302 220.126596 
L 89.322226 219.068265 
L 89.515535 218.950672 
L 89.708843 218.362711 
L 90.578729 217.304379 
L 90.868691 217.069195 
L 91.448616 216.010864 
L 91.738578 216.010864 
L 91.835232 215.30531 
L 92.221848 214.83494 
L 92.415156 214.83494 
L 92.415156 214.482163 
L 92.608464 214.482163 
L 92.705119 214.129386 
L 92.995081 214.129386 
L 92.995081 213.894202 
L 93.091735 213.894202 
L 93.188389 213.659017 
L 95.411432 210.719208 
L 95.701394 210.719208 
L 95.798048 210.131247 
L 96.474627 209.77847 
L 96.571281 209.425692 
L 96.764589 209.425692 
L 96.957897 208.955323 
L 97.924438 208.367361 
L 98.021092 208.014584 
L 98.407708 208.014584 
L 98.407708 207.896992 
L 98.504362 207.896992 
L 98.601016 207.661807 
L 98.794324 207.191438 
L 99.084286 207.191438 
L 99.084286 207.073846 
L 99.180941 207.073846 
L 99.277595 206.721069 
L 99.567557 206.603476 
L 99.760865 206.015515 
L 100.340789 206.015515 
L 100.340789 205.78033 
L 100.630751 205.545145 
L 100.727406 205.192368 
L 100.727406 204.839591 
L 100.920714 204.721999 
L 101.210676 204.251629 
L 101.500638 204.016445 
L 101.693946 204.016445 
L 101.7906 203.310891 
L 102.27387 202.958114 
L 102.27387 202.722929 
L 102.370525 202.722929 
L 102.660487 202.25256 
L 102.950449 202.25256 
L 102.950449 202.134967 
L 103.047103 202.134967 
L 103.820335 201.78219 
L 103.820335 201.664598 
L 103.91699 201.664598 
L 105.173492 200.488674 
L 105.173492 200.25349 
L 105.270146 200.25349 
L 105.560109 199.195159 
L 105.850071 199.195159 
L 105.850071 199.077566 
L 106.140033 199.077566 
L 106.140033 198.607197 
L 106.236687 198.607197 
L 106.526649 198.607197 
L 106.913265 198.25442 
L 106.913265 198.136828 
L 107.106574 198.136828 
L 107.203228 197.196089 
L 107.299882 197.196089 
L 107.686498 196.960904 
L 107.686498 196.490535 
L 107.879806 196.490535 
L 107.879806 196.25535 
L 107.97646 196.25535 
L 108.073114 196.137758 
L 108.169768 195.549796 
L 108.45973 195.549796 
L 108.45973 195.314611 
L 108.653038 195.197019 
L 108.749693 194.961834 
L 108.943001 194.961834 
L 109.136309 194.373873 
L 109.232963 194.373873 
L 109.232963 194.25628 
L 109.716233 194.25628 
L 109.812887 193.668319 
L 109.909541 193.550726 
L 110.102849 193.550726 
L 110.199503 193.315542 
L 110.392812 193.315542 
L 110.489466 192.962765 
L 110.58612 192.72758 
L 111.06939 192.72758 
L 111.55266 192.609988 
L 111.842622 191.904434 
L 112.229239 191.434064 
L 112.422547 191.434064 
L 112.712509 191.316472 
L 114.64559 190.72851 
L 114.64559 190.493325 
L 114.838898 190.258141 
L 114.935552 189.552587 
L 115.128861 189.552587 
L 115.128861 189.434994 
L 115.805439 188.72944 
L 115.902093 188.259071 
L 116.192055 188.023886 
L 116.482017 188.023886 
L 116.578671 187.318332 
L 116.868634 187.318332 
L 117.061942 187.20074 
L 117.448558 186.965555 
L 117.448558 186.495186 
L 117.835174 186.142409 
L 117.835174 185.907224 
L 117.931828 185.907224 
L 118.028482 185.672039 
L 118.22179 185.672039 
L 118.415099 184.731301 
L 118.608407 184.613708 
L 118.898369 184.613708 
L 119.574947 184.143339 
L 119.671601 183.790562 
L 119.768255 183.790562 
L 119.768255 183.320193 
L 119.961564 183.320193 
L 119.961564 183.085008 
L 120.058218 183.085008 
L 120.444834 182.732231 
L 120.444834 182.614638 
L 120.734796 182.379454 
L 121.024758 182.379454 
L 121.31472 180.968346 
L 122.377915 180.850753 
L 122.764531 180.380384 
L 123.537764 179.792422 
L 123.537764 179.322053 
L 123.92438 178.851684 
L 123.92438 177.910945 
L 124.021034 177.910945 
L 124.697613 177.910945 
L 126.050769 177.205391 
L 126.244077 176.499837 
L 126.340732 176.499837 
L 126.727348 175.323913 
L 127.01731 175.323913 
L 127.113964 174.853544 
L 127.210618 174.735952 
L 127.50058 174.735952 
L 127.50058 174.383175 
L 127.790542 174.383175 
L 127.887197 173.912805 
L 127.983851 173.795213 
L 128.273813 173.795213 
L 128.273813 173.442436 
L 128.370467 173.442436 
L 128.563775 173.207251 
L 129.62697 172.619289 
L 129.62697 172.266512 
L 129.820278 172.266512 
L 129.916932 171.796143 
L 130.013586 171.796143 
L 130.11024 171.560958 
L 130.400202 171.560958 
L 130.980126 171.443366 
L 131.173435 171.443366 
L 131.173435 171.325774 
L 131.753359 171.090589 
L 131.753359 170.855404 
L 132.139975 170.737812 
L 132.236629 170.737812 
L 132.623245 169.561888 
L 133.299824 169.209111 
L 133.68644 168.738742 
L 133.879748 168.738742 
L 133.879748 168.503557 
L 134.073056 168.503557 
L 134.16971 168.268373 
L 134.363019 168.033188 
L 134.459673 167.798003 
L 134.749635 167.445226 
L 135.136251 167.327634 
L 135.232905 166.504488 
L 135.716175 166.386895 
L 135.716175 166.269303 
L 135.812829 166.269303 
L 136.006138 165.798934 
L 136.199446 165.798934 
L 136.489408 165.446157 
L 136.77937 165.446157 
L 137.069332 165.328564 
L 137.359294 164.858195 
L 137.359294 164.505418 
L 137.552603 164.505418 
L 137.649257 164.387825 
L 137.842565 164.387825 
L 138.519143 163.799864 
L 138.712451 163.329494 
L 139.38903 163.329494 
L 139.582338 162.976717 
L 139.775646 162.976717 
L 141.418765 162.388756 
L 141.418765 162.153571 
L 141.708727 162.153571 
L 141.805381 162.035979 
L 141.805381 161.800794 
L 142.48196 160.977648 
L 142.96523 160.977648 
L 143.351846 160.742463 
L 143.351846 160.62487 
L 143.4485 160.62487 
L 143.641808 160.62487 
L 143.641808 160.272093 
L 143.738462 160.272093 
L 143.835116 160.154501 
L 144.221733 159.09617 
L 144.608349 159.09617 
L 145.768198 157.685062 
L 145.768198 157.332285 
L 145.961506 157.332285 
L 145.961506 157.214693 
L 146.154814 157.0971 
L 146.154814 156.861916 
L 146.251468 156.861916 
L 146.638084 156.861916 
L 147.0247 156.273954 
L 147.0247 156.156361 
L 147.218009 156.156361 
L 147.314663 155.921177 
L 147.604625 155.921177 
L 147.604625 155.803584 
L 147.797933 155.803584 
L 147.797933 155.685992 
L 148.087895 155.685992 
L 148.087895 155.5684 
L 148.764474 154.980438 
L 148.861128 154.980438 
L 148.861128 154.392476 
L 149.63436 154.392476 
L 149.731014 154.157292 
L 149.731014 153.922107 
L 150.310939 153.56933 
L 150.310939 153.451738 
L 150.407593 153.451738 
L 150.987517 153.216553 
L 151.084171 153.216553 
L 151.084171 153.098961 
L 151.180825 153.098961 
L 151.470787 152.628591 
L 151.470787 152.510999 
L 151.567441 152.510999 
L 152.050712 152.510999 
L 152.147366 151.805445 
L 152.340674 151.805445 
L 152.630636 151.687852 
L 152.823944 151.687852 
L 152.920598 150.629521 
L 153.017252 150.629521 
L 153.017252 150.394337 
L 153.790485 149.806375 
L 153.790485 149.688783 
L 154.080447 149.688783 
L 154.177101 149.336006 
L 154.467063 149.336006 
L 154.467063 149.218413 
L 154.660371 149.218413 
L 154.660371 149.100821 
L 155.626912 149.100821 
L 155.626912 148.865636 
L 156.013528 148.630452 
L 156.30349 148.630452 
L 156.690107 147.454528 
L 157.656647 146.866566 
L 157.753301 145.925828 
L 158.333226 145.690643 
L 158.526534 145.690643 
L 158.91315 145.573051 
L 159.009804 145.337866 
L 159.203112 145.102681 
L 159.203112 144.749904 
L 159.39642 144.749904 
L 159.39642 144.51472 
L 159.589728 144.51472 
L 159.686382 144.397127 
L 159.686382 144.161943 
L 159.879691 144.161943 
L 160.072999 143.573981 
L 160.072999 142.868427 
L 160.459615 142.51565 
L 160.459615 142.398057 
L 160.749577 142.398057 
L 161.329501 142.162873 
L 161.909426 142.162873 
L 161.909426 142.04528 
L 162.392696 142.04528 
L 162.392696 141.927688 
L 162.48935 141.927688 
L 162.779312 141.927688 
L 162.875966 141.692503 
L 163.069275 141.692503 
L 163.359237 141.339726 
L 163.552545 141.339726 
L 163.745853 141.222134 
L 164.035815 141.222134 
L 164.325777 140.281395 
L 164.519085 140.281395 
L 164.519085 140.046211 
L 164.712394 140.046211 
L 164.809048 139.811026 
L 164.905702 139.811026 
L 165.388972 139.223064 
L 165.388972 138.98788 
L 165.872242 138.98788 
L 165.872242 138.870287 
L 166.06555 138.870287 
L 166.162204 138.282325 
L 166.548821 137.929548 
L 166.742129 137.929548 
L 166.838783 137.694364 
L 167.032091 137.694364 
L 167.032091 137.576771 
L 167.322053 137.341587 
L 167.418707 136.98881 
L 167.515361 136.871217 
L 167.805323 136.871217 
L 167.901978 136.636033 
L 167.998632 136.636033 
L 167.998632 135.695294 
L 168.095286 135.695294 
L 168.385248 135.342517 
L 168.868518 135.342517 
L 168.965172 135.107332 
L 169.061826 135.107332 
L 169.15848 134.401778 
L 169.641751 134.401778 
L 169.835059 133.931409 
L 170.028367 133.931409 
L 170.028367 133.696224 
L 170.318329 133.696224 
L 170.414983 133.461039 
L 170.898253 133.461039 
L 171.091562 132.99067 
L 171.188216 132.99067 
L 171.188216 132.755485 
L 171.28487 132.755485 
L 172.638027 132.520301 
L 172.734681 132.285116 
L 172.831335 132.285116 
L 172.927989 132.049931 
L 173.121297 132.049931 
L 173.121297 131.814747 
L 173.314605 131.814747 
L 173.314605 131.579562 
L 173.411259 131.579562 
L 173.604567 131.579562 
L 173.604567 131.46197 
L 173.797875 131.46197 
L 173.797875 131.344377 
L 174.087837 131.344377 
L 174.087837 131.226785 
L 174.474454 131.226785 
L 174.474454 130.874008 
L 174.86107 130.874008 
L 175.924265 130.168454 
L 175.924265 130.050862 
L 176.117573 130.050862 
L 176.117573 129.815677 
L 176.504189 129.815677 
L 176.504189 129.698084 
L 176.697497 129.698084 
L 176.794151 129.580492 
L 177.084113 129.580492 
L 177.180767 129.4629 
L 177.277421 128.757346 
L 177.374075 128.757346 
L 177.47073 128.404569 
L 178.050654 128.169384 
L 178.147308 127.934199 
L 178.340616 127.699015 
L 178.533924 127.46383 
L 178.823886 127.46383 
L 178.823886 127.346238 
L 178.92054 127.346238 
L 179.113849 126.993461 
L 179.210503 126.758276 
L 179.307157 126.758276 
L 179.403811 126.523091 
L 179.983735 126.523091 
L 180.080389 126.405499 
L 180.660314 126.405499 
L 180.853622 126.170314 
L 180.853622 125.46476 
L 181.240238 125.46476 
L 181.240238 125.229575 
L 181.433546 124.876798 
L 181.626854 124.876798 
L 181.626854 124.641614 
L 181.723508 124.641614 
L 181.916816 124.524021 
L 182.303433 124.524021 
L 182.400087 124.406429 
L 182.400087 124.171244 
L 183.173319 124.171244 
L 183.173319 123.93606 
L 183.366627 123.93606 
L 183.463281 123.700875 
L 183.559935 123.700875 
L 183.559935 123.46569 
L 183.849898 123.46569 
L 183.849898 123.348098 
L 184.236514 123.348098 
L 184.236514 123.230506 
L 184.816438 123.230506 
L 184.816438 122.995321 
L 185.009746 122.760136 
L 185.1064 122.642544 
L 185.589671 122.642544 
L 185.589671 122.524952 
L 185.782979 122.289767 
L 185.976287 122.289767 
L 185.976287 122.054582 
L 186.362903 121.701805 
L 186.652865 121.701805 
L 186.652865 121.584213 
L 186.846173 121.584213 
L 186.846173 121.231436 
L 187.039482 121.231436 
L 187.136136 120.996251 
L 187.329444 120.996251 
L 187.522752 120.878659 
L 187.522752 120.525882 
L 187.812714 120.290697 
L 187.812714 120.055512 
L 188.102676 120.055512 
L 188.19933 119.114774 
L 188.392638 119.114774 
L 188.392638 118.879589 
L 188.682601 118.879589 
L 188.779255 118.40922 
L 188.875909 118.056443 
L 189.069217 118.056443 
L 189.069217 117.93885 
L 189.359179 117.93885 
L 189.649141 117.703666 
L 190.132411 117.703666 
L 190.615682 117.115704 
L 190.712336 116.645334 
L 190.905644 116.645334 
L 190.905644 116.527742 
L 191.098952 116.527742 
L 191.098952 116.41015 
L 191.29226 116.41015 
L 191.388914 115.93978 
L 191.968839 115.93978 
L 191.968839 115.822188 
L 192.162147 115.587003 
L 192.452109 115.587003 
L 192.548763 115.351819 
L 192.645417 115.351819 
L 192.645417 115.116634 
L 192.838725 115.116634 
L 192.935379 114.999042 
L 193.321995 114.999042 
L 193.321995 114.881449 
L 193.515304 114.881449 
L 193.611958 114.528672 
L 194.578498 114.293488 
L 194.675152 113.940711 
L 194.771806 113.940711 
L 194.771806 113.823118 
L 195.255077 113.823118 
L 195.255077 113.705526 
L 195.738347 113.705526 
L 195.738347 113.587934 
L 196.221617 113.587934 
L 196.221617 113.470341 
L 196.414925 113.470341 
L 196.414925 113.352749 
L 196.511579 113.352749 
L 196.704888 113.117564 
L 197.671428 112.647195 
L 197.768082 111.941641 
L 197.96139 111.941641 
L 197.96139 111.824048 
L 198.251353 111.824048 
L 198.251353 111.588864 
L 198.348007 111.588864 
L 198.637969 111.353679 
L 199.024585 111.353679 
L 199.121239 111.118494 
L 199.797817 111.118494 
L 199.991126 110.88331 
L 200.57105 110.88331 
L 200.667704 110.648125 
L 201.05432 110.295348 
L 201.440937 109.707386 
L 201.730899 109.001832 
L 202.214169 109.001832 
L 202.310823 108.766648 
L 202.407477 108.766648 
L 202.407477 108.649055 
L 202.600785 108.649055 
L 202.600785 108.531463 
L 202.697439 108.531463 
L 202.890747 108.296278 
L 203.374018 108.296278 
L 204.14725 107.943501 
L 204.727175 107.943501 
L 204.823829 107.825909 
L 205.017137 107.825909 
L 205.887023 107.473132 
L 205.887023 107.237947 
L 206.27364 107.237947 
L 206.27364 107.120355 
L 207.046872 106.88517 
L 207.046872 106.532393 
L 207.336834 106.532393 
L 207.336834 106.179616 
L 208.013413 106.179616 
L 208.013413 106.062024 
L 208.110067 106.062024 
L 208.303375 105.826839 
L 208.786645 105.826839 
L 208.883299 105.35647 
L 209.076607 105.35647 
L 209.076607 105.238877 
L 209.366569 105.238877 
L 209.656532 104.8861 
L 209.753186 104.768508 
L 210.043148 104.768508 
L 210.043148 104.533323 
L 210.236456 104.533323 
L 210.33311 104.298139 
L 211.009689 104.298139 
L 211.009689 104.180546 
L 211.396305 104.180546 
L 211.492959 103.710177 
L 211.686267 103.710177 
L 211.879575 103.3574 
L 212.169537 103.3574 
L 212.266191 103.004623 
L 212.362845 103.004623 
L 212.362845 102.651846 
L 212.652808 102.651846 
L 212.652808 102.299069 
L 213.039424 102.299069 
L 213.039424 102.181476 
L 213.232732 102.181476 
L 213.329386 101.828699 
L 213.42604 101.828699 
L 213.42604 101.711107 
L 213.522694 101.711107 
L 213.812656 101.711107 
L 213.90931 101.35833 
L 214.392581 101.35833 
L 214.392581 101.240738 
L 214.779197 101.123145 
L 214.779197 100.887961 
L 215.455775 100.887961 
L 215.649083 100.652776 
L 215.842392 100.652776 
L 216.0357 100.417591 
L 216.808932 100.417591 
L 216.808932 100.299999 
L 217.292202 100.299999 
L 217.678819 100.182407 
L 217.775473 100.182407 
L 217.872127 99.82963 
L 217.968781 99.82963 
L 218.258743 99.594445 
L 218.645359 99.594445 
L 219.12863 99.006483 
L 219.321938 99.006483 
L 219.708554 98.888891 
L 219.805208 98.888891 
L 219.805208 98.771298 
L 220.191824 98.771298 
L 220.191824 98.653706 
L 220.771749 98.653706 
L 220.771749 98.536114 
L 221.255019 98.536114 
L 221.351673 98.300929 
L 222.608176 98.300929 
L 222.994792 98.183337 
L 223.67137 98.183337 
L 223.67137 98.065744 
L 224.057987 98.065744 
L 224.154641 97.948152 
L 224.154641 97.36019 
L 224.347949 97.36019 
L 224.347949 97.242598 
L 224.444603 97.242598 
L 224.734565 96.889821 
L 224.927873 96.889821 
L 225.024527 96.772229 
L 225.314489 96.772229 
L 225.411144 96.066675 
L 225.507798 96.066675 
L 225.991068 95.949082 
L 226.28103 95.949082 
L 226.28103 95.83149 
L 226.474338 95.83149 
L 226.474338 95.596305 
L 226.667646 95.361121 
L 226.860954 95.361121 
L 227.150917 95.243528 
L 227.537533 95.243528 
L 227.537533 95.008344 
L 228.794036 95.008344 
L 228.987344 94.773159 
L 229.567268 94.185197 
L 229.85723 94.185197 
L 229.85723 93.950012 
L 230.050538 93.950012 
L 230.050538 93.83242 
L 230.243847 93.83242 
L 230.243847 93.714828 
L 230.437155 93.714828 
L 230.437155 93.597235 
L 231.307041 93.597235 
L 231.307041 93.479643 
L 231.500349 93.479643 
L 231.693657 93.362051 
L 232.080274 93.362051 
L 232.080274 93.244458 
L 232.660198 93.244458 
L 232.660198 92.891681 
L 233.143468 92.891681 
L 233.336776 92.656497 
L 233.626739 92.656497 
L 233.723393 92.421312 
L 233.916701 92.421312 
L 233.916701 92.30372 
L 234.303317 92.30372 
L 234.303317 92.068535 
L 234.399971 92.068535 
L 234.593279 92.068535 
L 234.593279 91.950943 
L 234.786587 91.950943 
L 235.269858 91.715758 
L 235.55982 91.715758 
L 235.55982 91.362981 
L 235.656474 91.362981 
L 236.52636 91.362981 
L 236.52636 90.892612 
L 237.009631 90.892612 
L 237.299593 90.657427 
L 237.492901 90.657427 
L 237.589555 90.30465 
L 238.169479 89.599096 
L 238.65275 89.599096 
L 238.65275 89.481503 
L 239.13602 89.481503 
L 239.232674 89.246319 
L 239.329328 89.246319 
L 239.522636 89.128726 
L 240.489177 88.893542 
L 240.489177 88.658357 
L 240.585831 88.658357 
L 241.262409 88.658357 
L 241.262409 88.540765 
L 241.455718 88.540765 
L 241.552372 88.30558 
L 241.74568 88.30558 
L 241.74568 88.187988 
L 241.842334 88.187988 
L 242.132296 87.952803 
L 242.905528 87.717618 
L 242.905528 87.600026 
L 243.098837 87.600026 
L 243.098837 87.247249 
L 243.582107 87.247249 
L 243.678761 86.894472 
L 243.968723 86.894472 
L 244.065377 86.659287 
L 244.162031 86.659287 
L 244.162031 86.541695 
L 244.258685 86.541695 
L 245.418534 86.541695 
L 246.288421 86.188918 
L 246.675037 86.188918 
L 246.675037 86.071326 
L 246.868345 86.071326 
L 246.868345 85.953733 
L 247.061653 85.953733 
L 247.738231 85.600956 
L 247.738231 85.365771 
L 248.028194 85.130587 
L 249.767967 84.895402 
L 250.154583 84.189848 
L 250.251237 83.954663 
L 250.541199 83.954663 
L 250.734507 83.601886 
L 251.121124 83.601886 
L 251.217778 83.484294 
L 251.411086 83.484294 
L 251.50774 83.366702 
L 251.894356 83.366702 
L 251.894356 83.131517 
L 252.377626 82.543555 
L 254.214054 82.543555 
L 254.214054 82.308371 
L 254.504016 82.190778 
L 254.890632 82.190778 
L 255.08394 82.073186 
L 256.050481 82.073186 
L 256.920367 81.955594 
L 259.240065 81.132447 
L 259.819989 81.132447 
L 259.819989 81.014855 
L 260.013297 81.014855 
L 260.013297 80.897262 
L 261.75307 79.838931 
L 262.139686 79.838931 
L 262.139686 79.603747 
L 262.429649 79.603747 
L 262.526303 79.486154 
L 263.202881 79.486154 
L 263.202881 79.015785 
L 263.492843 79.015785 
L 263.492843 78.898193 
L 263.589497 78.898193 
L 263.87946 78.7806 
L 267.165698 78.192639 
L 267.165698 77.957454 
L 267.648968 77.957454 
L 267.648968 77.839862 
L 267.93893 77.839862 
L 268.035584 77.487085 
L 268.132238 77.487085 
L 268.228892 77.2519 
L 268.4222 77.2519 
L 269.195433 76.899123 
L 270.935206 76.546346 
L 271.418476 76.546346 
L 272.481671 76.075976 
L 272.674979 75.840792 
L 272.674979 75.605607 
L 273.061595 75.605607 
L 273.158249 75.370422 
L 273.254903 75.135238 
L 273.931482 75.135238 
L 274.414752 74.664868 
L 274.60806 74.664868 
L 274.801368 74.429684 
L 275.381293 74.194499 
L 275.574601 73.959314 
L 275.574601 73.72413 
L 275.671255 73.72413 
L 275.961217 73.606537 
L 276.154525 73.606537 
L 276.347833 73.488945 
L 276.541141 73.488945 
L 276.541141 73.371353 
L 276.637796 73.371353 
L 277.21772 72.783391 
L 277.314374 72.430614 
L 277.507682 72.430614 
L 277.70099 72.195429 
L 277.990952 72.195429 
L 277.990952 72.077837 
L 278.087606 72.077837 
L 278.377569 71.842652 
L 279.634071 71.842652 
L 280.79392 71.607467 
L 280.987228 71.372283 
L 281.27719 71.372283 
L 281.373845 71.25469 
L 281.760461 71.25469 
L 281.857115 71.137098 
L 282.147077 71.137098 
L 282.437039 70.666729 
L 282.920309 70.666729 
L 282.920309 70.431544 
L 283.113618 70.431544 
L 283.210272 70.313952 
L 283.88685 70.313952 
L 284.080158 70.078767 
L 284.563429 70.078767 
L 284.563429 69.961175 
L 285.143353 69.961175 
L 285.143353 69.72599 
L 286.013239 69.72599 
L 286.49651 69.138028 
L 286.883126 69.138028 
L 286.97978 68.785251 
L 287.076434 68.785251 
L 287.076434 68.550067 
L 287.173088 68.550067 
L 287.366396 68.550067 
L 288.139629 68.314882 
L 288.332937 68.314882 
L 288.332937 68.197289 
L 289.202823 67.72692 
L 289.299477 67.72692 
L 289.879402 67.256551 
L 290.652634 67.021366 
L 291.039251 67.021366 
L 292.199099 66.668589 
L 292.392407 66.668589 
L 292.489061 66.19822 
L 292.585716 66.19822 
L 292.585716 66.080627 
L 292.68237 66.080627 
L 293.068986 66.080627 
L 293.068986 65.963035 
L 293.938872 65.492666 
L 294.905413 65.492666 
L 295.098721 65.375073 
L 295.388683 65.375073 
L 295.485337 65.139889 
L 295.968608 65.139889 
L 296.355224 65.022296 
L 296.74184 65.022296 
L 297.031802 64.669519 
L 298.771575 64.669519 
L 298.868229 64.434335 
L 299.158192 64.434335 
L 299.448154 64.081558 
L 300.897965 64.081558 
L 300.897965 63.846373 
L 300.994619 63.846373 
L 301.477889 63.493596 
L 301.574543 62.905634 
L 302.347776 62.905634 
L 302.637738 62.788042 
L 303.024354 62.788042 
L 303.121008 62.552857 
L 303.507624 62.552857 
L 303.507624 62.435265 
L 303.604278 62.435265 
L 303.990895 62.435265 
L 304.184203 62.317672 
L 304.764127 62.317672 
L 304.764127 62.20008 
L 304.957435 62.20008 
L 305.054089 62.082488 
L 305.923976 62.082488 
L 305.923976 61.964895 
L 306.407246 61.964895 
L 306.407246 61.729711 
L 306.987171 61.729711 
L 308.050365 61.376934 
L 308.340327 61.376934 
L 308.533635 61.259341 
L 309.306868 61.259341 
L 309.403522 61.141749 
L 309.790138 61.141749 
L 309.790138 61.024157 
L 310.176755 61.024157 
L 310.176755 60.906564 
L 310.273409 60.906564 
L 310.563371 60.67138 
L 311.046641 60.436195 
L 311.723219 60.436195 
L 312.109836 60.20101 
L 313.17303 60.20101 
L 313.17303 60.083418 
L 313.366339 60.083418 
L 313.462993 59.965826 
L 314.139571 59.495456 
L 314.429533 59.495456 
L 314.526187 59.377864 
L 315.879344 59.377864 
L 315.975998 59.260271 
L 316.169306 59.260271 
L 316.169306 59.142679 
L 316.362614 59.142679 
L 316.362614 58.907494 
L 316.555923 58.907494 
L 316.555923 58.789902 
L 316.652577 58.789902 
L 318.39235 58.789902 
L 318.39235 58.554717 
L 318.585658 58.554717 
L 318.778966 58.319533 
L 319.262236 58.319533 
L 319.552198 58.20194 
L 319.552198 57.849163 
L 319.938815 57.849163 
L 320.228777 57.731571 
L 321.002009 57.731571 
L 321.098663 57.496386 
L 321.195317 57.261202 
L 323.128399 56.67324 
L 325.254788 56.67324 
L 325.641404 56.438055 
L 326.124674 56.438055 
L 327.091215 55.497317 
L 328.734334 55.497317 
L 328.734334 55.14454 
L 329.217604 55.14454 
L 329.314258 54.909355 
L 331.150686 54.67417 
L 331.150686 54.556578 
L 331.440648 54.556578 
L 331.537302 54.203801 
L 332.987113 54.203801 
L 332.987113 53.968616 
L 333.470383 53.968616 
L 333.567037 53.851024 
L 336.176697 53.498247 
L 336.563313 53.498247 
L 336.563313 53.263062 
L 337.819816 53.14547 
L 338.109778 53.14547 
L 338.88301 52.792693 
L 339.172973 52.204731 
L 339.462935 52.087139 
L 339.462935 51.851954 
L 339.559589 51.851954 
L 340.332821 51.851954 
L 341.685978 51.381585 
L 341.97594 51.381585 
L 342.169249 51.1464 
L 342.362557 51.1464 
L 342.362557 51.028808 
L 343.715714 50.676031 
L 344.682254 50.676031 
L 344.682254 50.558438 
L 345.06887 50.440846 
L 345.455487 50.440846 
L 345.552141 49.970476 
L 345.842103 49.970476 
L 345.842103 49.852884 
L 346.035411 49.852884 
L 346.905297 49.617699 
L 346.905297 49.382515 
L 347.67853 49.382515 
L 347.67853 49.264922 
L 347.871838 49.264922 
L 347.968492 49.029738 
L 350.094881 48.676961 
L 350.384844 48.559368 
L 351.448038 48.324184 
L 352.801195 47.736222 
L 352.994503 47.736222 
L 353.86439 47.501037 
L 354.34766 47.501037 
L 354.734276 47.030668 
L 356.860666 47.030668 
L 358.600439 46.795483 
L 358.600439 46.560299 
L 358.793747 46.560299 
L 358.890401 46.442706 
L 360.05025 46.442706 
L 360.340212 46.089929 
L 360.726828 46.089929 
L 361.113444 45.972337 
L 361.306753 45.972337 
L 361.306753 45.854744 
L 361.790023 45.854744 
L 361.790023 45.61956 
L 362.756563 45.61956 
L 362.756563 45.501967 
L 362.949872 45.501967 
L 363.239834 45.384375 
L 365.559531 45.384375 
L 365.656185 45.266783 
L 365.849493 45.266783 
L 366.042801 45.14919 
L 368.362499 45.14919 
L 368.362499 45.031598 
L 368.555807 45.031598 
L 368.652461 44.678821 
L 369.425694 44.678821 
L 369.425694 44.561229 
L 372.132007 44.561229 
L 372.132007 44.443636 
L 373.581818 44.443636 
L 373.581818 44.443636 
" style="fill:none;stroke:#ff0000;stroke-linecap:square;stroke-width:2;"/>
   </g>
   <g id="line2d_16">
    <path clip-path="url(#p6f5888083b)" d="M 69.218182 242.116364 
L 373.581818 44.443636 
" style="fill:none;stroke:#ee82ee;stroke-dasharray:5.55,2.4;stroke-dashoffset:0;stroke-width:1.5;"/>
   </g>
   <g id="patch_3">
    <path d="M 54 252 
L 54 34.56 
" style="fill:none;stroke:#000000;stroke-linecap:square;stroke-linejoin:miter;stroke-width:0.8;"/>
   </g>
   <g id="patch_4">
    <path d="M 388.8 252 
L 388.8 34.56 
" style="fill:none;stroke:#000000;stroke-linecap:square;stroke-linejoin:miter;stroke-width:0.8;"/>
   </g>
   <g id="patch_5">
    <path d="M 54 252 
L 388.8 252 
" style="fill:none;stroke:#000000;stroke-linecap:square;stroke-linejoin:miter;stroke-width:0.8;"/>
   </g>
   <g id="patch_6">
    <path d="M 54 34.56 
L 388.8 34.56 
" style="fill:none;stroke:#000000;stroke-linecap:square;stroke-linejoin:miter;stroke-width:0.8;"/>
   </g>
   <g id="text_15">
    <!-- ROC curve for Recidivism -->
    <defs>
     <path d="M 44.390625 34.1875 
Q 47.5625 33.109375 50.5625 29.59375 
Q 53.5625 26.078125 56.59375 19.921875 
L 66.609375 0 
L 56 0 
L 46.6875 18.703125 
Q 43.0625 26.03125 39.671875 28.421875 
Q 36.28125 30.8125 30.421875 30.8125 
L 19.671875 30.8125 
L 19.671875 0 
L 9.8125 0 
L 9.8125 72.90625 
L 32.078125 72.90625 
Q 44.578125 72.90625 50.734375 67.671875 
Q 56.890625 62.453125 56.890625 51.90625 
Q 56.890625 45.015625 53.6875 40.46875 
Q 50.484375 35.9375 44.390625 34.1875 
z
M 19.671875 64.796875 
L 19.671875 38.921875 
L 32.078125 38.921875 
Q 39.203125 38.921875 42.84375 42.21875 
Q 46.484375 45.515625 46.484375 51.90625 
Q 46.484375 58.296875 42.84375 61.546875 
Q 39.203125 64.796875 32.078125 64.796875 
z
" id="DejaVuSans-82"/>
     <path d="M 39.40625 66.21875 
Q 28.65625 66.21875 22.328125 58.203125 
Q 16.015625 50.203125 16.015625 36.375 
Q 16.015625 22.609375 22.328125 14.59375 
Q 28.65625 6.59375 39.40625 6.59375 
Q 50.140625 6.59375 56.421875 14.59375 
Q 62.703125 22.609375 62.703125 36.375 
Q 62.703125 50.203125 56.421875 58.203125 
Q 50.140625 66.21875 39.40625 66.21875 
z
M 39.40625 74.21875 
Q 54.734375 74.21875 63.90625 63.9375 
Q 73.09375 53.65625 73.09375 36.375 
Q 73.09375 19.140625 63.90625 8.859375 
Q 54.734375 -1.421875 39.40625 -1.421875 
Q 24.03125 -1.421875 14.8125 8.828125 
Q 5.609375 19.09375 5.609375 36.375 
Q 5.609375 53.65625 14.8125 63.9375 
Q 24.03125 74.21875 39.40625 74.21875 
z
" id="DejaVuSans-79"/>
     <path d="M 64.40625 67.28125 
L 64.40625 56.890625 
Q 59.421875 61.53125 53.78125 63.8125 
Q 48.140625 66.109375 41.796875 66.109375 
Q 29.296875 66.109375 22.65625 58.46875 
Q 16.015625 50.828125 16.015625 36.375 
Q 16.015625 21.96875 22.65625 14.328125 
Q 29.296875 6.6875 41.796875 6.6875 
Q 48.140625 6.6875 53.78125 8.984375 
Q 59.421875 11.28125 64.40625 15.921875 
L 64.40625 5.609375 
Q 59.234375 2.09375 53.4375 0.328125 
Q 47.65625 -1.421875 41.21875 -1.421875 
Q 24.65625 -1.421875 15.125 8.703125 
Q 5.609375 18.84375 5.609375 36.375 
Q 5.609375 53.953125 15.125 64.078125 
Q 24.65625 74.21875 41.21875 74.21875 
Q 47.75 74.21875 53.53125 72.484375 
Q 59.328125 70.75 64.40625 67.28125 
z
" id="DejaVuSans-67"/>
     <path d="M 48.78125 52.59375 
L 48.78125 44.1875 
Q 44.96875 46.296875 41.140625 47.34375 
Q 37.3125 48.390625 33.40625 48.390625 
Q 24.65625 48.390625 19.8125 42.84375 
Q 14.984375 37.3125 14.984375 27.296875 
Q 14.984375 17.28125 19.8125 11.734375 
Q 24.65625 6.203125 33.40625 6.203125 
Q 37.3125 6.203125 41.140625 7.25 
Q 44.96875 8.296875 48.78125 10.40625 
L 48.78125 2.09375 
Q 45.015625 0.34375 40.984375 -0.53125 
Q 36.96875 -1.421875 32.421875 -1.421875 
Q 20.0625 -1.421875 12.78125 6.34375 
Q 5.515625 14.109375 5.515625 27.296875 
Q 5.515625 40.671875 12.859375 48.328125 
Q 20.21875 56 33.015625 56 
Q 37.15625 56 41.109375 55.140625 
Q 45.0625 54.296875 48.78125 52.59375 
z
" id="DejaVuSans-99"/>
     <path d="M 37.109375 75.984375 
L 37.109375 68.5 
L 28.515625 68.5 
Q 23.6875 68.5 21.796875 66.546875 
Q 19.921875 64.59375 19.921875 59.515625 
L 19.921875 54.6875 
L 34.71875 54.6875 
L 34.71875 47.703125 
L 19.921875 47.703125 
L 19.921875 0 
L 10.890625 0 
L 10.890625 47.703125 
L 2.296875 47.703125 
L 2.296875 54.6875 
L 10.890625 54.6875 
L 10.890625 58.5 
Q 10.890625 67.625 15.140625 71.796875 
Q 19.390625 75.984375 28.609375 75.984375 
z
" id="DejaVuSans-102"/>
     <path d="M 45.40625 46.390625 
L 45.40625 75.984375 
L 54.390625 75.984375 
L 54.390625 0 
L 45.40625 0 
L 45.40625 8.203125 
Q 42.578125 3.328125 38.25 0.953125 
Q 33.9375 -1.421875 27.875 -1.421875 
Q 17.96875 -1.421875 11.734375 6.484375 
Q 5.515625 14.40625 5.515625 27.296875 
Q 5.515625 40.1875 11.734375 48.09375 
Q 17.96875 56 27.875 56 
Q 33.9375 56 38.25 53.625 
Q 42.578125 51.265625 45.40625 46.390625 
z
M 14.796875 27.296875 
Q 14.796875 17.390625 18.875 11.75 
Q 22.953125 6.109375 30.078125 6.109375 
Q 37.203125 6.109375 41.296875 11.75 
Q 45.40625 17.390625 45.40625 27.296875 
Q 45.40625 37.203125 41.296875 42.84375 
Q 37.203125 48.484375 30.078125 48.484375 
Q 22.953125 48.484375 18.875 42.84375 
Q 14.796875 37.203125 14.796875 27.296875 
z
" id="DejaVuSans-100"/>
     <path d="M 52 44.1875 
Q 55.375 50.25 60.0625 53.125 
Q 64.75 56 71.09375 56 
Q 79.640625 56 84.28125 50.015625 
Q 88.921875 44.046875 88.921875 33.015625 
L 88.921875 0 
L 79.890625 0 
L 79.890625 32.71875 
Q 79.890625 40.578125 77.09375 44.375 
Q 74.3125 48.1875 68.609375 48.1875 
Q 61.625 48.1875 57.5625 43.546875 
Q 53.515625 38.921875 53.515625 30.90625 
L 53.515625 0 
L 44.484375 0 
L 44.484375 32.71875 
Q 44.484375 40.625 41.703125 44.40625 
Q 38.921875 48.1875 33.109375 48.1875 
Q 26.21875 48.1875 22.15625 43.53125 
Q 18.109375 38.875 18.109375 30.90625 
L 18.109375 0 
L 9.078125 0 
L 9.078125 54.6875 
L 18.109375 54.6875 
L 18.109375 46.1875 
Q 21.1875 51.21875 25.484375 53.609375 
Q 29.78125 56 35.6875 56 
Q 41.65625 56 45.828125 52.96875 
Q 50 49.953125 52 44.1875 
z
" id="DejaVuSans-109"/>
    </defs>
    <g transform="translate(145.049062 28.56)scale(0.12 -0.12)">
     <use xlink:href="#DejaVuSans-82"/>
     <use x="69.482422" xlink:href="#DejaVuSans-79"/>
     <use x="148.193359" xlink:href="#DejaVuSans-67"/>
     <use x="218.017578" xlink:href="#DejaVuSans-32"/>
     <use x="249.804688" xlink:href="#DejaVuSans-99"/>
     <use x="304.785156" xlink:href="#DejaVuSans-117"/>
     <use x="368.164062" xlink:href="#DejaVuSans-114"/>
     <use x="409.277344" xlink:href="#DejaVuSans-118"/>
     <use x="468.457031" xlink:href="#DejaVuSans-101"/>
     <use x="529.980469" xlink:href="#DejaVuSans-32"/>
     <use x="561.767578" xlink:href="#DejaVuSans-102"/>
     <use x="596.972656" xlink:href="#DejaVuSans-111"/>
     <use x="658.154297" xlink:href="#DejaVuSans-114"/>
     <use x="699.267578" xlink:href="#DejaVuSans-32"/>
     <use x="731.054688" xlink:href="#DejaVuSans-82"/>
     <use x="800.474609" xlink:href="#DejaVuSans-101"/>
     <use x="861.998047" xlink:href="#DejaVuSans-99"/>
     <use x="916.978516" xlink:href="#DejaVuSans-105"/>
     <use x="944.761719" xlink:href="#DejaVuSans-100"/>
     <use x="1008.238281" xlink:href="#DejaVuSans-105"/>
     <use x="1036.021484" xlink:href="#DejaVuSans-118"/>
     <use x="1095.201172" xlink:href="#DejaVuSans-105"/>
     <use x="1122.984375" xlink:href="#DejaVuSans-115"/>
     <use x="1175.083984" xlink:href="#DejaVuSans-109"/>
    </g>
   </g>
  </g>
 </g>
 <defs>
  <clipPath id="p6f5888083b">
   <rect height="217.44" width="334.8" x="54" y="34.56"/>
  </clipPath>
 </defs>
</svg>
